<svg id="arch" xmlns="http://www.w3.org/2000/svg" viewBox="0 0 97.42 141.05">
    <title>arch-icon</title>
    <g>

        <g id="arch-rose1">
            <path d="M9.25,40.72a6.43,6.43,0,0,0,2,.53,3.11,3.11,0,0,0,1.86-.3,3.55,3.55,0,0,0,1.76-3.44,3.88,3.88,0,0,0-.74-2,1.82,1.82,0,0,0-1.79-.63C11,35.17,9.6,36,9.41,37.19A1.63,1.63,0,0,0,10,38.71a2.52,2.52,0,0,0,1.44.58l-.18-.09a1.41,1.41,0,0,1-.6-1.1,1.91,1.91,0,0,1,.45-1.2,1.37,1.37,0,0,1,1.27-.61,1.55,1.55,0,0,1,1.17.85,2.07,2.07,0,0,1,.11,1.38,2.35,2.35,0,0,1-1.91,1.83,2.71,2.71,0,0,1-1.35-.19,3.36,3.36,0,0,1-1.1-.68,2.64,2.64,0,0,1-.77-1.32,3,3,0,0,0-.29,1.15A1.51,1.51,0,0,0,9.25,40.72Z"
                  transform="translate(-1.53 -4.76)" style="fill: #60c1cb"/>
            <path d="M12.23,37.05c-.11-.06-.42.07-.64.28a1.36,1.36,0,0,0-.42.79,1,1,0,0,0,.31.83,1.81,1.81,0,0,0,.34.28,1.4,1.4,0,0,0,.91-.95C12.91,37.72,12.76,37.17,12.23,37.05Z"
                  transform="translate(-1.53 -4.76)" style="fill: #60c1cb"/>
        </g>
        <path id="arch-rose2"
              d="M15,29.58c.33,0,.63-.16.72-.4a1.81,1.81,0,0,0-.1-1.15,1.19,1.19,0,0,0-.76-.92,1.43,1.43,0,0,0-1.23.24,1.72,1.72,0,0,0-.66,1c-.05.33.25.64.56.88a1.11,1.11,0,0,0,1,.26,1,1,0,0,0,.54-1h0A1.12,1.12,0,0,1,15,29.58Z"
              transform="translate(-1.53 -4.76)" style="fill: #60c1cb"/>
        <path id="arch-rose3"
              d="M15.35,43a1.25,1.25,0,0,0,1.57.52A1.28,1.28,0,0,0,17.41,42a1,1,0,0,0-.81-.44.67.67,0,0,0-.74.58h-.07a.84.84,0,0,1,.78-.95,1.45,1.45,0,0,1,1.31.45A1.61,1.61,0,0,1,18.15,43a1.89,1.89,0,0,1-.77,1.17h.47a.75.75,0,0,0,.62-.47,2.78,2.78,0,0,0,.2-1,3.29,3.29,0,0,0-.08-1.06A1.81,1.81,0,0,0,17,40.37a2.31,2.31,0,0,0-2,.81C14.58,41.76,14.91,42.46,15.35,43Z"
              transform="translate(-1.53 -4.76)" style="fill: #60c1cb"/>
        <path id="arch-rose4"
              d="M23.62,23.63a1.24,1.24,0,0,0,1.57.52,1.27,1.27,0,0,0,.49-1.57,1,1,0,0,0-.81-.44.66.66,0,0,0-.74.57h-.07a.84.84,0,0,1,.78-.95,1.43,1.43,0,0,1,1.31.46,1.58,1.58,0,0,1,.27,1.41,1.89,1.89,0,0,1-.8,1.2c.51.05,1-.07,1.12-.49a2.73,2.73,0,0,0,.2-1,3.27,3.27,0,0,0-.08-1.06A1.8,1.8,0,0,0,25.29,21a2.31,2.31,0,0,0-2,.81C22.85,22.35,23.18,23.05,23.62,23.63Z"
              transform="translate(-1.53 -4.76)" style="fill: #60c1cb"/>
        <g id="arch-rose5">
            <path d="M36.14,11a6.19,6.19,0,0,0-1.25-1.42,3,3,0,0,0-1.57-.73,3.31,3.31,0,0,0-3.13,1.72,3.64,3.64,0,0,0-.45,1.89,1.69,1.69,0,0,0,1.05,1.4c1.15.47,2.66.53,3.39-.26a1.48,1.48,0,0,0,.32-1.44A2.4,2.4,0,0,0,33.79,11a.43.43,0,0,1,0,.07,1.29,1.29,0,0,1-.1,1.17,1.85,1.85,0,0,1-1,.71,1.29,1.29,0,0,1-1.32-.2A1.46,1.46,0,0,1,31,11.49a2.05,2.05,0,0,1,.64-1.15,2.21,2.21,0,0,1,2.46-.42,2.48,2.48,0,0,1,.95.86,3,3,0,0,1,.5,1.1,2.5,2.5,0,0,1-.07,1.38,2.55,2.55,0,0,0,.75-.71A1.42,1.42,0,0,0,36.14,11Z"
                  transform="translate(-1.53 -4.76)" style="fill: #60c1cb"/>
            <path d="M32.23,11.07c-.42.33-.58.8-.25,1.15,0,.09.34.16.61.11a1.22,1.22,0,0,0,.73-.37,1.13,1.13,0,0,0,.09-1.15A1.31,1.31,0,0,0,32.23,11.07Z"
                  transform="translate(-1.53 -4.76)" style="fill: #60c1cb"/>
        </g>
        <g id="arch-rose6">
            <path d="M37.44,24.36a8,8,0,0,0,1.86,1.78,2,2,0,0,0,2.23.14A4,4,0,0,0,42.69,25a3.12,3.12,0,0,1-2,.08,4,4,0,0,1-1.38-.71,3.16,3.16,0,0,1-1-1.25A2.82,2.82,0,0,1,38.94,20a2.56,2.56,0,0,1,1.48-.74A1.83,1.83,0,0,1,42,20l.08.1,0,.08a1.6,1.6,0,0,1,.11.25,1.22,1.22,0,0,1,.06.45,2.21,2.21,0,0,1-.14.78,2.34,2.34,0,0,1-.95,1.22,1.68,1.68,0,0,1-1.51.07,2.59,2.59,0,0,1-.46-.26.09.09,0,0,1,0,.05A3,3,0,0,0,41,24.09a2.15,2.15,0,0,0,2.1-.38c1.18-1,1.14-3.09.55-4.66a2.32,2.32,0,0,0-1.87-1.51,4.86,4.86,0,0,0-2.58.48,4.51,4.51,0,0,0-2.62,4.1A4,4,0,0,0,37.44,24.36Z"
                  transform="translate(-1.53 -4.76)" style="fill: #60c1cb"/>
            <path d="M40.92,22.4a1.77,1.77,0,0,0,.61-1c.09-.37,0-.81-.12-.94a1.16,1.16,0,0,0-1.77.23,1.94,1.94,0,0,0-.49,1.63,3.18,3.18,0,0,0,.64.26A1.33,1.33,0,0,0,40.92,22.4Z"
                  transform="translate(-1.53 -4.76)" style="fill: #60c1cb"/>
        </g>
        <path id="arch-rose7"
              d="M43.12,9.28a1.12,1.12,0,0,0-1,.41,1,1,0,0,0,.16,1.12l0,0a1.12,1.12,0,0,1-.54-1,.9.9,0,0,0-.34.75c.07.33.43.61.77.87a1.2,1.2,0,0,0,1.16.28,1.45,1.45,0,0,0,.84-.92,1.71,1.71,0,0,0-.05-1.17C43.93,9.36,43.5,9.29,43.12,9.28Z"
              transform="translate(-1.53 -4.76)" style="fill: #60c1cb"/>
        <g id="arch-rose8">
            <path d="M56.34,7a2.32,2.32,0,0,0-.92,2.22,5,5,0,0,0,1.2,2.34,4.52,4.52,0,0,0,4.68,1.34,4,4,0,0,0,1.89-1.5,7.65,7.65,0,0,0,1.17-2.29A2,2,0,0,0,63.86,7a4,4,0,0,0-1.56-.75A3.17,3.17,0,0,1,63,8.13a4,4,0,0,1-.29,1.53A3.09,3.09,0,0,1,61.76,11a2.8,2.8,0,0,1-3.14.22A2.43,2.43,0,0,1,57.5,10a1.77,1.77,0,0,1,.17-1.69l0,0,0,0v0l.06-.06A1.16,1.16,0,0,1,58,8a1.47,1.47,0,0,1,.41-.18,2.46,2.46,0,0,1,.8-.09,2.34,2.34,0,0,1,1.43.57,1.66,1.66,0,0,1,.5,1.42,3,3,0,0,1-.12.52l0,0a3,3,0,0,0,.84-2,2.12,2.12,0,0,0-1-1.9C59.64,5.39,57.67,6,56.34,7Z"
                  transform="translate(-1.53 -4.76)" style="fill: #60c1cb"/>
            <path d="M60.32,8.66a1.73,1.73,0,0,0-1.11-.3c-.38,0-.8.18-.87.38-.38.63,0,1.32.73,1.63a1.92,1.92,0,0,0,1.7,0,3.22,3.22,0,0,0,.06-.69A1.34,1.34,0,0,0,60.32,8.66Z"
                  transform="translate(-1.53 -4.76)" style="fill: #60c1cb"/>
        </g>
        <path id="arch-rose9"
              d="M64.33,19.27a1.83,1.83,0,0,1-1.3-.2c.15.42.42.73.81.69a2.61,2.61,0,0,0,.94-.22,3.35,3.35,0,0,0,.86-.47,1.66,1.66,0,0,0,.5-1.8,2.18,2.18,0,0,0-1.46-1.39c-.64-.13-1.09.41-1.42,1a1.15,1.15,0,0,0,.17,1.5,1.17,1.17,0,0,0,1.48-.18.94.94,0,0,0,.07-.84.61.61,0,0,0-.76-.41l0-.06a.79.79,0,0,1,1.12.29,1.34,1.34,0,0,1,.12,1.29A1.53,1.53,0,0,1,64.33,19.27Z"
              transform="translate(-1.53 -4.76)" style="fill: #60c1cb"/>
        <g id="arch-rose10">
            <path d="M72.19,12a6.19,6.19,0,0,0-1.25-1.42,2.92,2.92,0,0,0-1.57-.73,3.28,3.28,0,0,0-3.12,1.72,3.55,3.55,0,0,0-.46,1.89,1.66,1.66,0,0,0,1.06,1.39c1.14.48,2.65.54,3.38-.25a1.45,1.45,0,0,0,.32-1.44,2.32,2.32,0,0,0-.71-1.11.43.43,0,0,1,0,.07,1.29,1.29,0,0,1-.1,1.17,1.85,1.85,0,0,1-1,.71,1.32,1.32,0,0,1-1.32-.2A1.43,1.43,0,0,1,67,12.55a2,2,0,0,1,.63-1.15A2.21,2.21,0,0,1,70.11,11a2.4,2.4,0,0,1,1,.85,3.11,3.11,0,0,1,.5,1.11,2.5,2.5,0,0,1-.07,1.38,2.69,2.69,0,0,0,.75-.71A1.41,1.41,0,0,0,72.19,12Z"
                  transform="translate(-1.53 -4.76)" style="fill: #60c1cb"/>
            <path d="M68.28,12.12c-.42.34-.58.8-.25,1.16,0,.09.34.16.61.11a1.22,1.22,0,0,0,.73-.37,1.08,1.08,0,0,0,.09-1.15A1.33,1.33,0,0,0,68.28,12.12Z"
                  transform="translate(-1.53 -4.76)" style="fill: #60c1cb"/>
        </g>
        <g id="arch-rose11">
            <path d="M76.12,34a3,3,0,0,0-1.52.84,3.27,3.27,0,0,0-.46,3.53,3.49,3.49,0,0,0,1.25,1.48,1.65,1.65,0,0,0,1.75,0c1.06-.64,2-1.82,1.79-2.88a1.46,1.46,0,0,0-1-1.11,2.46,2.46,0,0,0-1.31-.09l.07,0a1.28,1.28,0,0,1,.88.77,1.86,1.86,0,0,1,0,1.21,1.33,1.33,0,0,1-1,1,1.43,1.43,0,0,1-1.3-.39,2,2,0,0,1-.55-1.19,2.2,2.2,0,0,1,1.12-2.23,2.5,2.5,0,0,1,1.25-.26,3.09,3.09,0,0,1,1.18.25,2.45,2.45,0,0,1,1.07.87,2.63,2.63,0,0,0-.12-1A1.42,1.42,0,0,0,78,33.82,6.07,6.07,0,0,0,76.12,34Z"
                  transform="translate(-1.53 -4.76)" style="fill: #60c1cb"/>
            <path d="M76.55,37.9c.09,0,.33-.17.45-.42a1.19,1.19,0,0,0,.13-.8,1.08,1.08,0,0,0-.86-.76,1.28,1.28,0,0,0-.5,1.1C75.79,37.55,76.07,38,76.55,37.9Z"
                  transform="translate(-1.53 -4.76)" style="fill: #60c1cb"/>
        </g>
        <g id="arch-rose12">
            <path d="M79.45,23.63a3.9,3.9,0,0,0-.74-2A1.8,1.8,0,0,0,76.92,21c-1.32.25-2.72,1.1-2.91,2.28a1.61,1.61,0,0,0,.59,1.51,2.53,2.53,0,0,0,1.43.59s-.11-.06-.17-.1a1.38,1.38,0,0,1-.6-1.1,1.93,1.93,0,0,1,.45-1.2A1.37,1.37,0,0,1,77,22.41a1.53,1.53,0,0,1,1.16.86,2,2,0,0,1,.12,1.38,2.35,2.35,0,0,1-1.92,1.83,2.69,2.69,0,0,1-1.34-.2,3.39,3.39,0,0,1-1.1-.67,2.67,2.67,0,0,1-.77-1.33,3,3,0,0,0-.29,1.16,1.51,1.51,0,0,0,1,1.41,6.51,6.51,0,0,0,2,.53,3.21,3.21,0,0,0,1.87-.3A3.59,3.59,0,0,0,79.45,23.63Z"
                  transform="translate(-1.53 -4.76)" style="fill: #60c1cb"/>
            <path d="M76.83,23.18c-.11-.06-.42.07-.64.28a1.31,1.31,0,0,0-.42.78,1,1,0,0,0,.3.84,2.53,2.53,0,0,0,.35.28,1.46,1.46,0,0,0,.91-1C77.51,23.84,77.36,23.29,76.83,23.18Z"
                  transform="translate(-1.53 -4.76)" style="fill: #60c1cb"/>
        </g>
        <g id="arch-rose13">
            <path d="M91.27,34a8,8,0,0,0-1.58-1.83,3.75,3.75,0,0,0-2-.93,4.23,4.23,0,0,0-4,2.24,4.57,4.57,0,0,0-.57,2.4,2.13,2.13,0,0,0,1.33,1.81c1.44.63,3.37.75,4.37-.3a2,2,0,0,0,.44-1.92A2.75,2.75,0,0,0,88,33.83h0a3,3,0,0,1,.2.4,1.6,1.6,0,0,1-.14,1.42,2.17,2.17,0,0,1-1.19.85,2.34,2.34,0,0,1-.75.1,1.56,1.56,0,0,1-.42-.08,1.07,1.07,0,0,1-.24-.12l-.07,0a.7.7,0,0,1-.09-.09,1.69,1.69,0,0,1-.54-1.52,2.37,2.37,0,0,1,.76-1.37,2.67,2.67,0,0,1,3-.49,3,3,0,0,1,1.14,1,4,4,0,0,1,.61,1.34,3.09,3.09,0,0,1-.16,1.87,3.8,3.8,0,0,0,1.19-1A1.82,1.82,0,0,0,91.27,34Z"
                  transform="translate(-1.53 -4.76)" style="fill: #60c1cb"/>
            <path d="M85.89,35.71c.1.16.51.22.86.15a1.54,1.54,0,0,0,.94-.51,1.21,1.21,0,0,0,.24-1,2.62,2.62,0,0,0-.19-.58,1.77,1.77,0,0,0-1.54.37A1.07,1.07,0,0,0,85.89,35.71Z"
                  transform="translate(-1.53 -4.76)" style="fill: #60c1cb"/>
        </g>
        <path id="arch-rose14"
              d="M86.8,42.31a1.65,1.65,0,0,0,1.43,1.2,2.14,2.14,0,0,0,1.86-.76c.39-.52.08-1.17-.32-1.69a1.13,1.13,0,0,0-1.43-.48A1.19,1.19,0,0,0,87.88,42a1,1,0,0,0,.75.4.6.6,0,0,0,.68-.52h.07a.79.79,0,0,1-.72.9,1.36,1.36,0,0,1-1.24-.42A1.53,1.53,0,0,1,87.16,41a1.8,1.8,0,0,1,.72-1.1c-.45,0-.85.09-1,.46a2.55,2.55,0,0,0-.19,1A3,3,0,0,0,86.8,42.31Z"
              transform="translate(-1.53 -4.76)" style="fill: #60c1cb"/>

        <path id="arch-column1"
              d="M88.58,117.53a.82.82,0,0,0,1.52,0,3.67,3.67,0,0,0,.05-1l0-2,0-4-.1-8.07-.2-16.13-.2-16.13-.1-8.07,0-4,0-2a4,4,0,0,0-.06-1,.79.79,0,0,0-1.48,0,3.93,3.93,0,0,0,0,1l0,2,0,4,.1,8.06.18,16.14.19,16.13.09,8.06,0,4,0,2A4.1,4.1,0,0,0,88.58,117.53Z"
              transform="translate(-1.53 -4.76)" style="fill: #5f5f5f"/>
        <path id="arch-column2"
              d="M81.94,114.52l0-4,.1-8.06.18-16.13.19-16.14.09-8.06,0-4,0-2a3.17,3.17,0,0,0,0-1,.8.8,0,0,0-.73-.51.82.82,0,0,0-.74.51A3.91,3.91,0,0,0,81,56l0,2,0,4-.1,8.07-.2,16.13-.2,16.13-.1,8.07,0,4,0,2a4.12,4.12,0,0,0,0,1,.87.87,0,0,0,.76.52.86.86,0,0,0,.77-.52,4.11,4.11,0,0,0,.06-1Z"
              transform="translate(-1.53 -4.76)" style="fill: #5f5f5f"/>
        <path id="arch-column3"
              d="M84.34,117.53a.84.84,0,0,0,.76.52.83.83,0,0,0,.76-.52,4.06,4.06,0,0,0,.06-1V56a3.92,3.92,0,0,0-.06-1,.81.81,0,0,0-.74-.51.83.83,0,0,0-.74.51,3.92,3.92,0,0,0-.06,1v60.5A4.06,4.06,0,0,0,84.34,117.53Z"
              transform="translate(-1.53 -4.76)" style="fill: #5f5f5f"/>
        <path id="arch-column4"
              d="M12,114.52l0-4,.09-8.06.18-16.13.19-16.13.09-8.07.05-4,0-2a3.52,3.52,0,0,0,0-1,.83.83,0,0,0-.74-.51.8.8,0,0,0-.74.51,3.94,3.94,0,0,0-.07,1l0,2-.05,4-.1,8.07-.2,16.13-.2,16.13-.1,8.07-.05,4,0,2a3.31,3.31,0,0,0,.05,1,.85.85,0,0,0,.76.52.86.86,0,0,0,.76-.52,4.11,4.11,0,0,0,.06-1Z"
              transform="translate(-1.53 -4.76)" style="fill: #5f5f5f"/>
        <path id="arch-column5"
              d="M18.63,117.53a.82.82,0,0,0,1.52,0,3.31,3.31,0,0,0,.05-1l0-2-.05-4-.1-8.06-.2-16.13-.2-16.14-.1-8.06-.05-4,0-2a3.91,3.91,0,0,0-.07-1,.79.79,0,0,0-1.48,0,3.93,3.93,0,0,0-.05,1l0,2,0,4,.1,8.07.18,16.13.19,16.13.09,8.07.05,4,0,2A4.67,4.67,0,0,0,18.63,117.53Z"
              transform="translate(-1.53 -4.76)" style="fill: #5f5f5f"/>
        <path id="arch-column6"
              d="M14.62,117.53a.83.83,0,0,0,.76.52.84.84,0,0,0,.76-.52,4.06,4.06,0,0,0,.06-1V56a3.93,3.93,0,0,0-.05-1,.83.83,0,0,0-.74-.51.8.8,0,0,0-.74.51,3.92,3.92,0,0,0-.06,1v60.5A3.26,3.26,0,0,0,14.62,117.53Z"
              transform="translate(-1.53 -4.76)" style="fill: #5f5f5f"/>

        <path id="arch-podium1"
              d="M24.55,126.41c-.16-1.06-.24-2.13-.34-3.2-.1-.86-.14-1.72-.19-2.58l-1.72.1-2.31,0-4.61.09-4.62-.09-2.3,0-1.72-.1c0,.86-.09,1.72-.19,2.58-.11,1.07-.19,2.14-.34,3.2l9.17,0Z"
              transform="translate(-1.53 -4.76)" style="fill: #5f5f5f"/>
        <rect id="arch-podium1-1" x="4.62" y="121.69" style="fill: #5f5f5f"/>
        <path id="arch-podium2"
              d="M93.74,120.63l-1.72.1-2.31,0-4.61.09-4.61-.09-2.31,0-1.72-.1c0,.86-.09,1.72-.19,2.58-.11,1.07-.19,2.14-.34,3.2l9.17,0,9.17,0c-.15-1.06-.23-2.13-.35-3.2C93.83,122.35,93.79,121.49,93.74,120.63Z"
              transform="translate(-1.53 -4.76)" style="fill: #5f5f5f"/>

        <path id="arch-main"
              d="M98.27,48.77a3.87,3.87,0,0,0-2.16-1.53,9.37,9.37,0,0,0-1.52-.32,1.74,1.74,0,0,0-.07-.71,2.11,2.11,0,0,0-1.18-1.31,3.12,3.12,0,0,0-.86-.21L92,44.61a30.8,30.8,0,0,0-.26-3.47c-.08-.73-.15-1.42-.19-2.14l-.14-2.16v-.08h0a3.84,3.84,0,0,1-1.38.7,2.68,2.68,0,0,1-.49.63,3.56,3.56,0,0,1-2.7.9,5.77,5.77,0,0,1-2.6-.79,3.16,3.16,0,0,1-1-1,2.71,2.71,0,0,1-.4-1.32,5.76,5.76,0,0,1,.63-2.56,5.58,5.58,0,0,1,1.69-2,4.31,4.31,0,0,1,2.62-.88,4,4,0,0,1,2.47,1l0-.2v-.05l0-.07c-.56-1.35-1.18-2.59-1.7-3.88a35.65,35.65,0,0,0-1.74-4c-.18-.34-.37-.64-.59-1s-.39-.58-.64-.89A20.07,20.07,0,0,0,84,19.74c-1-1-2-2-2.89-3.07a22.19,22.19,0,0,0-3.15-3,23.25,23.25,0,0,0-3.79-2.17c-.77-.37-1.52-.76-2.26-1.16a5.17,5.17,0,0,1,1,1.38,2.47,2.47,0,0,1,.25,1.16A1.78,1.78,0,0,1,72.66,14a3,3,0,0,1-1.33.76,2.24,2.24,0,0,1-.43.58,2.94,2.94,0,0,1-2.22.74,4.68,4.68,0,0,1-2.1-.67,2.22,2.22,0,0,1-1.13-1.85,4.73,4.73,0,0,1,.5-2,4,4,0,0,1,3.47-2.41l.21,0a16.93,16.93,0,0,0-3.15-1.36c-.54-.16-1.07-.29-1.61-.42a2.38,2.38,0,0,1,.22.49,3.06,3.06,0,0,1,0,1.53,7.82,7.82,0,0,1-1.2,2.62,4.26,4.26,0,0,1-2.37,1.78,4.52,4.52,0,0,1-2.91-.24,5.77,5.77,0,0,1-2.27-1.69,6.22,6.22,0,0,1-1.3-2.48,2.87,2.87,0,0,1,.1-1.45A3.16,3.16,0,0,1,56,6.63a6,6,0,0,1,1.6-1.11A17.66,17.66,0,0,0,53.94,5c-1.43-.07-2.88,0-4.23,0a43.08,43.08,0,0,0-4.31-.18,21.09,21.09,0,0,0-4.32.74c-1.38.36-2.69.64-4.09.89a23,23,0,0,0-4.27,1.12h0l0,0-1.32.66-.67.33-.33.16-.16.08L30,8.85,30,8.9c-.86.49-1.71,1-2.54,1.45a30.75,30.75,0,0,0-5.23,3.13,38.9,38.9,0,0,0-4.12,4.4,31,31,0,0,0-3.89,4.67A39.76,39.76,0,0,0,11.73,28a34.55,34.55,0,0,0-2.15,5.61,16.82,16.82,0,0,0-.32,2A4.2,4.2,0,0,1,10,35a5.08,5.08,0,0,1,2.26-.68,2.41,2.41,0,0,1,2.12,1,5,5,0,0,1,.78,2.13,4.28,4.28,0,0,1-1.66,4.21,3.45,3.45,0,0,1-2.4.46,6.21,6.21,0,0,1-2.24-.73l-.09-.07-.13,1.19a20.74,20.74,0,0,0-.1,2.09L8,44.69a3.12,3.12,0,0,0-.86.21A2.13,2.13,0,0,0,6,46.21a1.92,1.92,0,0,0-.06.71,9.71,9.71,0,0,0-1.53.32A3.91,3.91,0,0,0,2.2,48.77a4.51,4.51,0,0,0-.67,2.46A5.38,5.38,0,0,0,2,53.66a3.88,3.88,0,0,0,1.77,1.85,4.16,4.16,0,0,0,2.47.39,3.9,3.9,0,0,0,2.22-1.09,3.51,3.51,0,0,0,.69-1L8.83,86.22,8.59,119.9H8.7c0-.23,0-.46,0-.69l2,0,4.62-.09,4.61.09,2,0c0,.23,0,.46,0,.69h.1l-.23-33.68-.32-32.44a3.3,3.3,0,0,0,.68,1,3.93,3.93,0,0,0,2.23,1.09A4.16,4.16,0,0,0,27,55.51a4,4,0,0,0,1.77-1.85,5.66,5.66,0,0,0,.47-2.43,4.62,4.62,0,0,0-.68-2.47,3.94,3.94,0,0,0-2.16-1.52,8.7,8.7,0,0,0-1.53-.32,1.73,1.73,0,0,0-.06-.71,2.1,2.1,0,0,0-1.19-1.31,2.15,2.15,0,0,0-.47-.14,22.86,22.86,0,0,1,.67-2.52,31.82,31.82,0,0,0,.76-3.33,8.9,8.9,0,0,1,1-3c.52-.92,1.23-1.78,1.85-2.78s1.16-2,1.75-2.84a9.52,9.52,0,0,1,2.18-2.16c.88-.64,1.84-1.37,2.69-2.13a18,18,0,0,1,2.21-1.78,4.08,4.08,0,0,1-.57-2.13,4.48,4.48,0,0,1,1.06-2.72A6,6,0,0,1,39,17.72a6.12,6.12,0,0,1,2.75-.53,2.89,2.89,0,0,1,1.37.5,3.2,3.2,0,0,1,1,1.12,6.24,6.24,0,0,1,.68,2.61,16.28,16.28,0,0,1,4,.11c.76.06,1.48.08,2.23.12s1.51,0,2.23,0a11.4,11.4,0,0,1,2.06.16,11.87,11.87,0,0,1,2,.57c.66.24,1.36.52,2.1.76s1.47.41,2.16.6c.34.1.68.2,1,.31s.56.21.92.38a10.33,10.33,0,0,1,1.66,1.07l1.73,1.36c.61.47,1.25.9,1.84,1.29a13.39,13.39,0,0,1,1.6,1.22,8.18,8.18,0,0,1,1.25,1.53c.71,1.09,1.47,2.43,2.31,3.54l.11-.18a3.29,3.29,0,0,1,2-1.17,6,6,0,0,1,2.19-.06,2.35,2.35,0,0,1,1.08.49,1.75,1.75,0,0,1,.61,1,3,3,0,0,1-.16,1.52,2.1,2.1,0,0,1,.2.69A2.88,2.88,0,0,1,79.14,39a4.63,4.63,0,0,1-1.77,1.3,2.25,2.25,0,0,1-1.12.18c.17.83.41,1.66.65,2.44a16.74,16.74,0,0,1,.43,1.83,2.33,2.33,0,0,0-.47.14,2.12,2.12,0,0,0-1.18,1.31,1.74,1.74,0,0,0-.07.71,8.7,8.7,0,0,0-1.53.32,3.92,3.92,0,0,0-2.15,1.52,4.57,4.57,0,0,0-.68,2.48,5.36,5.36,0,0,0,.47,2.42,3.88,3.88,0,0,0,1.77,1.85A4.16,4.16,0,0,0,76,55.9a4,4,0,0,0,2.23-1.09,3.23,3.23,0,0,0,.68-1l-.32,32.45-.23,33.68h.1c0-.23,0-.46,0-.69l2,0,4.61-.09,4.61.09,2,0c0,.23,0,.46,0,.69h.1l-.23-33.68-.32-32.44a3.48,3.48,0,0,0,.68,1,3.93,3.93,0,0,0,2.23,1.09,4.16,4.16,0,0,0,2.47-.39,4,4,0,0,0,1.77-1.85A5.66,5.66,0,0,0,99,51.23,4.5,4.5,0,0,0,98.27,48.77Zm-21.8,4h0Zm2.3-1.33c2.11-.09,4.22-.1,6.33-.12s4.22,0,6.33.12v0c-2.11.08-4.21.1-6.32.11s-4.21,0-6.32-.11C78.78,51.43,78.78,51.42,78.77,51.42Zm15,1.33,0,0a.1.1,0,0,0,0,0Zm-2.12-.25a2.26,2.26,0,0,1,3.08-1.88,1.6,1.6,0,0,1,.81,1.76,1,1,0,0,1-1.69.32,1,1,0,0,0,1.57-.36,1.43,1.43,0,0,0-.79-1.52A2,2,0,0,0,92,52.51a2,2,0,0,0,.07.42l0,.11v0h0l0,.06a2.07,2.07,0,0,0,.09.24,2.33,2.33,0,0,0,.52.68,2.82,2.82,0,0,0,1.63.69,2.69,2.69,0,0,0,2.81-1.65,4,4,0,0,0,.23-1.81A3.17,3.17,0,0,0,97,49.64c-.54-.84-1.93-1.08-3.28-1.16-2.77-.11-5.69.14-8.6.14s-5.82-.25-8.59-.14c-1.35.07-2.74.32-3.28,1.16a3.27,3.27,0,0,0-.46,1.65,4.08,4.08,0,0,0,.24,1.8,2.7,2.7,0,0,0,2.81,1.65,2.79,2.79,0,0,0,1.64-.69,2.27,2.27,0,0,0,.73-1.54,2,2,0,0,0-2.58-1.69,1.43,1.43,0,0,0-.79,1.53,1,1,0,0,0,1.59.33h0a1,1,0,0,1-1.7-.3,1.6,1.6,0,0,1,.81-1.76,2.25,2.25,0,0,1,3.07,1.88,2.62,2.62,0,0,1-.81,1.88,3.22,3.22,0,0,1-1.89.87,3.54,3.54,0,0,1-2-.37,3.18,3.18,0,0,1-1.4-1.54,4.75,4.75,0,0,1-.34-2.08,3.8,3.8,0,0,1,.55-2,3.06,3.06,0,0,1,1.71-1.16,8.85,8.85,0,0,1,2.11-.34c2.87-.14,5.75.09,8.64.07s5.77-.21,8.64-.07a8.77,8.77,0,0,1,2.11.34,3,3,0,0,1,1.7,1.16,3.72,3.72,0,0,1,.56,2,4.73,4.73,0,0,1-.34,2.08,3.18,3.18,0,0,1-1.4,1.54,3.54,3.54,0,0,1-2.05.37,3.19,3.19,0,0,1-1.89-.87A2.63,2.63,0,0,1,91.61,52.5Zm2.12.25.06-.07h0Zm-14.62-.27v0c2-.09,4-.1,6-.11s4,0,6,.11v0c-2,.09-4,.1-6,.12S81.11,52.57,79.11,52.48Zm7-11.18a2.57,2.57,0,0,1,.34-1.2,1.19,1.19,0,0,1,1.18-.56,1.79,1.79,0,0,1,.65.22,1.57,1.57,0,0,1,1.11,0,2.33,2.33,0,0,1,1,.85,2.55,2.55,0,0,1,.47,1.15A1.39,1.39,0,0,1,90.4,43a2.61,2.61,0,0,1-1,.57,2.79,2.79,0,0,1-1.15.16,2.7,2.7,0,0,1-1.15-.3,2,2,0,0,1-.85-.93,1.88,1.88,0,0,1-.15-.63A2.91,2.91,0,0,1,86.06,41.3ZM62.66,16.52a2.9,2.9,0,0,1,.85-.9,1.41,1.41,0,0,1,1.29-.13,3.2,3.2,0,0,1,1.57,1.7,2.83,2.83,0,0,1,.2,1.17,2,2,0,0,1-.5,1.16,2.26,2.26,0,0,1-.51.4,3.28,3.28,0,0,1-.54.24,2.66,2.66,0,0,1-1.24.18,1.2,1.2,0,0,1-1-.84,1.8,1.8,0,0,1-.07-.68,1.66,1.66,0,0,1-.43-1A2.28,2.28,0,0,1,62.66,16.52ZM22.54,22.81A1.47,1.47,0,0,1,23,21.5a2.94,2.94,0,0,1,1.12-.61,3,3,0,0,1,1.23-.17,3.05,3.05,0,0,1,1.23.33,2.09,2.09,0,0,1,.9,1,2.43,2.43,0,0,1,.16.67,3.42,3.42,0,0,1,0,.64,2.89,2.89,0,0,1-.37,1.27,1.26,1.26,0,0,1-1.25.6,1.92,1.92,0,0,1-.72-.24,1.6,1.6,0,0,1-1.16,0A2.33,2.33,0,0,1,23,24,2.82,2.82,0,0,1,22.54,22.81Zm-7.66,6.9s-.06.07-.1.09a1.45,1.45,0,0,1-1.52-.17,2,2,0,0,1-.55-.56,1.14,1.14,0,0,1-.17-.83,1.73,1.73,0,0,1,1-1.13,2.18,2.18,0,0,1,1.4-.16,1.62,1.62,0,0,1,.67.33,1.83,1.83,0,0,1,.44.6,1.64,1.64,0,0,1,.05,1.5A1.06,1.06,0,0,1,14.88,29.71Zm-.18,11.2a3,3,0,0,1,1.12-.62,3,3,0,0,1,1.23-.16,2.76,2.76,0,0,1,1.23.33,2.12,2.12,0,0,1,.9,1,2.5,2.5,0,0,1,.16.68,3.32,3.32,0,0,1,0,.63A2.89,2.89,0,0,1,19,44a1.29,1.29,0,0,1-1.25.6A1.92,1.92,0,0,1,17,44.4a1.71,1.71,0,0,1-1.16,0,2.33,2.33,0,0,1-1.07-.91,2.82,2.82,0,0,1-.5-1.22A1.47,1.47,0,0,1,14.7,40.91ZM6.75,52.76h0Zm2.3-1.34c2.11-.09,4.22-.1,6.33-.12s4.22,0,6.33.12l0,0c-2.1.09-4.21.1-6.31.11s-4.21,0-6.32-.11Zm15,1.33,0,0,0,0Zm-2.12-.25A2.25,2.25,0,0,1,25,50.62a1.61,1.61,0,0,1,.81,1.76,1,1,0,0,1-1.7.3h0a1,1,0,0,0,1.58-.33,1.44,1.44,0,0,0-.78-1.53,2,2,0,0,0-2.59,1.69A2.28,2.28,0,0,0,23,54.05a2.76,2.76,0,0,0,1.63.69,2.7,2.7,0,0,0,2.82-1.65,4.08,4.08,0,0,0,.23-1.8,3.21,3.21,0,0,0-.46-1.65c-.54-.84-1.92-1.09-3.28-1.16-2.76-.11-5.69.14-8.59.14s-5.82-.25-8.59-.14c-1.35.08-2.74.32-3.28,1.16a3.17,3.17,0,0,0-.46,1.64,4,4,0,0,0,.24,1.81A2.69,2.69,0,0,0,6.1,54.74a2.85,2.85,0,0,0,1.63-.69,2.47,2.47,0,0,0,.51-.68s.06-.16.1-.24l0-.06h0v0l0-.11a2,2,0,0,0,.06-.42,2,2,0,0,0-2.58-1.69,1.43,1.43,0,0,0-.78,1.52,1,1,0,0,0,1.57.35A1,1,0,0,1,5,52.38a1.61,1.61,0,0,1,.8-1.76A2.25,2.25,0,0,1,8.86,52.5a2.65,2.65,0,0,1-.81,1.88,3.22,3.22,0,0,1-1.89.87,3.54,3.54,0,0,1-2-.37,3.15,3.15,0,0,1-1.4-1.53,4.48,4.48,0,0,1-.34-2.08,3.81,3.81,0,0,1,.55-2,3,3,0,0,1,1.71-1.16,8.69,8.69,0,0,1,2.1-.34c2.87-.14,5.76.09,8.65.07s5.77-.21,8.64-.07a8.85,8.85,0,0,1,2.11.34,3,3,0,0,1,1.7,1.16,3.78,3.78,0,0,1,.56,2,4.75,4.75,0,0,1-.34,2.08,3.18,3.18,0,0,1-1.4,1.54,3.54,3.54,0,0,1-2,.37,3.19,3.19,0,0,1-1.89-.87A2.63,2.63,0,0,1,21.89,52.5Zm-15.16.23-.05,0h0Zm2.66-.25h0v0c2-.09,4-.1,6-.11s4,0,6,.11v0c-2,.09-4,.1-6,.12S11.39,52.57,9.39,52.48ZM13.15,56l0,2-.07,4-.15,8.07-.3,16.13-.3,16.13-.15,8.07-.07,4,0,2a4.35,4.35,0,0,1-.08,1,.88.88,0,0,1-.81.55.91.91,0,0,1-.82-.55,3.89,3.89,0,0,1-.06-1v-2l0-4,.05-8.06.08-16.14.09-16.13,0-8.07,0-4,0-2v-.5a1.67,1.67,0,0,1,0-.3V55.1a1.87,1.87,0,0,1,.07-.22,1.28,1.28,0,0,1,1.2-.82,1.32,1.32,0,0,1,.72.22,1.32,1.32,0,0,1,.47.6A3.3,3.3,0,0,1,13.15,56Zm3.51-.5V56l0,2,0,4-.06,8.07-.1,16.13-.11,16.13-.05,8.07,0,4v2a3.85,3.85,0,0,1-.07,1,.88.88,0,0,1-.81.55.89.89,0,0,1-.82-.55,3.85,3.85,0,0,1-.07-1v-2l0-4,0-8.07-.11-16.13-.1-16.13-.06-8.07,0-4,0-2a3.9,3.9,0,0,1,.09-1.16,1.28,1.28,0,0,1,1.2-.82,1.37,1.37,0,0,1,.72.22,1.32,1.32,0,0,1,.47.6A1.74,1.74,0,0,1,16.66,55.54Zm3.55,62a.92.92,0,0,1-.82.55.88.88,0,0,1-.81-.55,4.35,4.35,0,0,1-.08-1l0-2-.07-4-.15-8.07-.3-16.13-.3-16.13-.15-8.07-.08-4,0-2v-.62a.63.63,0,0,0,0-.11v-.07a1.49,1.49,0,0,1,.08-.36,1.29,1.29,0,0,1,1.2-.82,1.37,1.37,0,0,1,.73.22,1.39,1.39,0,0,1,.47.6,1.69,1.69,0,0,1,.09.65v2.52l0,4L20,70.15l.08,16.13.09,16.14,0,8.06,0,4v2A3.89,3.89,0,0,1,20.21,117.55Zm3.22-72a1.7,1.7,0,0,1,1.18,1.37l-.2,0a1.39,1.39,0,0,0-1.09-1,6.79,6.79,0,0,0-1.24,0L20.74,46c-1.79.1-3.58.09-5.36.14S11.8,46.13,10,46l-1.34-.09a7.67,7.67,0,0,0-1.23,0,1.38,1.38,0,0,0-1.09,1l-.21,0a1.71,1.71,0,0,1,1.18-1.37,6.18,6.18,0,0,1,1.35-.07H10l5.37,0,5.36,0h1.34A6.15,6.15,0,0,1,23.43,45.52ZM36.6,12.89a3,3,0,0,1-1.32.76,2.12,2.12,0,0,1-.44.58,2.91,2.91,0,0,1-2.21.74,4.64,4.64,0,0,1-2.1-.67,2.21,2.21,0,0,1-1.13-1.85,4.73,4.73,0,0,1,.5-2A4,4,0,0,1,33.37,8a3.27,3.27,0,0,1,2.11.9,5.8,5.8,0,0,1,1.35,1.73,2.47,2.47,0,0,1,.25,1.16A1.79,1.79,0,0,1,36.6,12.89Zm7.78-2a2.13,2.13,0,0,1-1,1,1.57,1.57,0,0,1-.72.14,1.89,1.89,0,0,1-.72-.22A1.68,1.68,0,0,1,41,10.63a1.08,1.08,0,0,1,.77-1c0-.05,0-.09,0-.13a1.45,1.45,0,0,1,1.32-.77,2.09,2.09,0,0,1,.78.12,1.18,1.18,0,0,1,.63.56A1.75,1.75,0,0,1,44.38,10.92ZM78.11,27.8a3.5,3.5,0,0,1-2.4.46,6.34,6.34,0,0,1-2.24-.73,2.55,2.55,0,0,1-.91-.88,2,2,0,0,1-.25-1.26,3.11,3.11,0,0,1,.74-1.51,2,2,0,0,1,0-.74,3.12,3.12,0,0,1,1.52-2,5.07,5.07,0,0,1,2.26-.67,2.42,2.42,0,0,1,2.12,1,5.09,5.09,0,0,1,.78,2.14A4.3,4.3,0,0,1,78.11,27.8ZM77.05,45.54a5.57,5.57,0,0,1,1.35-.07H91.81a5.51,5.51,0,0,1,1.34.07,1.69,1.69,0,0,1,1.17,1.35H94.2a1.51,1.51,0,0,0-1.13-1.09,6.61,6.61,0,0,0-1.26,0l-1.35.06c-1.78.07-3.57.07-5.36.1s-3.57,0-5.36-.1l-1.34-.06a6.71,6.71,0,0,0-1.27,0A1.49,1.49,0,0,0,76,46.88h-.12A1.68,1.68,0,0,1,77.05,45.54Zm6.06,9.88V56l0,2-.07,4-.15,8.07-.3,16.13-.3,16.13-.15,8.07-.08,4,0,2a4.39,4.39,0,0,1-.08,1,.89.89,0,0,1-.81.55.91.91,0,0,1-.82-.55,3.89,3.89,0,0,1-.06-1v-2l0-4,.05-8.06.08-16.14.09-16.13,0-8.07,0-4V55.53a1.69,1.69,0,0,1,.09-.65,1.39,1.39,0,0,1,.47-.6,1.44,1.44,0,0,1,.68-.22,1.29,1.29,0,0,1,1.25.82,1.49,1.49,0,0,1,.08.36v.07A.34.34,0,0,1,83.11,55.42Zm3.27.62v2l0,4,0,8.07-.11,16.13-.1,16.13L86,110.49l0,4,0,2a3.47,3.47,0,0,1-.07,1,.87.87,0,0,1-1.62,0,3.47,3.47,0,0,1-.07-1l0-2,0-4-.06-8.07L84,86.29l-.11-16.13,0-8.07,0-4V55.54a1.7,1.7,0,0,1,.08-.66,1.34,1.34,0,0,1,.48-.6,1.37,1.37,0,0,1,.72-.22,1.29,1.29,0,0,1,1.2.82A3.54,3.54,0,0,1,86.38,56Zm3.77,61.51a.9.9,0,0,1-.81.55.87.87,0,0,1-.81-.55,3.91,3.91,0,0,1-.08-1l0-2-.07-4-.15-8.07-.3-16.13-.3-16.13-.15-8.07-.07-4,0-2a3.51,3.51,0,0,1,.07-1.16,1.39,1.39,0,0,1,.47-.6,1.49,1.49,0,0,1,.38-.17,1.41,1.41,0,0,1,.35,0,1.29,1.29,0,0,1,1.2.82,1.8,1.8,0,0,1,.06.22l0,.13c0,.18,0,.2,0,.3v2.52l0,4,0,8.07.08,16.13.09,16.14,0,8.06,0,4v2A3.19,3.19,0,0,1,90.15,117.55Z"
              transform="translate(-1.53 -4.76)" style="fill: #5f5f5f"/>

        <path d="M17.35,44.23a1.65,1.65,0,0,0,.5,0h-.47Z" transform="translate(-1.53 -4.76)" style="fill: #5f5f5f"/>

        <path d="M31,126.68h-.14c-.46,1.57-1,3.13-1.51,4.68s-1.07,3.19-1.65,4.77Q26,140.9,24,145.54c1.37.12,2.76.18,4.17.22l6.31-18.95Z"
              transform="translate(-1.53 -4.76)" style="fill: #60c1cb"/>
        <path d="M70.65,130.63c-.4-1.31-.8-2.62-1.15-3.94h0l-3.86.14,5.83,15.89-1.05,0-5-15.92-1.32,0,5.06,15.94c2.05-.11,4-.17,5.82-.14q-1.65-3.94-3-8C71.49,133.35,71.05,132,70.65,130.63Z"
              transform="translate(-1.53 -4.76)" style="fill: #60c1cb"/>
        <path d="M63.92,126.89l-.86,0c-4.28.14-8.55.13-12.82.2s-8.55-.06-12.82-.2l-1.41,0-5.13,18.94c12.85,0,26.89-2.31,37.93-3h-.2Z"
              transform="translate(-1.53 -4.76)" style="fill: #60c1cb"/>
        <path d="M34.75,126.82l-5.54,19,1.17,0,5.52-18.94Z" transform="translate(-1.53 -4.76)" style="fill: #60c1cb"/>
        <polygon points="29.07 115.51 23.14 115.5 23.13 121.41 29.05 121.4 29.07 115.51" style="fill: #60c1cb"/>
        <polygon points="74.28 115.5 68.26 115.51 68.27 121.4 74.3 121.41 74.28 115.5" style="fill: #60c1cb"/>
        <path d="M72.56,119.52v-6H67.07v6h5.49Z" transform="translate(-1.53 -4.76)" style="fill: #60c1cb"/>
        <path d="M33.27,119.52v-6H27.85v6h5.43Z" transform="translate(-1.53 -4.76)" style="fill: #60c1cb"/>
        <path d="M34.75,120.28H30.66l.15,3c.07,1,.08,2,.11,2.94h3.74Z" transform="translate(-1.53 -4.76)"
              style="fill: #60c1cb"/>
        <polygon points="62.39 115.52 62.44 121.39 63.8 121.39 63.89 115.52 62.39 115.52" style="fill: #60c1cb"/>
        <polygon points="62.34 121.39 62.38 115.52 48.67 115.54 34.48 115.52 34.53 121.39 48.71 121.36 62.34 121.39"
                 style="fill: #60c1cb"/>
        <path d="M69.72,120.27H65.43l.09,5.87h3.93c0-1,0-2,.11-3Z" transform="translate(-1.53 -4.76)"
              style="fill: #60c1cb"/>
        <polygon points="34.43 121.39 34.48 115.52 33.24 115.52 33.33 121.39 34.43 121.39" style="fill: #60c1cb"/>
        <path d="M33.34,119.52l3.7-.1h.27l.11-5.84H33.3c.07.52.13,1,.16,1.55s0,1.08,0,1.62,0,1.08,0,1.62C33.44,118.75,33.39,119.13,33.34,119.52Z"
              transform="translate(-1.53 -4.76)" style="fill: #60c1cb"/>
        <path d="M67,113.57H62.77l.11,5.84h.48l3.62.09c0-.33-.08-.66-.09-1,0-.56,0-1.12,0-1.68s0-1.12,0-1.68S67,114.11,67,113.57Z"
              transform="translate(-1.53 -4.76)" style="fill: #60c1cb"/>
        <polygon points="48.67 108.84 36.91 108.82 37.02 114.65 48.67 114.54 59.95 114.65 60.06 108.82 48.67 108.84"
                 style="fill: #60c1cb"/>
        <polygon points="60.07 108.82 60.18 114.65 61.11 114.66 61.22 108.82 60.07 108.82" style="fill: #60c1cb"/>
        <polygon points="36.02 114.66 36.78 114.65 36.89 108.82 35.91 108.82 36.02 114.66" style="fill: #60c1cb"/>
    </g>
</svg>
