<svg xmlns="http://www.w3.org/2000/svg" viewBox="0 0 640 172.97">
    <title>Орнамент 2</title>
    <g id="ornament">
        <path d="M0,99.46c4.89-21.67,21.73-29,40.7-32.77,12.66-2.54,25.64-3.47,38.9-5.17C82.87,46.09,93.42,35.6,107,27.94c22.89-12.9,47.73-17.35,73.68-14.85,44.33,4.26,85.07,20.43,125,38.94,4.22,2,7.77,2.31,12.21.67,29.76-11,59.48-22.1,89.49-32.37a394.05,394.05,0,0,1,91-19.54c17.94-1.69,35.9-.87,53.42,4.37,13.68,4.08,22.73,12.77,26.78,26.43.79,2.64,1.93,3.38,4.6,4.05,10.25,2.59,20.84,4.68,30.41,9,14.2,6.34,22.57,18.18,25.52,33.61a13,13,0,0,0,.89,2.25v12c-7.33,26.19-28.12,37.83-51,47-27.39,11-55.06,10-83.19,2.63a763.1,763.1,0,0,1-115.37-40.95c-2.33-1-5.59-1.58-7.89-.79-27.36,9.29-54.61,18.89-81.89,28.42a19,19,0,0,0-2.13,1.22l82.24,37c-.72,1.8-1.48,3.68-2.39,6-2.22-.81-4.1-1.37-5.87-2.16-26.87-12-53.69-24-80.63-35.81a12.09,12.09,0,0,0-7.94-.36C246,147.12,207.64,157.81,168.36,165c-35.57,6.52-71.15,8.51-106.14-2.69a175.34,175.34,0,0,1-33-14.91C16,139.88,5.65,129.06,0,114.46ZM574.05,51.59c-8.95-2.24-31.21-1.34-44.25,1.42-32.25,6.82-63.44,17.22-94.49,28.08-13.12,4.59-26.17,9.41-39.83,14.34a16.89,16.89,0,0,0,1.75,1.11A769.8,769.8,0,0,0,508.6,135.43c28.65,7.54,56.56,7.19,83.88-5,13-5.83,25.25-12.9,33.85-24.77,9.24-12.77,9-29.58-1.21-40C613,53.27,596.85,52.79,581.45,51.35c-5.11,30.72-22,51-50.25,60.67-17,5.8-34.25,3.78-50-5.67-6.75-4-12-9.62-13.74-17.61-1.2-5.44.12-10.45,4.52-14,4.65-3.71,10.12-3,15.15-.84A12.6,12.6,0,0,1,495,85.69c.26,7.41-4.18,11.47-11.27,14.54,19.83,9.58,38.89,10.86,57.43-.27C559.41,89,571.28,73.33,574.05,51.59ZM78.85,69.37c-5.73.38-11,.61-16.32,1.12C49.25,71.78,36.23,74,23.91,79.61,5.2,88.1,2,111,13.79,124.9a88.24,88.24,0,0,0,31.32,23.44c35,15.95,71.58,17.87,109,11.59,32.62-5.49,63.63-16.39,94.14-28.84,5.62-2.3,11.1-4.93,17.61-7.83-13.75-6.05-26.44-11.72-39.23-17.16-1.47-.62-3.55-.25-5.22.17-16.58,4.2-33.05,8.82-49.7,12.71-25.42,6-48.9.9-70.17-14C89.36,96.41,80.56,85.46,78.85,69.37Zm224-10.68a11.89,11.89,0,0,0-1.61-1.22c-27.16-12.19-54.85-23-83.7-30.56-25.18-6.63-50.51-10.35-76.43-4.45-14.95,3.4-28.89,9-40.89,18.74-6.68,5.44-11.47,12.16-13.14,19.89,14.79,2,29.22,3.29,43.37,6C159,72.63,186.21,82.3,213.13,93a14.21,14.21,0,0,0,9.37.13c14.15-5.3,28.22-10.85,42.11-16.81C277.36,70.81,289.85,64.71,302.88,58.69Zm34.05,8.72c9.52,4.65,18.21,8.75,26.74,13.15,3.36,1.73,6.24,1.73,9.87.56,34.92-11.22,69.67-23.13,105-33,30.16-8.4,60.88-15.23,92.83-14.63-3.52-9.81-11.05-16-20.52-20-12-5.12-24.9-7.43-37.6-5.86A273.28,273.28,0,0,0,469,17.08C424.06,30.4,380.9,48.59,336.93,67.41ZM207.69,98.67c-39.75-15.31-78.9-28.5-121.39-29.42a32.56,32.56,0,0,0,8.14,19.4c15.81,18.06,36.31,26.65,59.79,25.23C172.44,112.79,189.83,106.32,207.69,98.67Zm29.34,4c11.15,5,22.6,10.19,34.19,15.08a10,10,0,0,0,6.89.21c19.68-7.6,39.26-15.45,58.85-23.27,7-2.78,13.91-5.64,21.55-8.74-9.59-4.78-18.27-9.32-27.18-13.38a10.82,10.82,0,0,0-7.32-.23C295,82.38,266,92.58,237,102.72Z"/>
    </g>
</svg>
