<svg class="wedding__dress-icon" xmlns="http://www.w3.org/2000/svg" viewBox="0 0 70.33 119.57">
  <title>Wedding dress</title>
  <g>
    <path d="M49.1,117.78a5.92,5.92,0,0,1-.81.37,15.77,15.77,0,0,1-1.7.47c-1.15.24-2.31.4-3.48.53a67.07,67.07,0,0,1-14.07,0,34.4,34.4,0,0,1-3.48-.53,17.15,17.15,0,0,1-1.7-.47,5.92,5.92,0,0,1-.81-.37.94.94,0,0,1-.54-.68h0c0,.35.27.6.5.79a4.25,4.25,0,0,0,.8.46,15.08,15.08,0,0,0,1.69.65,32,32,0,0,0,3.5.75,54.47,54.47,0,0,0,7.1.54,56.1,56.1,0,0,0,7.09-.53,34.61,34.61,0,0,0,3.5-.76,12.94,12.94,0,0,0,1.7-.65,5,5,0,0,0,.8-.46,1,1,0,0,0,.49-.79h0C49.63,117.42,49.34,117.63,49.1,117.78Z" transform="translate(-0.84 -0.71)" style="fill: #5f5f5f"/>
    <path d="M27.13,15h0c-.25-.44-.45-.86-.66-1.26a11.94,11.94,0,0,0-.65-1.23,6.77,6.77,0,0,0-.69-1.14,1.65,1.65,0,0,0-.42-.45.76.76,0,0,0-.61-.21l0,0a.88.88,0,0,1,.82-.28,2.24,2.24,0,0,1,.82.35A4.47,4.47,0,0,1,26.83,12a5.47,5.47,0,0,1,.5,1.51,3.72,3.72,0,0,1,0,1.52,12.72,12.72,0,0,1,3,.07,12.87,12.87,0,0,1,5.78,2.32A13,13,0,0,1,44.87,15a3.72,3.72,0,0,1,0-1.52,5.47,5.47,0,0,1,.5-1.51,4.47,4.47,0,0,1,1.07-1.24,2.08,2.08,0,0,1,.82-.35.91.91,0,0,1,.83.28l0,0a.76.76,0,0,0-.61.21,1.65,1.65,0,0,0-.42.45,6.77,6.77,0,0,0-.69,1.14c-.25.38-.43.81-.65,1.23s-.41.82-.66,1.26h0a8.67,8.67,0,0,1,2.34.55,7.39,7.39,0,0,0,.89-4.35,3.13,3.13,0,0,0-.1-.44,3,3,0,0,0-1-1.53,11.83,11.83,0,0,0-2-1,13.19,13.19,0,0,1-3.83-2.31,3.07,3.07,0,0,1-1-1.94,4.66,4.66,0,0,0-.41-2.23l-.05,0,0,0a2.45,2.45,0,0,0-1.8-.88A16.55,16.55,0,0,0,34,.84a2.26,2.26,0,0,0-1.76.94l0,0-.06,0A5,5,0,0,0,31.86,4a3.17,3.17,0,0,1-1,1.91A12.86,12.86,0,0,1,27.05,8.2a11.4,11.4,0,0,0-2,1A3.11,3.11,0,0,0,24,10.86a2.17,2.17,0,0,0-.07.35,7.35,7.35,0,0,0,.9,4.33A8.51,8.51,0,0,1,27.13,15ZM32.26,1.8h.06a1.28,1.28,0,0,0,.69.78A3.86,3.86,0,0,0,34,3a7.29,7.29,0,0,0,2.09.33A7.71,7.71,0,0,0,38.17,3a3.81,3.81,0,0,0,1-.4,1.27,1.27,0,0,0,.68-.77h.06A1.37,1.37,0,0,1,39.52,3a4.11,4.11,0,0,1-1,.76,6.21,6.21,0,0,1-2.42.64,6.16,6.16,0,0,1-2.42-.64,4,4,0,0,1-1-.76A1.38,1.38,0,0,1,32.26,1.8Zm.12,2.49c0-.49-.07-.94-.07-1.46h0a1.86,1.86,0,0,1,.28,1.48,3.57,3.57,0,0,1-.48,1.43h0A4.4,4.4,0,0,0,32.38,4.29ZM26.77,9.7a4.38,4.38,0,0,1,.69-.55A12.57,12.57,0,0,1,29,8.47a7,7,0,0,0,2.58-1.89l.05,0a6.22,6.22,0,0,1-2.4,2.29,10.84,10.84,0,0,1-1.44.8c-.47.23-1,.35-1.14.87h-.06A.84.84,0,0,1,26.77,9.7Z" transform="translate(-0.84 -0.71)" style="fill: #5f5f5f"/>
    <path d="M64.28,81.94c-1.17-4-2.35-8-3.42-12L57.65,57.85A78.73,78.73,0,0,0,53.57,46a34.87,34.87,0,0,0-7.16-10.25c-1.47-1.48-3.14-2.8-4.7-4.12a4.15,4.15,0,0,1-1.13-2.71,7.33,7.33,0,0,1,.5-3,9.78,9.78,0,0,1,3.72-4.77A8.32,8.32,0,0,0,48.14,16l-.12,0H47.9a8.19,8.19,0,0,1-3.55,4.58,10.77,10.77,0,0,0-4.48,5A8.58,8.58,0,0,0,39.09,29a5.69,5.69,0,0,0,1.45,3.8,8.54,8.54,0,0,0,.69.67l.57.5,1.12,1c.73.68,1.44,1.39,2.11,2.13A34,34,0,0,1,51.46,47a79.34,79.34,0,0,1,3.81,11.52l3.34,12c1.21,4,2.44,8,3.8,11.95s2.71,7.89,4.11,11.82,2.84,7.78,4.37,11.64l-.7.44L71,106l0,0,.12,0C69,97.93,66.61,89.94,64.28,81.94Z" transform="translate(-0.84 -0.71)" style="fill: #5f5f5f"/>
    <path d="M71.08,106.05c-2.61,1.68-5.56,3.25-8.78,3.12a10.23,10.23,0,0,1-4.49-1.4c-1.39-.74-2.7-1.62-4.12-2.27a10.85,10.85,0,0,0-4.51-1.06,14.13,14.13,0,0,0-4.59.81c-3,1-5.69,2.6-8.6,3.81a14.5,14.5,0,0,1-4.58,1.16,10.42,10.42,0,0,1-4.65-.81,19.11,19.11,0,0,1-4.07-2.4c-1.26-1-2.38-2.05-3.72-2.88a20.89,20.89,0,0,0-18-1.9l0-.06-.07.18c.23,0,.17,0,.23,0l.06,0h0a23.66,23.66,0,0,1,9-.07,19.29,19.29,0,0,1,8,3.34,19.79,19.79,0,0,1,1.66,1.37c.52.48,1.19,1.07,1.84,1.59A20.13,20.13,0,0,0,26,111.26a12.19,12.19,0,0,0,5.54,1,13.5,13.5,0,0,0,2.75-.45q0,.49.06,1c-5.25.25-10.18,1.66-11.89,4.22l.19-.08c0,.05-.08.09-.11.14h0c0,.28.31.44.55.57a5.57,5.57,0,0,0,.81.29,11.9,11.9,0,0,0,1.7.34c1.14.19,2.3.3,3.46.38,2.33.16,4.66.26,7,.22s4.66-.06,7-.22a33.29,33.29,0,0,0,3.46-.39,11,11,0,0,0,1.71-.33,5.44,5.44,0,0,0,.8-.29c.25-.13.51-.29.56-.58h0l.07-.06c-1.72-2.57-6.69-4-12-4.23h-.15c0-.73,0-1.45,0-2.17,1.25-.56,2.43-1.14,3.57-1.7,1.38-.67,2.8-1.32,4.08-1.8a12.43,12.43,0,0,1,3.93-.84A9.88,9.88,0,0,1,53,107c1.3.5,2.62,1.31,4.14,2a11.67,11.67,0,0,0,5.11,1.23,11.53,11.53,0,0,0,4.9-1.39,19,19,0,0,0,4-2.74L71,106Zm-41.74,8.53c-.69.22-1.4.36-2.1.58a13.9,13.9,0,0,0-2,.77,5.21,5.21,0,0,0-1.76,1.24l0,0a5.45,5.45,0,0,1,1.66-1.47,14.75,14.75,0,0,1,2-1,11.26,11.26,0,0,1,2.1-.7,9.66,9.66,0,0,1,2.22-.21v.06A21.4,21.4,0,0,1,29.34,114.58Zm7.5,0a2.53,2.53,0,0,1-.77.12,2.06,2.06,0,0,1-1.47-.5,13.08,13.08,0,0,1,1.47-.11,6,6,0,0,1,1.48.13A2.07,2.07,0,0,1,36.84,114.6Z" transform="translate(-0.84 -0.71)" style="fill: #5f5f5f"/>
    <path d="M1,102v0l-.11,0,0,.06c.27-.12.54-.23.82-.33l-.21.07.11-.14c.16-.22.31-.43.45-.65q.42-.64.81-1.32c.5-.89,1-1.8,1.44-2.71C5.23,95.21,6,93.36,6.88,91.5,8.46,87.77,10,84,11.32,80.21s2.6-7.68,3.81-11.54,2.15-7.76,3.29-11.54c2.06-7.66,4.68-14.47,9.92-19.93.63-.7,1.3-1.37,2-2l1.07-1c.14-.13.48-.42.73-.7a6.56,6.56,0,0,0,.7-.94,6.68,6.68,0,0,0,.91-4.21,9.82,9.82,0,0,0-1.1-3.52A12.34,12.34,0,0,0,30.59,22a11,11,0,0,0-1.31-1.14,7.57,7.57,0,0,0-.76-.49l-.65-.32a8,8,0,0,1-3.54-4.14l-.17.05,0-.06-.19,0a8.39,8.39,0,0,0,3.18,5.14,9.56,9.56,0,0,1,3.71,4.48c.76,1.77,1.06,4-.06,5.54a13,13,0,0,1-2.19,1.95c-.77.65-1.53,1.32-2.26,2a34.6,34.6,0,0,0-7.25,9.69,65.25,65.25,0,0,0-4.21,11.34c-2.14,7.77-4,15.57-6.33,23.27C7.39,83.23,6.24,87.08,5,90.9c-.61,1.91-1.24,3.82-1.9,5.71-.34,1-.68,1.89-1,2.83-.19.46-.38.92-.58,1.38-.1.22-.21.45-.32.67L1,101.8l-.09.14L.86,102h0A.45.45,0,0,1,1,102Z" transform="translate(-0.84 -0.71)" style="fill: #5f5f5f"/>
  </g>
</svg>
