<svg class="wedding__car-icon" id="wedding-car-icon" xmlns="http://www.w3.org/2000/svg" viewBox="0 0 132.8 98.79">
    <title>Wedding car icon</title>
    <path id="wedding-car-heart"
          d="M89.44,20.17C89.48,24,83,26,83,26s-6.46-2-6.43-5.81,6.43-3,6.43-.3C83,17.18,89.41,16.34,89.44,20.17Z"
          transform="translate(-0.6 -0.16)" style="fill: #61c1cb"/>
    <g id="wedding-car-main">
        <path d="M127.06,49.25A4.69,4.69,0,1,0,130.33,55,4.7,4.7,0,0,0,127.06,49.25Zm2.3,5.58a4.07,4.07,0,0,1-1.19,1.8l-.08,0a5.9,5.9,0,0,0,.52-3.82A4.19,4.19,0,0,0,126.07,50l0-.08a3.11,3.11,0,0,1,2.09.7,3.63,3.63,0,0,1,1.28,1.95A4.09,4.09,0,0,1,129.36,54.83Z"
              transform="translate(-0.6 -0.16)" style="fill: #5f5f5f"/>
        <path d="M122.13,61.77c-2.12-.1-3.89.74-3.95,1.87s1.62,2.16,3.74,2.26,3.89-.73,4-1.86S124.25,61.88,122.13,61.77Z"
              transform="translate(-0.6 -0.16)" style="fill: #5f5f5f"/>
        <path d="M111.77,86.07a3.53,3.53,0,0,1-.21.32Z" transform="translate(-0.6 -0.16)" style="fill: #5f5f5f"/>
        <path d="M108.76,74.42a.87.87,0,0,1,.16-.3A.88.88,0,0,0,108.76,74.42Z" transform="translate(-0.6 -0.16)"
              style="fill: #5f5f5f"/>
        <path d="M109.24,73.81a1.48,1.48,0,0,0-.13.08s0,.07-.08.1A.91.91,0,0,1,109.24,73.81Z"
              transform="translate(-0.6 -0.16)" style="fill: #5f5f5f"/>
        <path d="M55.7,73.78l-.07,0-.12,0Z" transform="translate(-0.6 -0.16)" style="fill: #5f5f5f"/>
        <path d="M57.3,74.44a1.38,1.38,0,0,1,0,.2.4.4,0,0,0,0-.11,1.07,1.07,0,0,0-.56-.75A1.13,1.13,0,0,1,57.3,74.44Z"
              transform="translate(-0.6 -0.16)" style="fill: #5f5f5f"/>
        <path d="M110,73.66h0Z" transform="translate(-0.6 -0.16)" style="fill: #5f5f5f"/>
        <path d="M110.14,73.69l.34.13-.21-.11a.8.8,0,0,0-.31,0A.57.57,0,0,1,110.14,73.69Z"
              transform="translate(-0.6 -0.16)" style="fill: #5f5f5f"/>
        <path d="M109,85.91c.16-.2.41-.58.55-.79A7.4,7.4,0,0,1,109,85.91Z" transform="translate(-0.6 -0.16)"
              style="fill: #5f5f5f"/>
        <path d="M108.18,86.74c.1-.1.44-.41.66-.63A5.56,5.56,0,0,1,108.18,86.74Z" transform="translate(-0.6 -0.16)"
              style="fill: #5f5f5f"/>
        <path d="M56.45,85.06c.13.2.43.65.58.85A6.36,6.36,0,0,1,56.45,85.06Z" transform="translate(-0.6 -0.16)"
              style="fill: #5f5f5f"/>
        <path d="M94.94,44.82c.17-.28.34-.59.53-.91s.34-.64.48-1,.26-.61.36-.88a2.28,2.28,0,0,0,.14-.68,1.21,1.21,0,0,0,0-.19,1.42,1.42,0,0,0,0-.22.55.55,0,0,0-.13-.17.46.46,0,0,0-.25-.06c-.15,0-.29.13-.44.38a5.49,5.49,0,0,0-.42,1c-.14.4-.27.83-.39,1.31s-.23.93-.33,1.37l.25,0Z"
              transform="translate(-0.6 -0.16)" style="fill: #5f5f5f"/>
        <path d="M91.69,5.33a8.85,8.85,0,0,0,3.37-.8c-1.7,0-3.49,0-5.38,0l.12.13A2.91,2.91,0,0,0,91.69,5.33Z"
              transform="translate(-0.6 -0.16)" style="fill: #5f5f5f"/>
        <path d="M88.24,49.62c0-.13-.07-.24-.09-.32L86,51.58v.19a.46.46,0,0,1,.1.07,2.3,2.3,0,0,0,.27.28,2.07,2.07,0,0,0,.37.27.81.81,0,0,0,.47.13,1.24,1.24,0,0,0,.54-.11.85.85,0,0,0,.33-.29,1.14,1.14,0,0,0,.18-.42,2.65,2.65,0,0,0,0-.5,2.45,2.45,0,0,0,0-.46,3.88,3.88,0,0,1,0-.58A1.32,1.32,0,0,0,88.24,49.62Z"
              transform="translate(-0.6 -0.16)" style="fill: #5f5f5f"/>
        <path d="M72.16,12.11a3.1,3.1,0,0,0,.61.72.76.76,0,0,0,1.07-.12.7.7,0,0,0-.55-.91A1.8,1.8,0,0,0,72.16,12.11Z"
              transform="translate(-0.6 -0.16)" style="fill: #5f5f5f"/>
        <path d="M71.45,39.21a2.56,2.56,0,0,0-.62.41,4.18,4.18,0,0,0-.56.61,5.09,5.09,0,0,0-.46.74,6.19,6.19,0,0,0-.32.81,3.44,3.44,0,0,0-.11.83,3.28,3.28,0,0,0,.29,1.32,5.92,5.92,0,0,0,.81,1.3,9.93,9.93,0,0,0,1.25,1.27,19.57,19.57,0,0,0,1.59,1.25c.07-.77.13-1.58.2-2.43s.11-1.75.11-2.71A9.74,9.74,0,0,0,73.51,41a4.4,4.4,0,0,0-.34-1.09,1.42,1.42,0,0,0-.49-.61,1.09,1.09,0,0,0-.61-.19A1.45,1.45,0,0,0,71.45,39.21Z"
              transform="translate(-0.6 -0.16)" style="fill: #5f5f5f"/>
        <path d="M71.89,53.63A21,21,0,0,0,73,49.92l-.31-.19a6.21,6.21,0,0,0-1.61.58,7.87,7.87,0,0,0-1.43,1,8.7,8.7,0,0,0-1.19,1.24,8.8,8.8,0,0,0-.91,1.37,7,7,0,0,0-.58,1.35,6.19,6.19,0,0,0-.19.84h3.87A13.61,13.61,0,0,0,71.89,53.63Z"
              transform="translate(-0.6 -0.16)" style="fill: #5f5f5f"/>
        <path d="M44.1,65.9c2.13-.1,3.8-1.12,3.74-2.26s-1.83-2-3.94-1.87S40.1,62.89,40.16,64,42,66,44.1,65.9Z"
              transform="translate(-0.6 -0.16)" style="fill: #5f5f5f"/>
        <path d="M43,74.09A23.58,23.58,0,0,1,46,73.76l2.83-.24,2.5-.16c0-1.24-.09-2.48-.18-3.72-.11-1.7-.26-3.41-.49-5.09a50.13,50.13,0,0,0-2.2-9.94,33.5,33.5,0,0,0-1.77-4.3c.29-.25.57-.51.85-.77a34.17,34.17,0,0,1,2,4.69,44.8,44.8,0,0,1,2,10.21c.13,1.73.19,3.45.17,5.18,0,1.24-.09,2.48-.19,3.72l1.86-.12c0-2.21,0-4.41,0-6.58-.07-2.68-.16-5.35-.43-8-.1-1.32-.27-2.63-.47-3.94s-.44-2.6-.72-3.89a29.17,29.17,0,0,0-1.13-3.77l-.19-.48.45-.5a22.25,22.25,0,0,1,1.88,4.45,41.92,41.92,0,0,1,1.51,8,62.63,62.63,0,0,1-.51,14.67c2.12-.13,4.23-.25,6.35-.33,3.77-.21,7.54-.26,11.31-.38l11.32-.12c3.77,0,7.54,0,11.32.12s7.54.17,11.31.38c2.31.09,4.61.23,6.91.37a63.52,63.52,0,0,1-.51-14.71,41.92,41.92,0,0,1,1.51-8,16.28,16.28,0,0,1,3.8-6.93,14.73,14.73,0,0,0-1.92-1c-.68-.31-1.36-.6-2.06-.85a41.18,41.18,0,0,0-4.2-1.37c-1.41-.42-2.82-.79-4.26-1.09s-2.85-.62-4.29-.85c-2.88-.44-5.74-.91-8.64-1.08A78.61,78.61,0,0,0,83,37a81.23,81.23,0,0,0-8.69.32L73,37.43l.36.15a3.66,3.66,0,0,1,1.23,1.22A7.39,7.39,0,0,1,75.44,41a14.23,14.23,0,0,1,.32,3.22c0,.38-.05,1.07-.16,2s-.21,1.94-.3,2.84c.33.22.68.42,1,.62l.57.34a17.34,17.34,0,0,0,.41-2.3c0-.08,0-.19.07-.33a3.15,3.15,0,0,1,.11-.47,4,4,0,0,1,.2-.5A2.23,2.23,0,0,1,78,46a1.23,1.23,0,0,1,.37-.35,1,1,0,0,1,.48-.14,1.33,1.33,0,0,1,.63.14.37.37,0,0,1,.19.31c0,.37-.11.73-.17,1.07s-.13.7-.19,1-.13.73-.2,1.16-.14.77-.19,1-.09.46-.11.62l0,.25a1,1,0,0,0,0,.3.67.67,0,0,0,.08.25.54.54,0,0,0,.15.18.4.4,0,0,0,.21.07.92.92,0,0,0,.39-.09,1.32,1.32,0,0,0,.35-.29,1.5,1.5,0,0,0,.31-.44,2.08,2.08,0,0,0,.2-.61L81.37,46c0-.13.14-.24.32-.33a1.51,1.51,0,0,1,.65-.14,1.19,1.19,0,0,1,.64.15.44.44,0,0,1,.25.38c0,.15,0,.35,0,.61a5.57,5.57,0,0,1-.1.85c0,.3-.12.67-.2,1.1s-.15.79-.2,1.07-.1.54-.14.75a2,2,0,0,0-.06.46c0,.16,0,.3,0,.43a1.13,1.13,0,0,0,0,.34.62.62,0,0,0,.11.23.29.29,0,0,0,.22.08,1.37,1.37,0,0,0,.44-.09,4.42,4.42,0,0,0,.56-.25l.14-.09a.71.71,0,0,1,.08-.18,1.4,1.4,0,0,1,.23-.3,1.94,1.94,0,0,1,.27-.24l.2-.16c.3-.27.56-.49.75-.67a5.8,5.8,0,0,0,.58-.62l.47-.59.4-.54c.15-.21.35-.46.56-.76s.51-.67.87-1.12a2.17,2.17,0,0,1,.24-.29,1.2,1.2,0,0,1,.29-.26,1.22,1.22,0,0,1,.36-.18,1.23,1.23,0,0,1,.44-.07,2,2,0,0,1,.61.08l.16.08a.75.75,0,0,1,.16.13.52.52,0,0,1,.11.27,1.06,1.06,0,0,1,0,.24,1,1,0,0,1-.15.45,5.32,5.32,0,0,1-.36.47l-.36.41a.7.7,0,0,0-.19.28,2.17,2.17,0,0,0,0,.47,2.07,2.07,0,0,0,.1.43c0,.14.08.28.12.43a3.3,3.3,0,0,1,.13.54,2.72,2.72,0,0,1,0,.83c0,.35-.05.71-.05,1.06a5.13,5.13,0,0,1,.65-.36L91.5,51l.77-.39.35-.21a15.58,15.58,0,0,1-.15-2.16c0-.33,0-.69,0-1.06s.07-.75.11-1.13a2.18,2.18,0,0,1-.38-.07,1.5,1.5,0,0,1-.29-.06l-.4-.07-.68-.09a.8.8,0,0,1-.32-.1.7.7,0,0,1-.16-.19.59.59,0,0,1,0-.22,1.56,1.56,0,0,1,0-.2.22.22,0,0,1,.16-.2,1.42,1.42,0,0,1,.42-.11l.56,0h1.09a1.28,1.28,0,0,0,.3,0,19.16,19.16,0,0,1,.56-2.17,12,12,0,0,1,.78-1.86,5.06,5.06,0,0,1,.93-1.31,1.55,1.55,0,0,1,1.06-.49,1.14,1.14,0,0,1,.65.2,1.73,1.73,0,0,1,.51.53,3.1,3.1,0,0,1,.32.78,3.93,3.93,0,0,1,.11.92,3.66,3.66,0,0,1-.11.84,8.08,8.08,0,0,1-.32.9,6.86,6.86,0,0,1-.48.93c-.17.32-.36.63-.56.94a.45.45,0,0,1,.24,0l.41,0,.49,0H98l.47,0h.35a.28.28,0,0,1,.24.19,1.08,1.08,0,0,1,.08.44.77.77,0,0,1-.17.51.47.47,0,0,1-.37.19H95.38c-.16.22-.32.44-.49.65s-.31.41-.45.58c0,.35,0,.68-.06,1,0,.14,0,.29,0,.44s0,.3,0,.45,0,.29,0,.43,0,.27,0,.38a3.16,3.16,0,0,0,.08.76,1.35,1.35,0,0,0,.25.51.85.85,0,0,0,.39.28,1.6,1.6,0,0,0,.51.08,1.32,1.32,0,0,0,.43-.08,5,5,0,0,0,.58-.23,6.85,6.85,0,0,0,.65-.34c.23-.13.46-.28.69-.44s.43-.33.64-.5a5.71,5.71,0,0,0,.56-.53v2.12l-1.42.82c-.42.23-.79.42-1.11.58a6.57,6.57,0,0,1-.87.35,2.64,2.64,0,0,1-.69.12,1.68,1.68,0,0,1-1.1-.39,2.78,2.78,0,0,1-.8-1.1c0-.08-.07-.19-.1-.27a8.18,8.18,0,0,1-1.14.68,14.26,14.26,0,0,1-1.43.6,10.81,10.81,0,0,1-1.51.4,7.32,7.32,0,0,1-1.43.15,4.42,4.42,0,0,1-.92-.09,2.58,2.58,0,0,1-.74-.27,1.63,1.63,0,0,1-.52-.49,1.52,1.52,0,0,1-.19-.49c-.08,0-.14.09-.22.14s-.45.27-.7.4a6.88,6.88,0,0,1-.74.32,4.38,4.38,0,0,1-.73.23,2.74,2.74,0,0,1-.66.09,1,1,0,0,1-.91-.47,1.82,1.82,0,0,1-.27-.52,5.67,5.67,0,0,1-.2-.69,5.41,5.41,0,0,1-.63.71,4.39,4.39,0,0,1-.68.56,3.61,3.61,0,0,1-.69.38,1.91,1.91,0,0,1-.69.13,1.44,1.44,0,0,1-.51-.09,1.15,1.15,0,0,1-.43-.31,1.64,1.64,0,0,1-.29-.56,2.86,2.86,0,0,1-.11-.88c0-.14,0-.27,0-.39l-.39-.09A7.27,7.27,0,0,1,75,51a21.17,21.17,0,0,1-.87,2.81A18.11,18.11,0,0,1,73,56.08a0,0,0,0,1,0,0h31.86A1.12,1.12,0,0,1,106,57.21V69.44a1.12,1.12,0,0,1-1.12,1.11H61.14A1.11,1.11,0,0,1,60,69.44V57.21a1.12,1.12,0,0,1,1.11-1.12H64.6v-.18A6.7,6.7,0,0,1,65,53.62a8.72,8.72,0,0,1,1.22-2.21,9.42,9.42,0,0,1,1.91-1.87,8.36,8.36,0,0,1,2.48-1.24,16.94,16.94,0,0,1-1.33-1.2,10.18,10.18,0,0,1-1.06-1.29,6.75,6.75,0,0,1-.73-1.33,3.72,3.72,0,0,1-.25-1.33A6.81,6.81,0,0,1,68,40.08a7.29,7.29,0,0,1,.78-1.2,5.11,5.11,0,0,1,1-.9,2.64,2.64,0,0,1,.35-.23c-1.46.2-2.91.42-4.37.65a78.81,78.81,0,0,0-8.55,1.94c-.84.22-1.66.48-2.48.76.51-.77,1-1.56,1.47-2.36l.26-.12A57.46,57.46,0,0,1,65,35.69a73.29,73.29,0,0,1,36,0,57.46,57.46,0,0,1,8.61,2.93,36.75,36.75,0,0,1,4.06,2.05,19.2,19.2,0,0,1,3.45,2.5A12.45,12.45,0,0,0,116,41.9a28.7,28.7,0,0,0,1.69-2.54,14.76,14.76,0,0,0,1.41-3.2,5.76,5.76,0,0,0,0-3.51A5.31,5.31,0,0,0,116.86,30v0l-.36-.19c2.12-10,1.79-16.42-1.25-20.15-2.68-3.29-7.12-4.49-13.33-4.9a5.11,5.11,0,0,1,.46,1.61,4.21,4.21,0,0,1,1.94-.83,3.07,3.07,0,0,1,2.17.58A5.6,5.6,0,0,1,108,7.79l0,.08A10.14,10.14,0,0,1,113.52,11c2.54,3.11,2.5,9.75.57,18.89a2,2,0,0,0-.38.39,1.62,1.62,0,0,0-.2-1.14,2.24,2.24,0,0,0-1.22-.91h0a31,31,0,0,0-4-.67,7.74,7.74,0,0,0-1.45-.09,25.2,25.2,0,0,1-.14-5.35c0-.64.13-1.28.23-1.92a.31.31,0,0,0,.28,0,.8.8,0,0,0,.32-.25,3.43,3.43,0,0,0,.44-.7,10.37,10.37,0,0,0,.56-1.53,11.12,11.12,0,0,0,.3-1.61,5.58,5.58,0,0,0,0-.82,1.32,1.32,0,0,0-.19-.66,6.87,6.87,0,0,0,.43-1.4,6.7,6.7,0,0,0-.18-3.47l-.08,0h0l-.07,0A16,16,0,0,0,107.61,8a4.84,4.84,0,0,0-1.5-1.37,2.33,2.33,0,0,0-1.69-.27,3.44,3.44,0,0,0-1.5.82l-1.19,1.15-.32-1.7a3.69,3.69,0,0,0-.58-1.56,1.31,1.31,0,0,0-1.06-.48,9.44,9.44,0,0,0-3.55.87,10.65,10.65,0,0,1-4.56,1.15,4.12,4.12,0,0,1-2.69-1,3.71,3.71,0,0,1-.73-1,3.24,3.24,0,0,0-.51.82A4.28,4.28,0,0,0,87.65,8a5,5,0,0,0,1.4,2.35,4.71,4.71,0,0,0,2.69,1.12v.07l-.07-.05a2.66,2.66,0,0,0-.21,1.54,5.7,5.7,0,0,0,.39,1.47c-.25.08-.35.38-.38.61a3.46,3.46,0,0,0,0,.85,10.59,10.59,0,0,0,.28,1.67,10.16,10.16,0,0,0,.57,1.6,3.56,3.56,0,0,0,.44.72.9.9,0,0,0,.33.28.33.33,0,0,0,.34-.08c.06.3.12.59.17.89.16.92.29,1.86.36,2.8a12.14,12.14,0,0,1,0,2l-.17.87a12.47,12.47,0,0,0-1.34-.22h0a15.15,15.15,0,0,0-2.92.24,4.2,4.2,0,0,0-2.59,1.42,6.18,6.18,0,0,0-1.07,2.74c0,.18,0,.37-.08.55-.92,0-1.83-.07-2.75-.08s-1.8,0-2.7.08c0-.18,0-.37-.08-.55a6.06,6.06,0,0,0-1.07-2.74,4.17,4.17,0,0,0-2.59-1.42,15.15,15.15,0,0,0-2.92-.24h0a11.3,11.3,0,0,0-1.74.3,4.87,4.87,0,0,0-.83.31,1.4,1.4,0,0,0-.63.53,1.64,1.64,0,0,0-1-.69,3.37,3.37,0,0,0-.83-.15v0h0c0-.36,0-.68,0-1a1.34,1.34,0,0,1,0-.2,1.84,1.84,0,0,0,1.16-.06c.52-.19.72-.76.93-1.22a18,18,0,0,0,.83-3,1.16,1.16,0,0,0,.24-.2,2.57,2.57,0,0,0,.21-.24l0,0,0,0a2.71,2.71,0,0,1-.34-1.14c0-.4-.07-.81-.1-1.21a16.56,16.56,0,0,0-.26-2.43c3,0,3.53-1.85,3.14-3.13,0,0,0,0,0,.06a1.29,1.29,0,0,1-1.06.75,1.78,1.78,0,0,1-1.09-.24,1.57,1.57,0,0,1-.42-.34c-.14-.15-.2-.26-.26-.33a5.2,5.2,0,0,0-.37-.43,2.83,2.83,0,0,0-1.77-1,12.1,12.1,0,0,0-2.26,0,2.26,2.26,0,0,0-.16-.26h0a16.86,16.86,0,0,0-2-4.31c3.31-.15,7.14-.12,11.49-.09,3.17,0,6.7,0,10,0a4.56,4.56,0,0,1,.18-1.6A5,5,0,0,1,87,4.56c-3.42,0-7.13,0-10.43,0-5.07,0-9.47-.07-13.23.19A14.11,14.11,0,0,0,61.6,3.21a15.62,15.62,0,0,0-9.23-3,23.46,23.46,0,0,0-9.56,2.05,38.53,38.53,0,0,0-8.37,5.07,80.58,80.58,0,0,0-7.27,6.53,72.14,72.14,0,0,1-7.1,6.58A18,18,0,0,1,11.29,24a32.09,32.09,0,0,1-9.62-.48l0,.17,0,.1,0,0h0a2.3,2.3,0,0,0-1,1.76,3.55,3.55,0,0,0,.54,2A8.4,8.4,0,0,0,4,30.3,17.92,17.92,0,0,0,7.4,31.88c1.18.43,2.28.7,3.37,1.15A3.26,3.26,0,0,1,13,35.34c.16,1.11-.61,2.18-.58,3.64a3.85,3.85,0,0,0,.65,2,5.76,5.76,0,0,0,1.38,1.48,9.17,9.17,0,0,0,2.29,1.26c-1,0-2,.06-2.93,0v.36l.36.09a30,30,0,0,0,14.69.27,27.78,27.78,0,0,0,5.38-1.77A26.24,26.24,0,0,0,32.76,49a25.12,25.12,0,0,0,.44,8h0c-1.17.73-2.37,1.38-3.58,2a34.51,34.51,0,0,1-3.7,1.73,17.9,17.9,0,0,1-3.84,1.18,6.29,6.29,0,0,1-1.93.07,2.56,2.56,0,0,1-1.71-.85l-.1.07A12.44,12.44,0,0,1,18.68,57a20.4,20.4,0,0,0,.24-2.38,9.63,9.63,0,0,0-.16-2.45c-.15-.81-.32-1.59-.5-2.39a10.94,10.94,0,0,0-.67-2.39,6.57,6.57,0,0,0-3-2.88,5.58,5.58,0,0,0-.67-.28l-.08.1c.49.67,1,1.24,1.48,1.84s.91,1.2,1.36,1.79a6.9,6.9,0,0,1,1.21,1.94A5.25,5.25,0,0,1,18,52.2c-.1.77-.24,1.52-.36,2.28s-.3,1.53-.4,2.33a10.63,10.63,0,0,0,0,2.46,3.87,3.87,0,0,0,1,2.31l.1-.06a3.09,3.09,0,0,0,1.58,1.08,6.53,6.53,0,0,0,2.15.25,17.2,17.2,0,0,0,4.21-.73,42.61,42.61,0,0,0,7.44-3,35.66,35.66,0,0,0,3.68,8.13,58.24,58.24,0,0,0,5.09,7Zm64.72-57.58a11.32,11.32,0,0,0,.89-1.69,1.51,1.51,0,0,1,0,.56,5,5,0,0,1-.12.76c-.12.51-.22,1-.39,1.53a15.2,15.2,0,0,1-.44,1.5,3.69,3.69,0,0,1-.3.7c-.1.18-.22.34-.42.28.16-1.07.36-2.14.56-3.2C107.61,16.8,107.68,16.65,107.76,16.51ZM92.92,19.85a4,4,0,0,1-.31-.73c-.16-.51-.34-1-.45-1.56S91.9,16.5,91.79,16a4.24,4.24,0,0,1-.09-.78c0-.23,0-.46.17-.58a9.5,9.5,0,0,0,.61,1.24c.35,1.42.66,2.85.92,4.28C93.16,20.25,93,20.06,92.92,19.85Zm.47-1.62c-.17-.62-.38-1.22-.6-1.82.16.28.31.56.45.85a25,25,0,0,1,2,5.67l0,.08.08,0a14.63,14.63,0,0,0,5,.84,15.11,15.11,0,0,0,2.51-.22,13.93,13.93,0,0,0,2.45-.61l.08,0,0-.09a23.92,23.92,0,0,1,1.91-5.44c-.18.59-.35,1.19-.5,1.8a26.75,26.75,0,0,0-.47,2.82,18.45,18.45,0,0,0,0,2.88c0,.34.1.68.16,1l-.49.06a4.44,4.44,0,0,0-.8.27,4.43,4.43,0,0,0-1.74-.69H103l-.32,0-.66,0-1.32-.07-1.31-.05c-.46,0-.83,0-1.41,0a6.12,6.12,0,0,0-1.71.27,3.73,3.73,0,0,0-.74.34,5.83,5.83,0,0,0-1-.32l-.32-.05a10,10,0,0,0,.13-1.81A22.69,22.69,0,0,0,94,21C93.83,20.07,93.65,19.14,93.39,18.23ZM87,31.17A9.28,9.28,0,0,1,87.62,30a2.48,2.48,0,0,1,.6-.77,3.49,3.49,0,0,1,1.64-.81l1.23-.29c.44-.08.89-.18,1.35-.29h-.12c.27,0,.54-.05.81-.1l.81-.08c.28,0,.54,0,.81,0a1.9,1.9,0,0,1,.63.11l-.17,1.76.33,0,.29-1.75h-.08a.91.91,0,0,1,.11-.16,1.83,1.83,0,0,1,.89-.22,5.91,5.91,0,0,1,1.18.06c.37.07.83.13,1.26.2l1.31.13,1.31.05h1.24s.07,0,0,0h0a3.11,3.11,0,0,1,1.06.19,1,1,0,0,1,.56.48.81.81,0,0,1,0,.31h0c-.07.59-.15,1.17-.24,1.75l.34.06c.12-.58.24-1.16.34-1.74h0a1.73,1.73,0,0,1,.16-.3,2,2,0,0,1,1.25-.42,8,8,0,0,1,1.78.25c.65.12,1.3.24,1.94.32s1.22.17,1.83.25h.11a1.82,1.82,0,0,1,.51.15,1.46,1.46,0,0,1,.92,1.47l0,0h0l-.17-.05-.47,1.71.33.11.57-1.69-.12,0a2.21,2.21,0,0,1,.77-.38,1.3,1.3,0,0,1,.68,0,2.08,2.08,0,0,1,.55.29,5,5,0,0,1,.52.45l0,0a4.64,4.64,0,0,1,1.34,2.15,3.69,3.69,0,0,1,.12,1.17,5.45,5.45,0,0,1-.16,1.35,10.83,10.83,0,0,1-.36,1.47c-.15.51-.29,1-.48,1.56-.28.93-.6,1.86-.87,2.89A22.33,22.33,0,0,0,114,40.18a30.44,30.44,0,0,0-3.07-2c.13-.26.27-.51.38-.77l-.08,0c-.11.27-.24.52-.35.78l-.83-.47a48,48,0,0,0-8.61-3.57A51.3,51.3,0,0,0,95,32.52l.24-1.19-.22,0c-.05.4-.1.8-.16,1.2-.84-.16-1.68-.3-2.53-.44-1.81-.25-3.63-.41-5.46-.52C86.92,31.41,87,31.29,87,31.17Zm-35.45,10-1.26,1.59-.16.19c-.41.21-.82.43-1.21.68.12.11.23.23.34.35l-.16.19c-.13-.19-.26-.39-.41-.58h0l.05,0-.1-.09,0,0,0,0A15.46,15.46,0,0,0,42.6,40a14.18,14.18,0,0,0-2.52-.47c.91-.64,1.8-1.31,2.65-2a41.52,41.52,0,0,0,4.05-4.13A6.25,6.25,0,0,0,47,36.16a14.26,14.26,0,0,0,1.4,3.2c.51.87,1.08,1.7,1.67,2.51a13.08,13.08,0,0,0-1.17,1.3,17.75,17.75,0,0,1,2.74-2.07Zm-5.49,6.1-.78.73A25.69,25.69,0,0,0,43.7,45.7a18,18,0,0,0-3.65-3.49,15.24,15.24,0,0,0-2.11-1.32c.13-.07.25-.16.38-.24a20.33,20.33,0,0,1,2.09,1,19.23,19.23,0,0,1,4,3.41A20.06,20.06,0,0,1,46.09,47.23ZM56,34.39a54.81,54.81,0,0,1-3.41,5.38l-.58.41a21.52,21.52,0,0,0-1.73,1.43c-.26-1-.58-1.94-.86-2.86-.19-.52-.33-1-.48-1.56a10.83,10.83,0,0,1-.36-1.47,5.45,5.45,0,0,1-.16-1.35,3.69,3.69,0,0,1,.12-1.17,4.64,4.64,0,0,1,1.34-2.15l0,0a4.17,4.17,0,0,1,.52-.45,2,2,0,0,1,.54-.29,1.3,1.3,0,0,1,.68,0,2.12,2.12,0,0,1,.77.38l-.12,0,.57,1.69.34-.11-.48-1.71-.17.05h0l0,0A1.61,1.61,0,0,1,53,29.44a1.48,1.48,0,0,1,.47-.31A1.92,1.92,0,0,1,54,29h.11c.61-.08,1.22-.15,1.83-.25s1.29-.2,1.94-.32c.36-.07.67-.14,1-.19A50.86,50.86,0,0,1,56,34.39Zm6.39-8.62a4.49,4.49,0,0,1-.12,1.46h0v.06a2.47,2.47,0,0,0-.66.35,1.22,1.22,0,0,0-.49,1,1.69,1.69,0,0,0-.66-.74c.06-.23.13-.45.19-.68.25-1,.49-2,.75-3a4,4,0,0,0,.51.23h0l0,0A2.44,2.44,0,0,1,62.42,25.77Zm-.51-4.9A10.77,10.77,0,0,0,61,22.5a4.81,4.81,0,0,1-.8-.77,10.66,10.66,0,0,1-1.66-3.34,5.65,5.65,0,0,0,3.76,1.4c.21,0,.42,0,.63,0A5.84,5.84,0,0,0,61.91,20.87Zm-2.58,1.38a5.4,5.4,0,0,0,1.17,1.44c-.43,1.08-.78,2.15-1.18,3.18-.07.21-.15.42-.23.63a8.54,8.54,0,0,0-1.34.09,30.58,30.58,0,0,0-3.94.67h0a2.27,2.27,0,0,0-1.22.91,1.68,1.68,0,0,0-.2,1.14,2.05,2.05,0,0,0-1.14-.77c-.15-.67-.27-1.32-.39-2,.43-.74.85-1.48,1.22-2.25.55-1.12,1.11-2.23,1.58-3.39s.91-2.3,1.32-3.45L56.1,15c.17-.53.35-1,.55-1.54a4.44,4.44,0,0,0,0,.63,5.67,5.67,0,0,0,1.59,3.92A9.61,9.61,0,0,0,59.33,22.25Zm-1-12.13a5.54,5.54,0,0,0-1.11,1.56A4.52,4.52,0,0,0,56,12.89c-.36.5-.67,1-1,1.54-.62,1-1.19,2.1-1.77,3.16-1,1.84-2,3.66-3.12,5.44a35.18,35.18,0,0,1-.24-5c1.3-1.56,2.57-3.13,3.91-4.64A20.6,20.6,0,0,1,56,11.18a4,4,0,0,1,2.3-1.09Zm11,17.31a1.59,1.59,0,0,1,1.09.37l-.16,0,.29,1.75.32,0-.17-1.76a1.9,1.9,0,0,1,.63-.11c.27,0,.53,0,.81,0l.81.08c.27.05.54.07.82.1h-.13c.46.11.91.21,1.35.29l1.23.29a3.49,3.49,0,0,1,1.64.81,2.48,2.48,0,0,1,.6.77A8.08,8.08,0,0,1,79,31.17c.06.12.12.24.17.36-1.84.11-3.68.27-5.51.53-.83.13-1.65.27-2.48.42,0-.39-.11-.79-.16-1.19l-.21,0c.07.39.15.79.23,1.18a51.51,51.51,0,0,0-6.48,1.6A48.59,48.59,0,0,0,57,37.17c.33-.62.65-1.26.94-1.9a41.94,41.94,0,0,0,2.47-7,1.84,1.84,0,0,1,.77.56l-.18,0c.11.58.22,1.16.34,1.74l.34-.06c-.09-.58-.17-1.16-.24-1.75l-.17,0a1,1,0,0,1,.68-.82A3.16,3.16,0,0,1,63,27.83h0c-.07,0,0,0,0,0h1.24l1.31-.05,1.31-.13c.43-.07.89-.13,1.26-.2A5.91,5.91,0,0,1,69.32,27.43Zm-.45-3.36a6.88,6.88,0,0,1,.3-.91h0A10.33,10.33,0,0,0,70,20.61a9.85,9.85,0,0,0,.45-4.56c.31,0,.61,0,.87,0h0c0,.41,0,.81,0,1.22s0,.81,0,1.22a10.33,10.33,0,0,0,0,1.24,3.59,3.59,0,0,0,.24,1s0,0,0,0l-.09.08s-.08.05,0,0l-.21.1,0,.2c-.11.49-.19,1-.32,1.5s-.26,1-.41,1.45-.3,1-.7,1.13h0a1.27,1.27,0,0,1-1-.43A4.19,4.19,0,0,1,68.87,24.07Zm-.18-.37a3.12,3.12,0,0,0-.4,1.18,3.72,3.72,0,0,0,.11,1.29h-.3c-1,0-1.77.09-2.67.13l-1.31.08-.66,0-.33,0h-.35a3.38,3.38,0,0,0,.08-.72,2.23,2.23,0,0,0-.26-.79,2.1,2.1,0,0,0-.26-.33,2.2,2.2,0,0,0-.28-.18,5.18,5.18,0,0,0,1.8.3C66.59,24.73,67.94,24.37,68.69,23.7ZM67.16,12.14a4.57,4.57,0,0,1,.48,2,4.43,4.43,0,0,1-1.78,3.54,4.49,4.49,0,0,1-1.77.74,4.19,4.19,0,0,1-1.77-.1A4,4,0,0,1,60,16.51a4.4,4.4,0,0,1-.68-2.31v-.37c0-.09,0-.19,0-.29a3.16,3.16,0,0,1,.11-.6,3.74,3.74,0,0,1,.52-1.18A4.18,4.18,0,0,1,62.29,10a4.25,4.25,0,0,1,1.81-.09,4.08,4.08,0,0,1,1.76.75A4.61,4.61,0,0,1,67.16,12.14ZM63.51,7a17.83,17.83,0,0,1,2.26,2.73,5.62,5.62,0,0,0-7,0A2.72,2.72,0,0,0,57,9.57a7,7,0,0,0-1.73.65,20.71,20.71,0,0,0-2.89,1.92c-.62.51-1.22,1-1.81,1.54A8,8,0,0,1,51.94,11C54.1,8.39,58,7.36,63.51,7ZM17.73,43.7c-1.7-1.6-3.49-3-3.79-4.88a8.34,8.34,0,0,1-.17-1.67,8.46,8.46,0,0,0-.17-1.92,5.77,5.77,0,0,0-2.33-3,12.37,12.37,0,0,0-1.58-1c-.55-.31-1.13-.56-1.65-.81C7,29.81,6,29.24,5,28.67a11.33,11.33,0,0,1-2.68-1.93,3.26,3.26,0,0,1-.77-1.28,2.36,2.36,0,0,1,.17-1.55,26.4,26.4,0,0,0,9.84,2A19.21,19.21,0,0,0,16.83,25a20.34,20.34,0,0,0,4.9-2.36,32.36,32.36,0,0,0,4.13-3.16c1.26-1.11,2.46-2.22,3.65-3.29a85,85,0,0,1,7.1-6.1,37.86,37.86,0,0,1,7.53-4.81,23.62,23.62,0,0,1,4-1.56A23.16,23.16,0,0,1,52.33,3a15.42,15.42,0,0,1,4.18.27,12.74,12.74,0,0,1,4,1.48A4.64,4.64,0,0,1,60.9,5c-4.85.57-8.41,1.86-10.7,4.66a12.48,12.48,0,0,0-2.43,6.64l-.26.24c-3.06,3-6,5.82-9.06,8.43a58,58,0,0,1-9.76,6.83A62.84,62.84,0,0,1,17.1,36.42v.21h0v.13h.32a10.53,10.53,0,0,1,3.71,2.41A10,10,0,0,1,23.56,43,43.83,43.83,0,0,1,17.73,43.7ZM28,41.82a38.91,38.91,0,0,1-4.28,1.1,5.42,5.42,0,0,0-.51-2.23,7.2,7.2,0,0,0-1.48-2.14,7.49,7.49,0,0,0-2.14-1.47,5.94,5.94,0,0,0-.95-.34,34.72,34.72,0,0,0,4.87-.54,33.73,33.73,0,0,0,6.21-1.82,40.54,40.54,0,0,0,11-6.74,67.37,67.37,0,0,0,6.9-6.93A49.6,49.6,0,0,0,48.21,26a45.65,45.65,0,0,1-7.79,8.79A35.59,35.59,0,0,1,28,41.82Zm7.44,13.72c0-.08,0-.15,0-.23a22.26,22.26,0,0,1,0-6.37,7.67,7.67,0,0,1,1-2.73,2.49,2.49,0,0,1,.76-.81l.2-.1.08,0,.2-.06a2.67,2.67,0,0,1,.47,0,4.94,4.94,0,0,1,2.42,1.09,13.34,13.34,0,0,1,2.23,2.16c.28.34.53.72.79,1.08L43,50a4.67,4.67,0,0,0-7.29,5l.1.3ZM39.6,50a4.74,4.74,0,0,0-2.85,3.8h-.09a2.19,2.19,0,0,1-.27-1.45A2.85,2.85,0,0,1,37,51a3,3,0,0,1,1.14-.9,2.27,2.27,0,0,1,1.46-.16ZM38.22,64.7a26.13,26.13,0,0,1-1.31-3,25.2,25.2,0,0,1-1.06-3.73l1.21-.7a4.69,4.69,0,0,0,7.67-4.71c0-.16-.11-.31-.17-.47l.46-.37c.42.72.83,1.46,1.19,2.22a32.74,32.74,0,0,1,3,12.87h.05c-.09,1.38-8,2-9.26.78l0,0A20.29,20.29,0,0,1,38.22,64.7Z"
              transform="translate(-0.6 -0.16)" style="fill: #5f5f5f"/>
        <path d="M133.26,49a27.36,27.36,0,0,0-2.72-9.1l0,0,0-.07a12.89,12.89,0,0,0-7.1.08,15.46,15.46,0,0,0-6.08,3.38l0,0-.12.13,0,0h0a13.1,13.1,0,0,0-1.88,3.51,27.72,27.72,0,0,0-1.14,3.77c-.28,1.29-.55,2.58-.72,3.89s-.37,2.62-.47,3.94c-.27,2.64-.36,5.31-.43,8q0,3.27,0,6.62l1.86.13c-.1-1.26-.15-2.51-.19-3.77,0-1.73,0-3.45.17-5.18a44.8,44.8,0,0,1,2-10.21,27.29,27.29,0,0,1,5.12-9.13,19.23,19.23,0,0,1,4-3.41,15.09,15.09,0,0,1,3.55-1.54l1.25-.13-.52.14A13.58,13.58,0,0,0,126,42.21a18,18,0,0,0-3.65,3.49,28.19,28.19,0,0,0-4.71,8.92,49.88,49.88,0,0,0-2.2,9.93c-.23,1.69-.38,3.39-.49,5.09-.09,1.25-.14,2.51-.18,3.76l1.94.13,2.83.23a23.43,23.43,0,0,1,2.9.33c.33.07.66.16,1,.25a58.57,58.57,0,0,0,5.19-7.14,35.14,35.14,0,0,0,3.87-8.7A25.43,25.43,0,0,0,133.26,49Zm-2.66,6.28a25.9,25.9,0,0,1-1.48,6.36,24.51,24.51,0,0,1-1.31,3,20.29,20.29,0,0,1-1.8,2.81l0,0c-1.24,1.24-9.17.6-9.27-.78h.06a32.57,32.57,0,0,1,3-12.87,27,27,0,0,1,3.43-5.48,13.34,13.34,0,0,1,2.23-2.16,4.94,4.94,0,0,1,2.43-1.09,2.61,2.61,0,0,1,.46,0l.2.06.08,0,.2.1a2.49,2.49,0,0,1,.76.81,7.67,7.67,0,0,1,.95,2.73A22.26,22.26,0,0,1,130.6,55.31Z"
              transform="translate(-0.6 -0.16)" style="fill: #5f5f5f"/>
        <polygon points="116.57 43.43 116.66 43.34 116.66 43.34 116.57 43.43" style="fill: #5f5f5f"/>
        <path d="M58.61,87h-.72l0-.2a1.12,1.12,0,0,1-1.12,1.12,2.51,2.51,0,0,1-2-1l.07.11-6.7,0c0,2.7-.15,5.34,0,8.09a4.69,4.69,0,0,0,4.52,3.92l2.06,0,2.06,0a4.6,4.6,0,0,0,2.08-.54A4.7,4.7,0,0,0,61.32,95c.13-2.74,0-5.37,0-8Z"
              transform="translate(-0.6 -0.16)" style="fill: #5f5f5f"/>
        <path d="M111.17,87l.08-.11a2.54,2.54,0,0,1-2,1,1.12,1.12,0,0,1-1.11-1.12V87h-3.49c0,2.68-.14,5.31,0,8a4.69,4.69,0,0,0,4.52,3.92l2.06,0,2.06,0a4.6,4.6,0,0,0,2.08-.54A4.7,4.7,0,0,0,117.82,95c.13-2.75,0-5.39,0-8.09Z"
              transform="translate(-0.6 -0.16)" style="fill: #5f5f5f"/>
        <path d="M104.34,32.36l-.24-.06c-.11.59-.22,1.16-.35,1.74l.14,0C104.05,33.51,104.2,32.93,104.34,32.36Z"
              transform="translate(-0.6 -0.16)" style="fill: #5f5f5f"/>
        <path d="M112.64,34.11l-.26-.09c-.17.57-.36,1.13-.55,1.69l.17.06C112.22,35.22,112.43,34.67,112.64,34.11Z"
              transform="translate(-0.6 -0.16)" style="fill: #5f5f5f"/>
        <path d="M61.73,32.36c.14.57.29,1.15.45,1.72l.14,0c-.13-.58-.24-1.15-.35-1.74Z"
              transform="translate(-0.6 -0.16)" style="fill: #5f5f5f"/>
        <path d="M53.43,34.11c.21.56.42,1.11.64,1.66l.17-.06c-.19-.56-.37-1.12-.55-1.69Z"
              transform="translate(-0.6 -0.16)" style="fill: #5f5f5f"/>
        <path d="M54,85.51a11.3,11.3,0,0,1-.79-2.91c-.26-1.87-.32-5,.68-7v0a3.88,3.88,0,0,1,.47-.76l0-.05.18-.2a1.4,1.4,0,0,0-.17.2l.06-.1-5.71,0H46a27,27,0,0,0-2.84.09,5.45,5.45,0,0,0-2.71.86,2.18,2.18,0,0,0-.81,1.2,3.37,3.37,0,0,0,0,1.45h0l.08,0,.09,0a5.44,5.44,0,0,1,0-.57,3.6,3.6,0,0,0,.08.56,21.45,21.45,0,0,0,1.28,2.7c.46.88.95,1.76,1.46,2.61l.39.65c.12.19.24.38.37.55a2.16,2.16,0,0,0,.8.69,5.46,5.46,0,0,0,2.41.11c2.42-.15,4.85-.3,7.27-.43Zm-2.46-8.22c-1,.12-1.92.19-2.88.29s-1.91.18-2.85.29-1.86.4-2.71.44a9.12,9.12,0,0,0-1.08.13c-.11,0-.18,0-.26.11a1.17,1.17,0,0,0,0,.65l-.14.11a1.27,1.27,0,0,1-.66-.62,1.1,1.1,0,0,1-.06-.61,1.44,1.44,0,0,1,.27-.57,3.27,3.27,0,0,1,1.56-.94,8.19,8.19,0,0,1,3-.12c1,0,1.95.13,2.91.24s1.92.26,2.88.42Z"
              transform="translate(-0.6 -0.16)" style="fill: #5f5f5f"/>
        <path d="M109.65,85a7.81,7.81,0,0,0,1-2.7c.38-2.64,0-5-.64-6a3.89,3.89,0,0,0-.28-.39h0l0,0a4.72,4.72,0,0,0-.4-.46l0,0,0,0a3.85,3.85,0,0,0-.39-.37l0,0-.12-.11v-.2h-3.35l-22.63,0-22.64,0H57.34v.2l-.42.4,0,0a1.36,1.36,0,0,0-.12.12l0,0-.35.4-.06.07h0c-.1.12-.19.25-.28.38-.61,1-1,3.39-.62,6A7.67,7.67,0,0,0,56.39,85l2.22-.09c4-.21,8-.25,12.06-.38s8-.08,12.06-.12l12.06.12c4,.12,8,.16,12,.37ZM83.87,77.92c-4.17.08-8.35.32-12.52.22s-8.35-.26-12.53-.72v-.18c4.17-.52,8.34-.74,12.52-.88s8.35.06,12.53.13l12.53.28c4.17.13,8.35.27,12.52.47v.18c-4.18,0-8.35.13-12.53.23Z"
              transform="translate(-0.6 -0.16)" style="fill: #5f5f5f"/>
        <path d="M125.06,75.61a5.52,5.52,0,0,0-2.72-.86,26.76,26.76,0,0,0-2.83-.09h-7.94l-.19-.2.27.31c1.51,1.92,1.48,5.7,1.17,7.84a10.93,10.93,0,0,1-.94,3.25c.14-.3.33-.74.33-.74,2.23.13,4.46.26,6.69.41a5.81,5.81,0,0,0,2.41-.11,4.36,4.36,0,0,0,1.55-1.89c.51-.85,1-1.73,1.46-2.61a19.64,19.64,0,0,0,1.29-2.7,5,5,0,0,0,.08-.54,3.48,3.48,0,0,1,0,.55l.09,0h0l.09,0a3.22,3.22,0,0,0,0-1.45A2.11,2.11,0,0,0,125.06,75.61Zm-.71,3.67-.08,0a.81.81,0,0,0,.11-.65,1,1,0,0,0-.46-.46,4.69,4.69,0,0,0-1.35-.4,20,20,0,0,0-2.9-.23c-1,0-2,.07-2.92,0a21.31,21.31,0,0,1-3-.33v-.08a12.45,12.45,0,0,1,2.94-.48,18.43,18.43,0,0,1,3,.17,19.79,19.79,0,0,1,3,.51,4.59,4.59,0,0,1,1.4.61,1.15,1.15,0,0,1,.49.63A1,1,0,0,1,124.35,79.28Z"
              transform="translate(-0.6 -0.16)" style="fill: #5f5f5f"/>
        <g>
            <path d="M97.39,47.05a2.32,2.32,0,0,0-1.8.16c-.5.36-.43,1.38.19,1.41a11.23,11.23,0,0,1-.56-4.49c-2.13.78-3.16,3.25-5.12,4.4a9.64,9.64,0,0,1-4.89.9l-20.67.11a38.91,38.91,0,0,1,7-5.29h-.9A6.57,6.57,0,0,1,74,43.88"
                  transform="translate(-0.6 -0.16)" style="fill: #5f5f5f"/>
            <path d="M97.39,41.05c-4-.44-6.52,1.84-7.91,5.39-.79,2,.22,4.34,1.54,5.84l.52.59c4.09,4.63,11.5-.3,10-5.84a5.53,5.53,0,0,1-.35-2.9c.07-4.64-5.12-7.37-9-5.19-1.73,1-2.79,2.38-4.3,3.53-2,1.52-4.85,1-7.39,1l-16,.09,4.24,10.24a39.11,39.11,0,0,1,5.81-4.35c5-3.07,3.06-11.25-3-11.18h-.9L72.26,50,74,49.88c7.72.11,7.73-11.89,0-12a17.8,17.8,0,0,0-4.93.59c-6.58,1.62-5.18,11.86,1.59,11.79h.9l-3-11.18A56,56,0,0,0,60.3,45.3c-3.91,3.54-.8,10.27,4.24,10.24,6.58,0,13.15,0,19.73-.11,2.78,0,5.63-.11,8.15-1.41,2.31-1.2,3.64-3.49,5.83-4.71l-9-5.18A22.42,22.42,0,0,0,90,50.22l10-5.84-.51-.58,1.54,5.83.33-.83L97.18,53l.21.06c7.67.85,7.61-11.16,0-12Z"
                  transform="translate(-0.6 -0.16)" style="fill: #5f5f5f"/>
        </g>
        <g>
            <path d="M69,39.82a2.69,2.69,0,0,1,1.22-.76L70,39l3.55-.34" transform="translate(-0.6 -0.16)"
                  style="fill: #5f5f5f"/>
            <path d="M69.83,40.67a1.76,1.76,0,0,1,.69-.45A1.21,1.21,0,0,0,70.81,38l-.2-.11L70,40.16l3.55-.34c1.52-.15,1.54-2.55,0-2.4L70,37.76c-1.08.11-1.75,1.64-.6,2.24l.19.1.29-2.2A4.55,4.55,0,0,0,68.13,39c-1.1,1.08.6,2.78,1.7,1.69Z"
                  transform="translate(-0.6 -0.16)" style="fill: #5f5f5f"/>
        </g>
        <g>
            <path d="M74.25,54a1.27,1.27,0,0,1-.28.74.82.82,0,0,1-.62.22,3,3,0,0,1-.67-.1,12,12,0,0,0-2.32-.13c-1.82,0-3.65.13-5.47.23q4.69.06,9.38,0"
                  transform="translate(-0.6 -0.16)" style="fill: #5f5f5f"/>
            <path d="M73.09,53.64c0-.15-7.68,0-8.2.08a1.2,1.2,0,0,0,0,2.4q4.69.06,9.38,0a1.2,1.2,0,0,0,0-2.4q-4.68.09-9.38,0v2.4A43.38,43.38,0,0,1,72.36,56c1.49.18,2.7,0,3-1.7.31-1.51-2-2.15-2.31-.64Z"
                  transform="translate(-0.6 -0.16)" style="fill: #5f5f5f"/>
        </g>
    </g>
    <g id="wedding-car-text">
        <g id="family-text">
            <path d="M82.12,37.57a2.9,2.9,0,0,1-.25,1.37A7.23,7.23,0,0,1,81,40.52,11,11,0,0,1,79.6,42.1a13.9,13.9,0,0,1-1.73,1.42A10.67,10.67,0,0,1,76,44.58a6.73,6.73,0,0,1-2,.51A2,2,0,0,1,72.9,45a1.48,1.48,0,0,1-.61-.51,15,15,0,0,1-2.22.91,10.83,10.83,0,0,1-2.22.48l-.39,0a16,16,0,0,0-1.3,3.06,7.05,7.05,0,0,0-.33,2.62,2.76,2.76,0,0,0,1,2,3.64,3.64,0,0,0,2.65.53,8.9,8.9,0,0,0,2.63-.63,12,12,0,0,0,1.94-1,10.5,10.5,0,0,0,1.63-1.34.36.36,0,0,1,.19-.07c.11,0,.17,0,.18.13a.4.4,0,0,1-.18.33c-.21.2-.51.45-.9.76a10.29,10.29,0,0,1-1.42.93A11.39,11.39,0,0,1,71.6,54a10.63,10.63,0,0,1-2.49.52,4,4,0,0,1-2.94-.59,3,3,0,0,1-1.08-2.14A7.19,7.19,0,0,1,65.43,49a15,15,0,0,1,1.38-3.17,2.7,2.7,0,0,1-1.16-.31,2.07,2.07,0,0,1-.71-.62c-.21.14-.45.27-.7.41l-.77.38a8.67,8.67,0,0,1,.47,1.38,7.69,7.69,0,0,1,.21,1.19.67.67,0,0,1,0,.2.13.13,0,0,1-.09.1c-.1,0-.17-.05-.22-.18a1.66,1.66,0,0,1-.13-.47,14.62,14.62,0,0,0-.7-2A21.08,21.08,0,0,1,59.88,47a24.72,24.72,0,0,1-4,.68,8.34,8.34,0,0,1-2.37-.06,5.92,5.92,0,0,1-1.74-.59,3,3,0,0,1-1.09-1,2.51,2.51,0,0,1-.44-1.19,2.64,2.64,0,0,1,.21-1.29,3.35,3.35,0,0,1,.88-1.18,5,5,0,0,1,1.55-.92,8.14,8.14,0,0,1,2.24-.5,9.38,9.38,0,0,1,3,.15,7.48,7.48,0,0,1,2.32,1,6.87,6.87,0,0,1,1.68,1.48,10.19,10.19,0,0,1,1.13,1.75c.26-.12.51-.25.76-.39s.47-.27.68-.4a.7.7,0,0,1-.07-.22c0-.08,0-.15,0-.23a1.76,1.76,0,0,1,.22-1,3.72,3.72,0,0,1,.7-.88,4,4,0,0,1,.91-.64,2.27,2.27,0,0,1,.84-.29c.33,0,.51.08.54.34a2.28,2.28,0,0,1-.55,1.31,7.94,7.94,0,0,1-1.91,1.76,1.85,1.85,0,0,0,.62.55,2.57,2.57,0,0,0,1,.29,24.43,24.43,0,0,1,2.3-3.25,21.39,21.39,0,0,1,2.92-2.87,17.24,17.24,0,0,1,3.37-2.14,10.63,10.63,0,0,1,3.59-1,3.83,3.83,0,0,1,2.16.25A1.39,1.39,0,0,1,82.12,37.57Zm-19.32,8a7.53,7.53,0,0,0-3.15-3.24,8.43,8.43,0,0,0-4.88-.82,6.82,6.82,0,0,0-1.78.39,4,4,0,0,0-1.2.69,2.37,2.37,0,0,0-.66.89,2.16,2.16,0,0,0-.15,1,2.35,2.35,0,0,0,.44,1.12,3.16,3.16,0,0,0,1,.95,4.85,4.85,0,0,0,1.57.6,6.82,6.82,0,0,0,2.1.09,22.44,22.44,0,0,0,3.72-.64A20.74,20.74,0,0,0,62.8,45.56ZM67.17,42c0-.18-.14-.25-.36-.23a1.29,1.29,0,0,0-.51.19,2.22,2.22,0,0,0-.56.47,2.28,2.28,0,0,0-.43.66,1.57,1.57,0,0,0-.13.84l0,.23a7.21,7.21,0,0,0,1.51-1.28C67,42.51,67.19,42.22,67.17,42Zm14.37-4A1.3,1.3,0,0,0,80.75,37a4.48,4.48,0,0,0-2.3-.21,8.59,8.59,0,0,0-3.08.94,15.71,15.71,0,0,0-3,2,20.41,20.41,0,0,0-2.62,2.71,21.75,21.75,0,0,0-2.11,3.06l.21,0A10.73,10.73,0,0,0,70.15,45a13.22,13.22,0,0,0,2-.87v-.19A1.46,1.46,0,0,1,72.4,43a3.8,3.8,0,0,1,.73-.89,5.22,5.22,0,0,1,1-.69,2.19,2.19,0,0,1,.86-.32c.35,0,.54.11.57.42a1,1,0,0,1-.17.61,3.26,3.26,0,0,1-.56.67,8.54,8.54,0,0,1-.87.71,8.81,8.81,0,0,1-1.09.68.93.93,0,0,0,.48.38,2.2,2.2,0,0,0,.89.07,5.5,5.5,0,0,0,1.66-.45,10.93,10.93,0,0,0,1.71-.92,12.69,12.69,0,0,0,2.87-2.62,6.75,6.75,0,0,0,.85-1.39A2.34,2.34,0,0,0,81.54,38Zm-6.82,3.79c0-.15-.1-.21-.26-.2a1.49,1.49,0,0,0-.54.22,3.15,3.15,0,0,0-.59.52,3.61,3.61,0,0,0-.46.69,1.37,1.37,0,0,0-.16.74v0A8.22,8.22,0,0,0,74.2,42.7C74.57,42.33,74.74,42,74.72,41.82Z"
                  transform="translate(-0.6 -0.16)" style="fill: #fff"/>
            <path d="M81.67,51.81c0,.08-.07.22-.22.41a3.59,3.59,0,0,1-.66.59,5.61,5.61,0,0,1-1,.56,3.5,3.5,0,0,1-1.19.32,1.8,1.8,0,0,1-1.29-.23,1.15,1.15,0,0,1-.45-.81,2.24,2.24,0,0,1,.17-1,4.23,4.23,0,0,1,.61-1,4,4,0,0,1,.94-.84,2.59,2.59,0,0,1,1.13-.39.94.94,0,0,1,.61.11.63.63,0,0,1,.29.55,1.24,1.24,0,0,1-.23.86,3.24,3.24,0,0,1-.72.77,6.66,6.66,0,0,1-1,.65c-.36.19-.71.36-1,.51.16.35.53.5,1.1.45a3.89,3.89,0,0,0,1.31-.39,4.69,4.69,0,0,0,1.35-1.07c0-.07.09-.11.14-.11S81.67,51.73,81.67,51.81Zm-1.61-1.53a.51.51,0,0,0-.2-.38.59.59,0,0,0-.4-.1,1.53,1.53,0,0,0-.75.31,3.09,3.09,0,0,0-.63.67,3,3,0,0,0-.42.82,2.17,2.17,0,0,0-.1.82l0,.17c.32-.16.63-.33.94-.52a5.66,5.66,0,0,0,.8-.57,3.33,3.33,0,0,0,.55-.6A1,1,0,0,0,80.06,50.28Z"
                  transform="translate(-0.6 -0.16)" style="fill: #fff"/>
            <path d="M86.36,49.12c.07-.09.1-.15.09-.2s0-.07.1-.08a.92.92,0,0,1,.28,0c.12,0,.18,0,.19.11s-.09.31-.31.54-.27.34-.46.6a9.65,9.65,0,0,0-.56.81,5.67,5.67,0,0,0-.46.81.91.91,0,0,0-.11.6.38.38,0,0,0,.41,0,2.49,2.49,0,0,0,.54-.4,7.91,7.91,0,0,0,.56-.59q.27-.31.48-.6c.33-.4.61-.74.82-1A5.37,5.37,0,0,0,88.4,49a.58.58,0,0,1,.43-.3.69.69,0,0,1,.2,0q.12,0,.12.12a.33.33,0,0,1-.08.24c-.07.08-.14.18-.23.3a3.2,3.2,0,0,1-.43.61,6,6,0,0,0-.74,1.24l-.18.35a.73.73,0,0,0-.11.42c0,.26.2.37.52.34a1.89,1.89,0,0,0,.71-.31,6.19,6.19,0,0,0,1.14-1c0-.07.08-.11.13-.11s.1,0,.11.11a.8.8,0,0,1-.23.4,3.18,3.18,0,0,1-.62.58,6.91,6.91,0,0,1-.83.53,2.35,2.35,0,0,1-.88.27c-.35,0-.54-.13-.58-.5a1,1,0,0,1,0-.29,1.76,1.76,0,0,1,.07-.27l.08-.15.13-.27.13-.26a1,1,0,0,0,.06-.15l-.72.75c-.25.26-.49.5-.72.71a4.53,4.53,0,0,1-.66.51.74.74,0,0,1-.57.11.41.41,0,0,1-.33-.25.89.89,0,0,1,0-.45,2.2,2.2,0,0,1,.28-.55c.12-.19.26-.38.4-.57a1.59,1.59,0,0,1,.11-.18l.26-.32.36-.46a7.21,7.21,0,0,0-.65.67c-.28.31-.6.64-1,1a9.79,9.79,0,0,1-1.12.94,2.4,2.4,0,0,1-1.14.47,1.15,1.15,0,0,1-.35,0,.85.85,0,0,1-.39-.17.91.91,0,0,1-.3-.38,1.4,1.4,0,0,1-.11-.66.85.85,0,0,1,.28-.33.4.4,0,0,1,.31-.06.33.33,0,0,1,.23.19.7.7,0,0,1,.05.45.52.52,0,0,0,.24.42.75.75,0,0,0,.38.08,1.61,1.61,0,0,0,.79-.38,9.91,9.91,0,0,0,.84-.72l.6-.57.75-.74c.25-.25.48-.48.69-.71A2.75,2.75,0,0,0,86.36,49.12Z"
                  transform="translate(-0.6 -0.16)" style="fill: #fff"/>
            <path d="M94.1,50.94s.07,0,.12.06,0,.16,0,.19a2.73,2.73,0,0,1-1.21.5,1.4,1.4,0,0,1-.82-.12,1.18,1.18,0,0,1-.48-.51,1.85,1.85,0,0,1-.19-.64.93.93,0,0,1,.28-.8,1.09,1.09,0,0,1,.64-.35.85.85,0,0,1,.66.13.55.55,0,0,1,.21.39,1.26,1.26,0,0,1-.25.8,4.37,4.37,0,0,1-.72.87,5.4,5.4,0,0,1-1,.71,2.94,2.94,0,0,1-1.08.34.54.54,0,0,1-.66-.56,1.38,1.38,0,0,1,.27-.89c.2-.3.4-.57.58-.81.32-.43.57-.8.77-1.11s.35-.56.48-.74A4.63,4.63,0,0,1,92,48a.34.34,0,0,1,.24-.14.94.94,0,0,1,.28,0c.11,0,.16.07.17.15a1.18,1.18,0,0,1-.17.28l-.41.61-.51.72c-.18.25-.32.46-.43.63-.24.36-.44.67-.59.93a1.13,1.13,0,0,0-.21.57c0,.19.15.28.39.25a1.43,1.43,0,0,0,.5-.18,3.49,3.49,0,0,0,.71-.45,3,3,0,0,0,.62-.66,1.19,1.19,0,0,0,.21-.78.43.43,0,0,0-.09-.27.37.37,0,0,0-.28-.08.82.82,0,0,0-.45.26.73.73,0,0,0-.21.65,1.12,1.12,0,0,0,.08.3,1.17,1.17,0,0,0,.2.36.86.86,0,0,0,.39.26,1.27,1.27,0,0,0,.6.06,1.29,1.29,0,0,0,.7-.27Z"
                  transform="translate(-0.6 -0.16)" style="fill: #fff"/>
            <path d="M98.62,49.57l-.21,0a2.28,2.28,0,0,1-.22.23,8.51,8.51,0,0,1-1,1,7,7,0,0,1-1.13.84A2.76,2.76,0,0,1,95,52a1.22,1.22,0,0,1-.32,0,1,1,0,0,1-.37-.13,1,1,0,0,1-.3-.31A1.19,1.19,0,0,1,93.8,51a.48.48,0,0,1,.16-.47.54.54,0,0,1,.31-.15c.24,0,.37.1.4.39a.93.93,0,0,1,0,.24.49.49,0,0,0,.24.41.69.69,0,0,0,.38.09,1.92,1.92,0,0,0,.76-.33,8.08,8.08,0,0,0,1-.73,12.17,12.17,0,0,0,.88-.88,3.08,3.08,0,0,1-1.1-.16,1,1,0,0,1-.6-1,1.24,1.24,0,0,1,.35-.9,2.18,2.18,0,0,1,.82-.56,2.4,2.4,0,0,1,1-.18,1.24,1.24,0,0,1,.78.26.89.89,0,0,1,.27.74,2.44,2.44,0,0,1-.56,1.26l-.24.31.22,0a.62.62,0,0,1,.45-.31h.19a.1.1,0,0,1,.11.1c0,.08,0,.18-.17.29l-.37.39a2.7,2.7,0,0,0-.36.49,1.06,1.06,0,0,0-.14.64c0,.26.2.37.52.34a2,2,0,0,0,.72-.31,6,6,0,0,0,1.13-1,.19.19,0,0,1,.13-.1c.07,0,.1,0,.11.11s-.07.21-.23.4a3.2,3.2,0,0,1-.62.58,5.3,5.3,0,0,1-.83.52,2.33,2.33,0,0,1-.87.28c-.34,0-.52-.13-.56-.5a1.79,1.79,0,0,1,.09-.72A4.47,4.47,0,0,1,98.62,49.57Zm.11-1.15a3,3,0,0,0,.2-.45,1.12,1.12,0,0,0,0-.41.49.49,0,0,0-.19-.39.51.51,0,0,0-.55-.1,2,2,0,0,0-.67.37A2.58,2.58,0,0,0,97,48a.86.86,0,0,0-.15.67.78.78,0,0,0,.49.52,4,4,0,0,0,.72.15A7.06,7.06,0,0,0,98.73,48.42Z"
                  transform="translate(-0.6 -0.16)" style="fill: #fff"/>
        </g>
        <g id="starushchenko-text">
            <path d="M64.53,64.53a.2.2,0,0,1,.21,0l.53.64h0a.13.13,0,0,1,0,.21h0a2.21,2.21,0,0,1-1.7.82,2.84,2.84,0,0,1,0-5.61,2.22,2.22,0,0,1,1.7.83h0a.13.13,0,0,1,0,.21h0l-.53.63a.26.26,0,0,1-.21,0,1.28,1.28,0,0,0-1-.48,1.66,1.66,0,0,0,0,3.27A1.28,1.28,0,0,0,64.53,64.53Zm-1-1.84a.63.63,0,0,0-.56.69.64.64,0,0,0,.56.69.63.63,0,0,0,.55-.69A.62.62,0,0,0,63.56,62.69Z"
                  transform="translate(-0.6 -0.16)" style="fill: #5f5f5f"/>
            <path d="M68.49,61.62a.13.13,0,0,1-.14.13h-.79V66a.14.14,0,0,1-.14.14h-.74a.13.13,0,0,1-.14-.14V61.75h-.79a.14.14,0,0,1-.15-.13v-.8a.15.15,0,0,1,.15-.14h2.6a.14.14,0,0,1,.14.14Z"
                  transform="translate(-0.6 -0.16)" style="fill: #5f5f5f"/>
            <path d="M71.16,65.54H69.79l-.17.55h0a.13.13,0,0,1-.14.1h-.81a.14.14,0,0,1-.13-.19c.59-1.76,1.22-3.69,1.81-5.45a.14.14,0,0,1,.26,0L72.42,66a.14.14,0,0,1-.13.19h-.82a.13.13,0,0,1-.13-.1h0Zm-1.09-1h.81l-.23-.83a6.76,6.76,0,0,1-.17-.78,6.56,6.56,0,0,1-.17.78Z"
                  transform="translate(-0.6 -0.16)" style="fill: #5f5f5f"/>
            <path d="M76.1,62.34A1.57,1.57,0,0,1,74.47,64h-.6v2a.13.13,0,0,1-.14.14H73a.14.14,0,0,1-.14-.14V60.77a.13.13,0,0,1,.14-.13h1.48A1.56,1.56,0,0,1,76.1,62.34Zm-1,0a.56.56,0,0,0-.61-.56h-.6v1.09h.6A.54.54,0,0,0,75.08,62.34Z"
                  transform="translate(-0.6 -0.16)" style="fill: #5f5f5f"/>
            <path d="M77.32,60.57a.13.13,0,0,1,.12.1l.62,2.08c.23-.7.46-1.38.68-2.08a.15.15,0,0,1,.13-.1h.81c.1,0,.15.1.12.2L78,66.09h0a.12.12,0,0,1-.13.1h-.78A.13.13,0,0,1,77,66h0l.52-1.61-1.22-3.62a.15.15,0,0,1,.13-.2Z"
                  transform="translate(-0.6 -0.16)" style="fill: #5f5f5f"/>
            <path d="M80.42,66.18a.14.14,0,0,1-.14-.14V60.72a.14.14,0,0,1,.14-.15h.76a.14.14,0,0,1,.14.15V65h1.34V60.72a.15.15,0,0,1,.14-.15h.75a.15.15,0,0,1,.14.15V65H85V60.72a.14.14,0,0,1,.14-.15h.76a.14.14,0,0,1,.14.15v4.37h.31a.13.13,0,0,1,.13.14v1.65a.13.13,0,0,1-.13.13h-.71a.13.13,0,0,1-.14-.13v-.7Z"
                  transform="translate(-0.6 -0.16)" style="fill: #5f5f5f"/>
            <path d="M88.25,61.77v1.09H90a.13.13,0,0,1,.13.14v.84A.13.13,0,0,1,90,64H88.25v1.08h2.08a.14.14,0,0,1,.14.14V66a.14.14,0,0,1-.14.14h-3a.13.13,0,0,1-.13-.14V60.77a.13.13,0,0,1,.13-.13h3a.13.13,0,0,1,.14.13v.86a.15.15,0,0,1-.14.14Z"
                  transform="translate(-0.6 -0.16)" style="fill: #5f5f5f"/>
            <path d="M94.77,60.57a.16.16,0,0,1,.15.15V66a.15.15,0,0,1-.15.14H94a.14.14,0,0,1-.14-.14V64h-1.6V66a.14.14,0,0,1-.14.14h-.76a.14.14,0,0,1-.14-.14V60.72a.15.15,0,0,1,.14-.15h.76a.15.15,0,0,1,.14.15v2.06h1.6V60.72a.15.15,0,0,1,.14-.15Z"
                  transform="translate(-0.6 -0.16)" style="fill: #5f5f5f"/>
            <path d="M97.87,63.46l1.8,2.5a.13.13,0,0,1-.11.22h-1a.33.33,0,0,1-.12-.05l-1.28-1.86a.61.61,0,0,1-.07.1h0a1.31,1.31,0,0,1-.19.27V66a.15.15,0,0,1-.15.14H96a.15.15,0,0,1-.15-.14V60.77a.14.14,0,0,1,.15-.13h.74a.14.14,0,0,1,.15.13V63l1.57-2.33.11,0h.94a.13.13,0,0,1,.11.22Z"
                  transform="translate(-0.6 -0.16)" style="fill: #5f5f5f"/>
            <path d="M104.81,63.4c0,1.42-.79,2.85-2.34,2.85s-2.35-1.43-2.35-2.85.78-2.84,2.35-2.84S104.81,62,104.81,63.4Zm-1,0c0-.87-.44-1.73-1.3-1.73s-1.3.86-1.3,1.73.43,1.7,1.3,1.7S103.77,64.27,103.77,63.42Z"
                  transform="translate(-0.6 -0.16)" style="fill: #5f5f5f"/>
        </g>
    </g>
</svg>
