<svg xmlns="http://www.w3.org/2000/svg" viewBox="0 0 17.71 22.64">
    <title>9</title>
    <defs>
        <g>
            <clipPath id="clip-wedding-date9">
                <path d="M1,21.48a8.47,8.47,0,0,0,2.11-.79A18.64,18.64,0,0,0,6,18.89a32,32,0,0,0,3.19-2.81,31.53,31.53,0,0,0,3.24-3.86,6.1,6.1,0,0,1-1.92,1.12,6.48,6.48,0,0,1-2,.41,5.79,5.79,0,0,1-1.75-.14,3.8,3.8,0,0,1-1.28-.53,4,4,0,0,1-1.36-1.53A4.54,4.54,0,0,1,3.6,9.38a6.36,6.36,0,0,1,.63-2.59,10.81,10.81,0,0,1,2-2.88A12.8,12.8,0,0,1,10.08.86,8.56,8.56,0,0,1,13.35,0a5.1,5.1,0,0,1,2.42.48,3.33,3.33,0,0,1,1.32,1,4.81,4.81,0,0,1,.55,3.24,13.22,13.22,0,0,1-1.32,4.06,26,26,0,0,1-2.73,4.37,41.27,41.27,0,0,1-3.65,4.17,26.43,26.43,0,0,1-3.31,2.88A17.64,17.64,0,0,1,4,21.84a8.1,8.1,0,0,1-2,.7,6.35,6.35,0,0,1-1.44.09c-.25,0-.4-.05-.45-.17a.41.41,0,0,1,.05-.38,1,1,0,0,1,.38-.38A1.45,1.45,0,0,1,1,21.48ZM14.59,8.71a3.45,3.45,0,0,1,.22-.43L15,7.9a7.77,7.77,0,0,0,1.08-4.2,2.43,2.43,0,0,0-1.44-2.11,4.26,4.26,0,0,0-3.12.19A10.73,10.73,0,0,0,7.63,4.59,9,9,0,0,0,6.32,6.36,7.93,7.93,0,0,0,5.5,8.28a5.11,5.11,0,0,0-.19,1.83A2.24,2.24,0,0,0,6,11.55a2.5,2.5,0,0,0,1.79.81A5.71,5.71,0,0,0,10,12a10.78,10.78,0,0,0,2.39-1.29A11.77,11.77,0,0,0,14.59,8.71Z"
                      fill="red"/>
            </clipPath>
        </g>
    </defs>
    <g>
        <path id="wedding-date9" data-name="wedding-date9" clip-path="url(#clip-wedding-date9)"
              d="M1,21.48a8.47,8.47,0,0,0,2.11-.79A18.64,18.64,0,0,0,6,18.89a32,32,0,0,0,3.19-2.81,31.53,31.53,0,0,0,3.24-3.86,6.1,6.1,0,0,1-1.92,1.12,6.48,6.48,0,0,1-2,.41,5.79,5.79,0,0,1-1.75-.14,3.8,3.8,0,0,1-1.28-.53,4,4,0,0,1-1.36-1.53A4.54,4.54,0,0,1,3.6,9.38a6.36,6.36,0,0,1,.63-2.59,10.81,10.81,0,0,1,2-2.88A12.8,12.8,0,0,1,10.08.86,8.56,8.56,0,0,1,13.35,0a5.1,5.1,0,0,1,2.42.48,3.33,3.33,0,0,1,1.32,1,4.81,4.81,0,0,1,.55,3.24,13.22,13.22,0,0,1-1.32,4.06,26,26,0,0,1-2.73,4.37,41.27,41.27,0,0,1-3.65,4.17,26.43,26.43,0,0,1-3.31,2.88A17.64,17.64,0,0,1,4,21.84a8.1,8.1,0,0,1-2,.7,6.35,6.35,0,0,1-1.44.09c-.25,0-.4-.05-.45-.17a.41.41,0,0,1,.05-.38,1,1,0,0,1,.38-.38A1.45,1.45,0,0,1,1,21.48ZM14.59,8.71a3.45,3.45,0,0,1,.22-.43L15,7.9a7.77,7.77,0,0,0,1.08-4.2,2.43,2.43,0,0,0-1.44-2.11,4.26,4.26,0,0,0-3.12.19A10.73,10.73,0,0,0,7.63,4.59,9,9,0,0,0,6.32,6.36,7.93,7.93,0,0,0,5.5,8.28a5.11,5.11,0,0,0-.19,1.83A2.24,2.24,0,0,0,6,11.55a2.5,2.5,0,0,0,1.79.81A5.71,5.71,0,0,0,10,12a10.78,10.78,0,0,0,2.39-1.29A11.77,11.77,0,0,0,14.59,8.71Z"
              stroke-width="10" fill="none" stroke="#3d718e"/>
    </g>
</svg>
