<svg class="wedding__rings-icon" id="wedding-rings" xmlns="http://www.w3.org/2000/svg" viewBox="0 0 68.01 54.91">
  <title>Wedding rings</title>
    <path d="M40.66,10.69l.32.09a19.32,19.32,0,0,1,2.73,1.07h0l.1.06L44,12c.1.05.19.12.29.18s.51.3.8.49a5,5,0,0,1,1.11,1l0,0a3.49,3.49,0,0,1,.36.42,10.33,10.33,0,0,1,1.4,3c.33,1.05.59,2.11.84,3.18A42.5,42.5,0,0,1,50,26.76a10.41,10.41,0,0,1-.2,3.29,4.11,4.11,0,0,1-2,2.6h0c-.15,1.27-.33,2.54-.54,3.8s-.48,2.56-.76,3.83h0l.06,0a12.07,12.07,0,0,1-5.12,6.07,9,9,0,0,1-4.12,1.12,37,37,0,0,1-3.94-.1,39,39,0,0,1-7.67-1.5,31,31,0,0,1-7.14-3.11l0-.06,0,0a4.33,4.33,0,0,1-1.58-1.42A7.27,7.27,0,0,1,16,39.49a8.18,8.18,0,0,1-.37-2,5.33,5.33,0,0,1,.27-2.07h0l-.21-.27a10.19,10.19,0,0,1,2.44-1c-.1-.33-.18-.65-.25-1a5.09,5.09,0,0,1-.09-1.61,1.78,1.78,0,0,1,.85-1.36,23.19,23.19,0,0,1,2.83-1.49c.71-.33,1.42-.64,2.15-.93A5.45,5.45,0,0,1,25,24.78a1.36,1.36,0,0,1,.12-.12h0l-.12-.3c-1-1.46-1.8-2.9-2.78-4.23a23,23,0,0,0-1.64-2.05,16.44,16.44,0,0,0-1.75-1.68l-.12-.07h0l-.06,0,0-.08-.09,0c.32-1,.68-2.08,1.1-3.09a12,12,0,0,1,.71-1.49,5.2,5.2,0,0,1,.45-.7,1.62,1.62,0,0,1,.68-.53,15.82,15.82,0,0,1,3.25-.57c1.09-.11,2.18-.19,3.27-.23,1.74-.07,3.49-.07,5.23,0C26.52-1.08,5.07-5.12,1,13.41c-5,23.15,26.19,42,26.19,42s36.17-4.81,40.84-28C71.74,9.13,51.23,4.1,40.66,10.69Z" transform="translate(-0.5 -0.55)" style="fill: #61c1cb"/>
    <g>
      <path d="M41.51,38.6a9.78,9.78,0,0,1-1.76.83,16.27,16.27,0,0,1-.29,6.51,6.94,6.94,0,0,0,1.48-.54,13.82,13.82,0,0,0,5.46-5.16h0a13.47,13.47,0,0,1,.16-3.92,15,15,0,0,1,1-3.38A19.1,19.1,0,0,1,41.51,38.6Z" transform="translate(-0.5 -0.55)" style="fill: #5f5f5f"/>
      <polygon points="45.97 39.73 45.97 39.73 45.97 39.73 45.97 39.73" style="fill: #5f5f5f"/>
      <path d="M32.72,39.53c-2.86-.47-5.69-1-8.48-1.68-1.4-.35-2.79-.71-4.17-1.09s-2.53-.76-3.77-1.2l-.12.1L16,35.48l.15,0L16,35.44v0l.07,0a19.82,19.82,0,0,0,.87,3.73,11.08,11.08,0,0,0,1.69,3.47v0a57.11,57.11,0,0,0,7.33,2.19A56.73,56.73,0,0,0,33.46,46c1,.07,2.13.16,3.2.18A15,15,0,0,0,37,39.87,40.81,40.81,0,0,1,32.72,39.53Z" transform="translate(-0.5 -0.55)" style="fill: #5f5f5f"/>
      <path d="M47.67,32.81c0-.05.09-.1.13-.16h0l0,0Z" transform="translate(-0.5 -0.55)" style="fill: #5f5f5f"/>
      <path d="M25.09,24.66l0,0c-.06-.09-.12-.18-.17-.27l.12.3Z" transform="translate(-0.5 -0.55)" style="fill: #5f5f5f"/>
      <path d="M37.29,16.52A37.58,37.58,0,0,0,28,15.26a38.32,38.32,0,0,0-9.37,1v0l0,.05,0,0v0l0,.08.06,0h0l.12.07a.46.46,0,0,1-.07-.07l.29,0a8.94,8.94,0,0,1,1.89,1.33,13.69,13.69,0,0,1,1.83,2,19.17,19.17,0,0,1,2.45,4.84,5.46,5.46,0,0,1,7.73-.24,6.35,6.35,0,0,1,10,2.07,6.27,6.27,0,0,1,.58,2.89,11,11,0,0,1,2.76,1.09l.17.12.2.38.09,0a75.75,75.75,0,0,0-2.26-9.17,9.52,9.52,0,0,0-1-2.1,4.5,4.5,0,0,0-1.72-1.52A25.41,25.41,0,0,0,37.29,16.52Z" transform="translate(-0.5 -0.55)" style="fill: #5f5f5f"/>
      <path d="M23.2,15A42.27,42.27,0,0,1,28,14.55a35.9,35.9,0,0,1,9.56,1.09c.77.22,1.54.47,2.3.74.5.18,1,.37,1.51.59a22.72,22.72,0,0,1,1.43-3.58,18.35,18.35,0,0,0-2.34-.87,26.9,26.9,0,0,0-6-1.16c-2.09-.24-4.23-.3-6.37-.36-1.07,0-2.13,0-3.2,0-.53,0-1.06,0-1.58.07a10.81,10.81,0,0,0-1.45.18H21.7s0,0,0,0l0,0-.07.05s-.11.06-.18.13A4.31,4.31,0,0,0,21,12a11.55,11.55,0,0,0-.83,1.33c-.47.88-.93,1.79-1.37,2.7l-.23.05,0,.09A28.17,28.17,0,0,1,23.2,15Z" transform="translate(-0.5 -0.55)" style="fill: #5f5f5f"/>
      <path d="M49,26.83a55.19,55.19,0,0,0-1.59-6.19c-.63-2-1.16-4.09-2.17-5.41a22.94,22.94,0,0,0-1.32,3.69l.18.24a8.92,8.92,0,0,1,1,2.3,51.86,51.86,0,0,1,1.68,9.39h0l.09,0a2.29,2.29,0,0,1,.52.71,1.87,1.87,0,0,1,.09,1.19l-.22.2a1.82,1.82,0,0,0-.2-1.24A2.42,2.42,0,0,0,46,30.85a11.79,11.79,0,0,0-2.56-.71,6.54,6.54,0,0,1-.77,2.14l-.08,0c-.53-.18-1.07-.38-1.62-.54l-.08,0A4.55,4.55,0,0,0,34,25.79a5.45,5.45,0,0,1,.61,2c.83.08,1.66.17,2.49.28,1.44.21,2.87.46,4.28.76a4.5,4.5,0,0,1,0,1s0,0,0,0c-1.48-.21-3-.39-4.45-.56l-2.34-.18a5.4,5.4,0,0,1-.31,1.26h-.08l-1.07-.16-.38,0A3.8,3.8,0,0,0,33,26.5a4.19,4.19,0,0,0-7.25-.7,3.82,3.82,0,0,0-.4,3.79h-.12l-1.39,0h-.06a4.31,4.31,0,0,1-.1-.61L22,29.62a28.59,28.59,0,0,0-2.79,1.23l-.25.13a.62.62,0,0,0-.14.14,1.26,1.26,0,0,0-.23.48,4.22,4.22,0,0,0-.09,1.4,13.63,13.63,0,0,0,.5,2.61l-.24,0a12.79,12.79,0,0,1-.54-1.46,10.12,10.12,0,0,0-1.7,1.26L16,35.33v0c2.79.65,5.6,1.25,8.41,1.81s5.63,1.07,8.46,1.46a38.33,38.33,0,0,0,4.27.42A7.63,7.63,0,0,0,41.18,38a21.19,21.19,0,0,0,3.54-2.4,19.23,19.23,0,0,0,3-3l0,0-.05-.08a4.06,4.06,0,0,0,1.46-2.61A9.93,9.93,0,0,0,49,26.83ZM33,27.89l0-.07a.38.38,0,0,1,0,.1l0,.78A1.15,1.15,0,0,1,33,29l-.29,0A4.25,4.25,0,0,1,33,27.89Zm-7.77.75c0-.08,0-.16,0-.24l.07-.72c0-.1,0-.2.07-.3,1.87,0,3.75,0,5.63.12a6,6,0,0,1,.86-1.94,3.61,3.61,0,0,1,.33.35,3.72,3.72,0,0,1,.49.75,3.67,3.67,0,0,1,.27.72,4.62,4.62,0,0,0-.24,2.7s0,0,0,0c-.58-.06-1.15-.13-1.73-.18h-.13a6.39,6.39,0,0,1,0-1.07h0C28.92,28.74,27.07,28.7,25.23,28.64Zm6.3,5.45c-2.1-.2-4.19-.47-6.27-.83a27.52,27.52,0,0,1-3.11-.6,17.15,17.15,0,0,1-3-1.08l0-.07c1.06.11,2.09.29,3.12.49s2,.49,3.06.73q3.06.71,6.17,1.29ZM40,35.32a4.51,4.51,0,0,1-1.27,0,14,14,0,0,1-2.5-.36v-.05a18.85,18.85,0,0,0,2.49.05c.41,0,.81-.1,1.21-.12a6.31,6.31,0,0,0,1.2-.17l0,0A2.36,2.36,0,0,1,40,35.32Zm3.45-2.7-2.65-.3c-.87-.11-1.74-.23-2.61-.32-1.75-.18-3.48-.42-5.22-.62s-3.48-.45-5.21-.73-3.48-.58-5.23-1V29.6c3.53.15,7.05.45,10.56.88A70.57,70.57,0,0,1,43.5,32.53Z" transform="translate(-0.5 -0.55)" style="fill: #5f5f5f"/>
    </g>
</svg>
