<svg xmlns="http://www.w3.org/2000/svg" viewBox="0 0 75.59 24.11">
    <title>2019</title>
    <defs>
        <g>
            <clipPath id="clip-wedding-2019-1">
                <path d="M7.92,8.55A13.52,13.52,0,0,1,10,5.72,21.92,21.92,0,0,1,13.12,3,20.09,20.09,0,0,1,16.68.89,9.28,9.28,0,0,1,20.2,0a3.28,3.28,0,0,1,2.24.68,2.64,2.64,0,0,1,.93,2.08,7.51,7.51,0,0,1-.89,3.36,18.37,18.37,0,0,1-3.24,4.49c-1.18,1.28-2.61,2.72-4.27,4.32S11.59,18,9.84,19.44c.89.48,1.71.94,2.47,1.37a3.88,3.88,0,0,0,2.09.6A5.06,5.06,0,0,0,16.22,21a8.24,8.24,0,0,0,1.42-.79,7.29,7.29,0,0,0,1-.84l.58-.6c.19-.16.37-.13.55.1s.18.4,0,.52a2.92,2.92,0,0,1-.43.58,9.54,9.54,0,0,1-1.15,1.15,11.32,11.32,0,0,1-1.68,1.2A4.86,4.86,0,0,1,14.4,23a5.17,5.17,0,0,1-2.84-.77Q10,21.36,8.44,20.55a33.92,33.92,0,0,1-3.26,2.16A13.34,13.34,0,0,1,2.25,24a1.72,1.72,0,0,1-1.41-.09A1.75,1.75,0,0,1,.14,23,2.65,2.65,0,0,1,0,21.82a3.34,3.34,0,0,1,.26-1,4.49,4.49,0,0,1,1.08-1.42,5.49,5.49,0,0,1,1.3-.84,6.25,6.25,0,0,1,1.22-.41c.39-.08.69-.13.92-.16a5,5,0,0,1,1.89.16,17.65,17.65,0,0,1,1.85.65q1.64-1.29,3.34-2.86c1.13-1,2.2-2.06,3.21-3.07S17,10.88,17.8,10a24.65,24.65,0,0,0,1.83-2.26,10.32,10.32,0,0,0,2-4,2,2,0,0,0-.6-2,2.84,2.84,0,0,0-2.28-.22A9.84,9.84,0,0,0,15.6,2.83a20.14,20.14,0,0,0-2.74,2.24c-.8.78-1.49,1.51-2.06,2.18A18,18,0,0,0,9.45,9a8.12,8.12,0,0,1-.62.86.21.21,0,0,1-.34.05,1.15,1.15,0,0,1-.33-.41,2.18,2.18,0,0,1-.22-.55C7.89,8.74,7.88,8.61,7.92,8.55ZM7.1,19.92a6.36,6.36,0,0,0-2-.4,3.46,3.46,0,0,0-1.94.55,6.06,6.06,0,0,0-1.68,1.34c-.29.38-.39.68-.29.89s.37.3.84.29a4.6,4.6,0,0,0,1.7-.51c.45-.22,1-.52,1.56-.88S6.46,20.4,7.1,19.92Z"
                      stroke="#3d718e" fill="none"/>
            </clipPath>
            <clipPath id="clip-wedding-2019-2">
                <path d="M31.92,22.71A7.28,7.28,0,0,1,29.11,24a4.23,4.23,0,0,1-2.43-.24A3.78,3.78,0,0,1,25,22.08a5.75,5.75,0,0,1-.6-3,13.78,13.78,0,0,1,.91-4.37,25.8,25.8,0,0,1,2.23-4.58,26.34,26.34,0,0,1,3.1-4.11,16.4,16.4,0,0,1,3.46-2.93,7.09,7.09,0,0,1,2.64-1,3.51,3.51,0,0,1,2.13.29A2.87,2.87,0,0,1,40.19,4a5.4,5.4,0,0,1,.22,2.83,20.72,20.72,0,0,1-1.06,4,36.65,36.65,0,0,1-2,4.61,34.26,34.26,0,0,1-2.59,4.3A12.17,12.17,0,0,1,31.92,22.71Zm7-15.55c.28-1.83,0-3-.82-3.39s-2-.12-3.51.94a14.73,14.73,0,0,0-2,1.73c-.65.67-1.27,1.36-1.84,2.06s-1.09,1.38-1.52,2-.76,1.15-1,1.53a14.81,14.81,0,0,0-1.75,4.37,8.32,8.32,0,0,0-.1,3.45A3.35,3.35,0,0,0,27.57,22a2.3,2.3,0,0,0,2.19.22,7.56,7.56,0,0,0,2.83-2.06,21.56,21.56,0,0,0,3.17-4.81,45.19,45.19,0,0,0,2.16-4.82A23.81,23.81,0,0,0,38.88,7.16Z"
                      stroke="#3d718e" fill="none"/>
            </clipPath>
            <clipPath id="clip-wedding-2019-3">
                <path d="M52.8,2.55A4.42,4.42,0,0,0,55,1.83a6.33,6.33,0,0,1,.92-.63,1.07,1.07,0,0,1,.52.05,1.29,1.29,0,0,1,.48.29.74.74,0,0,1,.22.46.65.65,0,0,1-.22.5q-2,2.73-3.67,5.28c-1.14,1.7-2.26,3.39-3.36,5.09s-2.21,3.45-3.31,5.25S44.31,21.88,43.1,24a.28.28,0,0,1-.38.12,1.56,1.56,0,0,1-.46-.36,1.79,1.79,0,0,1-.34-.56c-.08-.2-.09-.36,0-.45.83-1.47,1.75-3.06,2.76-4.75s2-3.39,3.07-5.07,2.08-3.29,3.12-4.82,2-2.91,2.86-4.13c.12-.16-.29-.29-1.25-.38-.1,0-.11-.2,0-.51S52.63,2.58,52.8,2.55Z"
                      stroke="#3d718e" fill="none"/>
            </clipPath>
            <clipPath id="clip-wedding-2019-4">
                <path d="M58.89,22.61A8.09,8.09,0,0,0,61,21.82,18.12,18.12,0,0,0,63.83,20,30.94,30.94,0,0,0,67,17.21a31.53,31.53,0,0,0,3.24-3.86,6.33,6.33,0,0,1-1.92,1.13,6.84,6.84,0,0,1-2,.4,5.76,5.76,0,0,1-1.75-.14,3.71,3.71,0,0,1-1.28-.53A4,4,0,0,1,62,12.68a4.53,4.53,0,0,1-.51-2.16,6.36,6.36,0,0,1,.63-2.6,10.81,10.81,0,0,1,2-2.88A12.74,12.74,0,0,1,68,2a8.41,8.41,0,0,1,3.27-.87,5.23,5.23,0,0,1,2.42.48,3.33,3.33,0,0,1,1.32,1,4.81,4.81,0,0,1,.55,3.24A13.22,13.22,0,0,1,74.2,9.94a26,26,0,0,1-2.73,4.37,41.27,41.27,0,0,1-3.65,4.17,26.43,26.43,0,0,1-3.31,2.88A17.64,17.64,0,0,1,61.84,23a8.1,8.1,0,0,1-2,.7,6.35,6.35,0,0,1-1.44.09c-.25,0-.41-.05-.45-.16a.42.42,0,0,1,0-.39,1.09,1.09,0,0,1,.39-.38A1.45,1.45,0,0,1,58.89,22.61ZM72.47,9.84a3.45,3.45,0,0,1,.22-.43L72.91,9A7.77,7.77,0,0,0,74,4.83a2.43,2.43,0,0,0-1.44-2.11,4.26,4.26,0,0,0-3.12.19,10.73,10.73,0,0,0-3.92,2.81,9.48,9.48,0,0,0-1.32,1.77,8.3,8.3,0,0,0-.81,1.92,5.11,5.11,0,0,0-.19,1.83,2.23,2.23,0,0,0,.64,1.44,2.52,2.52,0,0,0,1.8.81,5.63,5.63,0,0,0,2.28-.41,10.84,10.84,0,0,0,2.4-1.29A11.77,11.77,0,0,0,72.47,9.84Z"
                      stroke="#3d718e" fill="none"/>
            </clipPath>
        </g>
    </defs>

    <g>
        <path id="wedding-2019-1"
              d="M7.92,8.55A13.52,13.52,0,0,1,10,5.72,21.92,21.92,0,0,1,13.12,3,20.09,20.09,0,0,1,16.68.89,9.28,9.28,0,0,1,20.2,0a3.28,3.28,0,0,1,2.24.68,2.64,2.64,0,0,1,.93,2.08,7.51,7.51,0,0,1-.89,3.36,18.37,18.37,0,0,1-3.24,4.49c-1.18,1.28-2.61,2.72-4.27,4.32S11.59,18,9.84,19.44c.89.48,1.71.94,2.47,1.37a3.88,3.88,0,0,0,2.09.6A5.06,5.06,0,0,0,16.22,21a8.24,8.24,0,0,0,1.42-.79,7.29,7.29,0,0,0,1-.84l.58-.6c.19-.16.37-.13.55.1s.18.4,0,.52a2.92,2.92,0,0,1-.43.58,9.54,9.54,0,0,1-1.15,1.15,11.32,11.32,0,0,1-1.68,1.2A4.86,4.86,0,0,1,14.4,23a5.17,5.17,0,0,1-2.84-.77Q10,21.36,8.44,20.55a33.92,33.92,0,0,1-3.26,2.16A13.34,13.34,0,0,1,2.25,24a1.72,1.72,0,0,1-1.41-.09A1.75,1.75,0,0,1,.14,23,2.65,2.65,0,0,1,0,21.82a3.34,3.34,0,0,1,.26-1,4.49,4.49,0,0,1,1.08-1.42,5.49,5.49,0,0,1,1.3-.84,6.25,6.25,0,0,1,1.22-.41c.39-.08.69-.13.92-.16a5,5,0,0,1,1.89.16,17.65,17.65,0,0,1,1.85.65q1.64-1.29,3.34-2.86c1.13-1,2.2-2.06,3.21-3.07S17,10.88,17.8,10a24.65,24.65,0,0,0,1.83-2.26,10.32,10.32,0,0,0,2-4,2,2,0,0,0-.6-2,2.84,2.84,0,0,0-2.28-.22A9.84,9.84,0,0,0,15.6,2.83a20.14,20.14,0,0,0-2.74,2.24c-.8.78-1.49,1.51-2.06,2.18A18,18,0,0,0,9.45,9a8.12,8.12,0,0,1-.62.86.21.21,0,0,1-.34.05,1.15,1.15,0,0,1-.33-.41,2.18,2.18,0,0,1-.22-.55C7.89,8.74,7.88,8.61,7.92,8.55ZM7.1,19.92a6.36,6.36,0,0,0-2-.4,3.46,3.46,0,0,0-1.94.55,6.06,6.06,0,0,0-1.68,1.34c-.29.38-.39.68-.29.89s.37.3.84.29a4.6,4.6,0,0,0,1.7-.51c.45-.22,1-.52,1.56-.88S6.46,20.4,7.1,19.92Z"
              stroke="#3d718e" fill="none"
              clip-path="url(#clip-wedding-2019-1)"/>
        <path id="wedding-2019-2"
              d="M31.92,22.71A7.28,7.28,0,0,1,29.11,24a4.23,4.23,0,0,1-2.43-.24A3.78,3.78,0,0,1,25,22.08a5.75,5.75,0,0,1-.6-3,13.78,13.78,0,0,1,.91-4.37,25.8,25.8,0,0,1,2.23-4.58,26.34,26.34,0,0,1,3.1-4.11,16.4,16.4,0,0,1,3.46-2.93,7.09,7.09,0,0,1,2.64-1,3.51,3.51,0,0,1,2.13.29A2.87,2.87,0,0,1,40.19,4a5.4,5.4,0,0,1,.22,2.83,20.72,20.72,0,0,1-1.06,4,36.65,36.65,0,0,1-2,4.61,34.26,34.26,0,0,1-2.59,4.3A12.17,12.17,0,0,1,31.92,22.71Zm7-15.55c.28-1.83,0-3-.82-3.39s-2-.12-3.51.94a14.73,14.73,0,0,0-2,1.73c-.65.67-1.27,1.36-1.84,2.06s-1.09,1.38-1.52,2-.76,1.15-1,1.53a14.81,14.81,0,0,0-1.75,4.37,8.32,8.32,0,0,0-.1,3.45A3.35,3.35,0,0,0,27.57,22a2.3,2.3,0,0,0,2.19.22,7.56,7.56,0,0,0,2.83-2.06,21.56,21.56,0,0,0,3.17-4.81,45.19,45.19,0,0,0,2.16-4.82A23.81,23.81,0,0,0,38.88,7.16Z"
              stroke="#3d718e" fill="none"
              clip-path="url(#clip-wedding-2019-2)"/>
        <path id="wedding-2019-3"
              d="M52.8,2.55A4.42,4.42,0,0,0,55,1.83a6.33,6.33,0,0,1,.92-.63,1.07,1.07,0,0,1,.52.05,1.29,1.29,0,0,1,.48.29.74.74,0,0,1,.22.46.65.65,0,0,1-.22.5q-2,2.73-3.67,5.28c-1.14,1.7-2.26,3.39-3.36,5.09s-2.21,3.45-3.31,5.25S44.31,21.88,43.1,24a.28.28,0,0,1-.38.12,1.56,1.56,0,0,1-.46-.36,1.79,1.79,0,0,1-.34-.56c-.08-.2-.09-.36,0-.45.83-1.47,1.75-3.06,2.76-4.75s2-3.39,3.07-5.07,2.08-3.29,3.12-4.82,2-2.91,2.86-4.13c.12-.16-.29-.29-1.25-.38-.1,0-.11-.2,0-.51S52.63,2.58,52.8,2.55Z"
              stroke="#3d718e" fill="none"
              clip-path="url(#clip-wedding-2019-3)"/>
        <path id="wedding-2019-4"
              clip-path="url(#clip-wedding-2019-4)"
              d="M58.89,22.61A8.09,8.09,0,0,0,61,21.82,18.12,18.12,0,0,0,63.83,20,30.94,30.94,0,0,0,67,17.21a31.53,31.53,0,0,0,3.24-3.86,6.33,6.33,0,0,1-1.92,1.13,6.84,6.84,0,0,1-2,.4,5.76,5.76,0,0,1-1.75-.14,3.71,3.71,0,0,1-1.28-.53A4,4,0,0,1,62,12.68a4.53,4.53,0,0,1-.51-2.16,6.36,6.36,0,0,1,.63-2.6,10.81,10.81,0,0,1,2-2.88A12.74,12.74,0,0,1,68,2a8.41,8.41,0,0,1,3.27-.87,5.23,5.23,0,0,1,2.42.48,3.33,3.33,0,0,1,1.32,1,4.81,4.81,0,0,1,.55,3.24A13.22,13.22,0,0,1,74.2,9.94a26,26,0,0,1-2.73,4.37,41.27,41.27,0,0,1-3.65,4.17,26.43,26.43,0,0,1-3.31,2.88A17.64,17.64,0,0,1,61.84,23a8.1,8.1,0,0,1-2,.7,6.35,6.35,0,0,1-1.44.09c-.25,0-.41-.05-.45-.16a.42.42,0,0,1,0-.39,1.09,1.09,0,0,1,.39-.38A1.45,1.45,0,0,1,58.89,22.61ZM72.47,9.84a3.45,3.45,0,0,1,.22-.43L72.91,9A7.77,7.77,0,0,0,74,4.83a2.43,2.43,0,0,0-1.44-2.11,4.26,4.26,0,0,0-3.12.19,10.73,10.73,0,0,0-3.92,2.81,9.48,9.48,0,0,0-1.32,1.77,8.3,8.3,0,0,0-.81,1.92,5.11,5.11,0,0,0-.19,1.83,2.23,2.23,0,0,0,.64,1.44,2.52,2.52,0,0,0,1.8.81,5.63,5.63,0,0,0,2.28-.41,10.84,10.84,0,0,0,2.4-1.29A11.77,11.77,0,0,0,72.47,9.84Z"
              stroke="#3d718e" fill="none"/>
    </g>
</svg>
