<svg id="wedding-hearts" data-name="wedding-hearts" xmlns="http://www.w3.org/2000/svg" viewBox="0 0 61.41 101.98">
  <title>wedding-hearts</title>
  <g>
    <g>
      <path d="M26,33.74l.18,0v0Z" transform="translate(-0.79 -0.91)" style="fill: #60c1cb"/>
      <path d="M61.11,29.72l-.09.06.07,0A9.08,9.08,0,0,0,54,25.28a12.48,12.48,0,0,0-4.29.64c-.69.21-1.36.47-2,.72-.34.12-.67.25-1,.35a1.67,1.67,0,0,1-1,.1v0a1.63,1.63,0,0,1-.44-.77c-.1-.3-.18-.6-.26-.91-.17-.61-.34-1.22-.54-1.82a12.68,12.68,0,0,0-1.65-3.44,10.13,10.13,0,0,0-5.45-3.71c-.31-.09-.61-.16-.92-.22v.06l0-.11a7.36,7.36,0,0,0-4.67.48,6.64,6.64,0,0,0-3.14,3.5,18.08,18.08,0,0,0-1.46,9.27,28.73,28.73,0,0,0,1.34,6.15c.32,1,.67,2,1.08,3A47.85,47.85,0,0,0,34,46.82c-.55.57-1.09,1.16-1.6,1.77l0,0h0a.37.37,0,1,0-.53.52,6.55,6.55,0,0,0,1.62,1.22,6.25,6.25,0,0,0,1,.43h0a5.79,5.79,0,0,0,.85.19.37.37,0,0,0,.41-.34.36.36,0,0,0-.33-.4h0c.19-.78.34-1.58.47-2.37a48.82,48.82,0,0,0,9-.95,33.13,33.13,0,0,0,8.55-2.87,19.1,19.1,0,0,0,6.87-5.81,9,9,0,0,0,1.79-4.15A7.06,7.06,0,0,0,61.11,29.72ZM36.36,16.35l0,0h0ZM36,47.75h0a1.65,1.65,0,0,1-1.74-.81,1.85,1.85,0,0,0,.24.44,1.77,1.77,0,0,0,.41.41,8.57,8.57,0,0,0,1,.68c-.1,0-.19,0-.28-.06a2.3,2.3,0,0,1-1.16-.14,2,2,0,0,1-1-.78,8.87,8.87,0,0,0,1.08.52,3.75,3.75,0,0,0,.47.17,1.33,1.33,0,0,1-.3-.18,1.27,1.27,0,0,1-.51-1.11s0-.06-.06-.1h0l0,0a4.43,4.43,0,0,0,.89.59,6.51,6.51,0,0,0,1,.4ZM37.1,18.27a4.55,4.55,0,0,0-4.43,2,12.07,12.07,0,0,0-2,4.87,24.55,24.55,0,0,0-.17,5.76,56.15,56.15,0,0,0,.73,5.86l-.21.06a41.91,41.91,0,0,1-1.62-5.78,26.16,26.16,0,0,1-.5-6.09,15.83,15.83,0,0,1,.45-3.16,7,7,0,0,1,1.61-3A5.33,5.33,0,0,1,34,17.2a3.78,3.78,0,0,1,3.16.86ZM59.21,29.82a8.27,8.27,0,0,0-3-1.36,18.67,18.67,0,0,0-3.18-.71,19.85,19.85,0,0,0-6.82.87l-.07-.16a16.82,16.82,0,0,1,6.91-2,7.59,7.59,0,0,1,3.75.47,4.2,4.2,0,0,1,2.53,2.85Z" transform="translate(-0.79 -0.91)" style="fill: #60c1cb"/>
    </g>
    <g>
      <path d="M38,8.82A14,14,0,0,0,36.9,4.48a6.19,6.19,0,0,0-3.3-3l0,.1,0-.1A9,9,0,0,0,28.88,1a11.12,11.12,0,0,0-4.47,1.69,11.2,11.2,0,0,0-3.17,3.58c-.41.68-.76,1.4-1.1,2.11l-.51,1.06c-.18.33-.37.73-.65.86l0,0a1.52,1.52,0,0,1-.91-.22c-.3-.15-.59-.32-.87-.48-.58-.34-1.15-.68-1.74-1A14.35,14.35,0,0,0,11.74,7.2a9,9,0,0,0-4,.06A9.74,9.74,0,0,0,4.14,9l0,.05L4.06,9a8.25,8.25,0,0,0-2.94,3.93,7.06,7.06,0,0,0,.26,4.92,18.67,18.67,0,0,0,5.78,7.89,33.33,33.33,0,0,0,8.48,4.88A45.73,45.73,0,0,0,25,33.27v0c0,.82,0,1.65,0,2.47a.32.32,0,0,0-.23.09h0a.38.38,0,0,0-.13.26s0,0,0,.06a.35.35,0,0,0,.08.22.4.4,0,0,0,.19.11l.07,0h.08A6.14,6.14,0,0,0,27,36.24h0l0,0,.12,0,.56-.21a14.67,14.67,0,0,1,1,4.17,19.77,19.77,0,0,1-.6,6.72c-1.22,4.38-3.76,8.3-5.7,12.44a21.85,21.85,0,0,0-2.08,6.59,10.63,10.63,0,0,0,.88,5.85l-.16.17a15.15,15.15,0,0,0-3.74,7.84,9.55,9.55,0,0,0,.42,4.34A9.9,9.9,0,0,0,20,87.79a30.18,30.18,0,0,1,5.84,6.33A8.88,8.88,0,0,1,27.35,98a4.15,4.15,0,0,1-1.49,3.67,3.37,3.37,0,0,1-3.84.44,2.38,2.38,0,0,1-1.21-1.59,2.35,2.35,0,0,1,.65-1.93l0,0a2.45,2.45,0,0,0-.79,2,2.48,2.48,0,0,0,1.25,1.81,3.67,3.67,0,0,0,4.26-.37,4.64,4.64,0,0,0,1.7-4,8.94,8.94,0,0,0-1.63-4.1,21.6,21.6,0,0,0-2.85-3.33c-1-1-2.2-1.9-3.24-2.89a8.94,8.94,0,0,1-2.57-7.84,15.2,15.2,0,0,1,3.83-7.53l0,0,.25.44a47.14,47.14,0,0,1,3.7,5.75,9.64,9.64,0,0,1,1,3.19,2.47,2.47,0,0,1-.27,1.59,1,1,0,0,1-1.43.32l0,0a1.16,1.16,0,0,0,1.61-.27,2.66,2.66,0,0,0,.4-1.71,10,10,0,0,0-1-3.35,25.52,25.52,0,0,0-1.65-3c-.59-1-1.35-1.89-1.92-2.83-.11-.19-.21-.38-.31-.57a31.79,31.79,0,0,1,2.67-2.51q1.65-1.43,3.19-3a23.56,23.56,0,0,0,5.11-7.07,21.57,21.57,0,0,0,1.79-8.48h-.06a23.5,23.5,0,0,1-2.09,8.32,25.67,25.67,0,0,1-5.16,6.84c-1,1-2.09,2-3.16,2.94a34,34,0,0,0-2.54,2.42A10.46,10.46,0,0,1,20.79,66a22.85,22.85,0,0,1,1.84-6.52c.88-2.1,1.94-4.14,3-6.16A40,40,0,0,0,28.5,47a18,18,0,0,0,.58-6.89,13.51,13.51,0,0,0-1.2-4.22,6.45,6.45,0,0,0,.58-.3,28.73,28.73,0,0,1-1.34-6.15,18.08,18.08,0,0,1,1.46-9.27,6.64,6.64,0,0,1,3.14-3.5,7.36,7.36,0,0,1,4.67-.48l0,.11v-.06c.31.06.61.13.92.22A20.14,20.14,0,0,0,38,8.82ZM11.54,24a14.18,14.18,0,0,1-7.2-5.73A10.75,10.75,0,0,1,3.3,16a5.3,5.3,0,0,1-.13-2.6A4.48,4.48,0,0,1,6.49,9.79l.13.18a6.48,6.48,0,0,0-1.24,3.74,9.49,9.49,0,0,0,.55,3.8A11.1,11.1,0,0,0,8.27,21a18.91,18.91,0,0,0,3.37,2.84Zm15.61,8.4c0,.05-.07.08-.1.12a1.32,1.32,0,0,1-.72,1l-.2.07v0l.37-.07a7.55,7.55,0,0,0,1.19-.33,2.13,2.13,0,0,1-1.13.61,2.47,2.47,0,0,1-1.21-.07,2.81,2.81,0,0,1-.29,0,9.85,9.85,0,0,0,1.13-.5,2.38,2.38,0,0,0,.49-.34,2.15,2.15,0,0,0,.32-.41,1.75,1.75,0,0,1-1.92.51h0a6,6,0,0,0,1.09-.23A4.43,4.43,0,0,0,27.15,32.44Zm4-29.28a9.28,9.28,0,0,0-3.45,1.3,17.54,17.54,0,0,0-3,2.06,11.91,11.91,0,0,0-2.34,3,8.66,8.66,0,0,0-1.16,3.64H21a8.51,8.51,0,0,1,.58-4A13,13,0,0,1,23.67,5.6,8.66,8.66,0,0,1,26.94,3a4.92,4.92,0,0,1,4.21,0Z" transform="translate(-0.79 -0.91)" style="fill: #5f5f5f"/>
      <path d="M36.36,16.36h0l0,0Z" transform="translate(-0.79 -0.91)" style="fill: #5f5f5f"/>
      <path d="M34.12,46.76l0,0h0s0,.06.06.1A1.27,1.27,0,0,0,34.7,48a1.33,1.33,0,0,0,.3.18,3.75,3.75,0,0,1-.47-.17,8.87,8.87,0,0,1-1.08-.52,2,2,0,0,0,1,.78,2.3,2.3,0,0,0,1.16.14c.09,0,.18.05.28.06a8.57,8.57,0,0,1-1-.68,1.77,1.77,0,0,1-.41-.41,1.85,1.85,0,0,1-.24-.44,1.65,1.65,0,0,0,1.74.81h0a6.51,6.51,0,0,1-1-.4A4.43,4.43,0,0,1,34.12,46.76Z" transform="translate(-0.79 -0.91)" style="fill: #5f5f5f"/>
    </g>
  </g>
</svg>
