<svg class="wedding__winge-glasses-icon" xmlns="http://www.w3.org/2000/svg" viewBox="0 0 48.52 48.16">
  <title>Wine glasses</title>
  <g>
    <path d="M27.85,4.6c.09-.2-.07-.39-.16-.55a4,4,0,0,0-.38-.44,8.83,8.83,0,0,0-.87-.75A16.36,16.36,0,0,0,24.5,1.62,17.73,17.73,0,0,0,22.41.69,8.31,8.31,0,0,0,21.3.37,2.79,2.79,0,0,0,20.72.3c-.18,0-.43,0-.55.16h0l0,0L15.71,5.71c-1.47,1.77-2.93,3.55-4.24,5.45a19.7,19.7,0,0,0-1.71,3A7.64,7.64,0,0,0,9,17.51a4.89,4.89,0,0,0,1.38,3.12,9.48,9.48,0,0,0,2,1.61c-.28.66-.62,1.3-1,1.94s-.67,1.28-1,1.91L8.28,29.9a36.71,36.71,0,0,1-2.14,3.74A6.15,6.15,0,0,1,5,35a16,16,0,0,0-1.62-.63A9.58,9.58,0,0,0,1.83,34a3.29,3.29,0,0,0-.77,0,.87.87,0,0,0-.7.31l0,0h0l0,0a.94.94,0,0,0,0,.85,5.17,5.17,0,0,0,.36.75,6.88,6.88,0,0,0,1,1.25A11.24,11.24,0,0,0,4.28,39a10.93,10.93,0,0,0,3,1.11,6.62,6.62,0,0,0,1.61.17,3.87,3.87,0,0,0,.82-.12.89.89,0,0,0,.69-.48h0l0,0a.91.91,0,0,0-.12-.77,4,4,0,0,0-.46-.62,8.5,8.5,0,0,0-1.11-1,13.35,13.35,0,0,0-1.38-1c0-.12,0-.23,0-.34a1.52,1.52,0,0,1,0-.21c0-.08.06-.19.08-.24.13-.34.26-.67.41-1,.56-1.3,1.22-2.58,1.92-3.85s1.32-2.57,2-3.85c.33-.64.67-1.28,1-1.9A21.52,21.52,0,0,1,13.85,23a9.28,9.28,0,0,0,2.45.81,4.86,4.86,0,0,0,3.38-.55,7.39,7.39,0,0,0,2.42-2.46,19.94,19.94,0,0,0,1.59-3.08c.88-2.13,1.57-4.32,2.24-6.52l2-6.62ZM20.2.48h0l0,0ZM8.32,37.73c.41.28.81.55,1.19.86s.8.63.8,1.09a.47.47,0,0,1-.2.17,1.35,1.35,0,0,1-.44.07,3.06,3.06,0,0,1-.74-.09,8,8,0,0,1-1.45-.39,16.6,16.6,0,0,1-2.76-1.23,17.24,17.24,0,0,1-2.53-1.62,8.9,8.9,0,0,1-1.13-1A3.79,3.79,0,0,1,.58,35a1.44,1.44,0,0,1-.18-.4.5.5,0,0,1,0-.27c.39-.25.9-.06,1.35.08A14.24,14.24,0,0,1,3.15,35l.93.43a2.29,2.29,0,0,1-1.31-.17v0l0,0a4.37,4.37,0,0,0,1,1.31,9.14,9.14,0,0,0,1.36.94,9.2,9.2,0,0,0,1.54.58,5.29,5.29,0,0,0,1.64.17v0l0,0a2.49,2.49,0,0,1-.74-.93Zm-.14.43a14.07,14.07,0,0,1-2.83-1.1,10,10,0,0,1-2.47-1.75,2.38,2.38,0,0,0,1.53.22c.46.23.93.46,1.38.71s1,.55,1.49.85A2.83,2.83,0,0,0,8.18,38.16ZM11.41,26.6c-.74,1.25-1.42,2.54-2.1,3.82a35.5,35.5,0,0,0-1.85,3.95A5.29,5.29,0,0,0,7,36.11l-.89-.53c-.29-.16-.6-.29-.9-.43a7.26,7.26,0,0,0,1.21-1.27,32.39,32.39,0,0,0,2.27-3.74c.68-1.29,1.39-2.56,2-3.87a34.43,34.43,0,0,0,1.7-4l.29.17,0,0c.09.1.22.15.33.25a2.78,2.78,0,0,0,.37.13l.34.18A34.43,34.43,0,0,0,11.41,26.6ZM25.19,11c-.81,2.14-1.49,4.33-2.42,6.37s-1.85,4.11-3.48,5.25a4.24,4.24,0,0,1-2.9.69,8.46,8.46,0,0,1-2.34-.47.55.55,0,0,0,0-.17,1,1,0,0,0-.13-.35,1.64,1.64,0,0,0-.43-.41,1.7,1.7,0,0,0-.58-.14,1.06,1.06,0,0,0-.36.09.37.37,0,0,0-.17.16,9.16,9.16,0,0,1-1.74-1.66,4.32,4.32,0,0,1-1.08-2.87c0-2.08,1.24-4.09,2.51-5.91.54-.85,1.14-1.67,1.75-2.48l.31.09.29,0c-.44.56-.89,1.12-1.31,1.7a15.57,15.57,0,0,0-2.64,4.9,5.7,5.7,0,0,0-.07,2.9A4,4,0,0,0,12.08,21l.07-.08a4.33,4.33,0,0,1-1-2.34,6,6,0,0,1,.34-2.48,23.11,23.11,0,0,1,2.34-4.73c.45-.69.93-1.37,1.41-2.05.48.05.95.1,1.43.11,1.11.05,2.22.1,3.34.06s2.23,0,3.34-.06c.55,0,1.11-.06,1.65-.13a5.59,5.59,0,0,0,.82-.12l.09,0Zm1.22-3.23-.27.7-.3-.14a3.58,3.58,0,0,0-.35-.09l-.15,0L25,8.11c-.56-.11-1.11-.19-1.68-.25a33.59,33.59,0,0,0-6.75,0l-.34,0c1.31-1.76,2.67-3.49,4-5.27l-.08-.07C18.58,4.39,17,6.17,15.43,8l-.5.09-.42.12c.55-.72,1.1-1.43,1.64-2.15l2.08-2.75c.66-.94,1.35-1.85,2-2.82,0,.15.1.32.2.44a3.09,3.09,0,0,0,.41.4,8.91,8.91,0,0,0,.9.69,22.17,22.17,0,0,0,1.94,1.17c.66.35,1.34.69,2,1a10.41,10.41,0,0,0,1.07.37,3.61,3.61,0,0,0,.55.12.68.68,0,0,0,.47-.07C27.27,5.65,26.86,6.72,26.41,7.77Zm1.4-3.18h0l0,0Z" transform="translate(-0.24 -0.3)" style="fill: #5f5f5f"/>
    <path d="M48.69,43.84l0,0h0a.84.84,0,0,1-.24.71,3.13,3.13,0,0,1-.54.55,8.31,8.31,0,0,1-1.26.87,16,16,0,0,1-5.78,2,8.71,8.71,0,0,1-1.53.07,3.86,3.86,0,0,1-.76-.1.9.9,0,0,1-.63-.42h0l0,0c.05.3.35.48.6.59a4.52,4.52,0,0,0,.79.25,7.31,7.31,0,0,0,1.61.11,11.56,11.56,0,0,0,3.14-.6,11.31,11.31,0,0,0,2.84-1.43,6.72,6.72,0,0,0,1.21-1.06,4.15,4.15,0,0,0,.48-.68A.9.9,0,0,0,48.69,43.84Z" transform="translate(-0.24 -0.3)" style="fill: #5f5f5f"/>
    <path d="M38,47.48h0a.61.61,0,0,0,.2.19.44.44,0,0,1-.18-.2c.09-.45.57-.7,1-.94s.87-.44,1.31-.64q.4-.18.81-.33a2.57,2.57,0,0,1-.88.79v0a5.35,5.35,0,0,0,1.64.1,8.91,8.91,0,0,0,1.62-.31,8.51,8.51,0,0,0,1.5-.7,4.34,4.34,0,0,0,1.22-1.12v0a2.36,2.36,0,0,1-1.32-.06l1-.27a14.62,14.62,0,0,1,1.44-.28c.46-.06,1-.16,1.34.15a.42.42,0,0,1,0,.27.45.45,0,0,0,0-.28h0l0,0a.84.84,0,0,0-.64-.42,4,4,0,0,0-.76-.1,9.67,9.67,0,0,0-1.53.1,16,16,0,0,0-1.7.34,5.46,5.46,0,0,1-1-1.55,37.27,37.27,0,0,1-1.49-4l-1.45-4.11c-.25-.68-.48-1.37-.7-2.06s-.46-1.36-.63-2.06a9.49,9.49,0,0,0,2.27-1.25A4.86,4.86,0,0,0,43,25.84a7.46,7.46,0,0,0-.19-3.45,20.67,20.67,0,0,0-1.18-3.25c-1-2.09-2.11-4.08-3.27-6.07L34.85,7.14l0,0C34.71,7,34.48,7,34.3,7a5.43,5.43,0,0,0-.57,0,10.47,10.47,0,0,0-1.12.19,18.73,18.73,0,0,0-2.19.61,19.31,19.31,0,0,0-2.11.84c-.24.12-.47.25-.7.38h0a2.34,2.34,0,0,0-.27.15,4,4,0,0,0-.47.33c-.13.12-.32.26-.28.47h0l.83,6.84c.3,2.28.61,4.57,1.12,6.81a21.45,21.45,0,0,0,1.05,3.3,7.54,7.54,0,0,0,2,2.83,4.9,4.9,0,0,0,3.22,1.1,9.55,9.55,0,0,0,2.55-.39,21.52,21.52,0,0,1,.75,2c.25.68.48,1.36.7,2.05.45,1.37.91,2.75,1.33,4.13S41,41.4,41.3,42.78c.09.35.16.7.23,1a1.45,1.45,0,0,1,0,.25,1.62,1.62,0,0,1,0,.22c0,.11,0,.22-.06.33a15.36,15.36,0,0,0-1.53.74,8.86,8.86,0,0,0-1.27.86,3.45,3.45,0,0,0-.55.53.86.86,0,0,0-.25.73ZM34.78,7.17h0l0,0ZM26.57,10h0Zm1.37,6.78-.6-3.4c-.25-1.12-.45-2.25-.73-3.37.09.14.3.15.46.16a3.62,3.62,0,0,0,.57,0,10.73,10.73,0,0,0,1.11-.19,20.17,20.17,0,0,0,2.18-.63A19.25,19.25,0,0,0,33,8.45a10.47,10.47,0,0,0,1-.52,4,4,0,0,0,.47-.33c.11-.1.26-.23.27-.38.41,1.08.91,2.1,1.37,3.15l1.54,3.09c.89,1.79,1.86,3.53,2.67,5.31l-.27-.07a17.72,17.72,0,0,0-1.78-.25,37.57,37.57,0,0,0-7.14,0,17.13,17.13,0,0,0-1.77.25h0c-.09-.44-.18-.88-.26-1.32-.38-1.78-.66-3.59-1.19-5.35l-.1,0c.4,1.78.54,3.6.79,5.41.07.46.13.92.2,1.38l-.27.07-.2.08Zm9.17,13.34a.6.6,0,0,0,0,.23,8.79,8.79,0,0,1-2.39.14,4.45,4.45,0,0,1-2.86-1.15c-1.5-1.44-2.17-3.68-2.66-5.85-.3-1.17-.52-2.36-.73-3.56l.06,0A3.69,3.69,0,0,0,29,20c.17,1,.36,1.93.6,2.88A11.56,11.56,0,0,0,31.94,28a4.49,4.49,0,0,0,2.58,1.44A4.65,4.65,0,0,0,37.31,29l0-.1a5.36,5.36,0,0,1-2.59-.09,4.29,4.29,0,0,1-2-1.42,14.67,14.67,0,0,1-2.33-4.68c-.26-.82-.48-1.66-.68-2.51.5.09,1,.15,1.49.2,1.19.11,2.38.16,3.57.16s2.38-.05,3.57-.16c.59-.06,1.18-.13,1.77-.24a7.23,7.23,0,0,0,.8-.21,10.9,10.9,0,0,1,1.35,5.76,4.18,4.18,0,0,1-1.45,2.6,8.86,8.86,0,0,1-1.94,1.39.53.53,0,0,0-.11-.14,1.11,1.11,0,0,0-.35-.14,1.51,1.51,0,0,0-.6,0,1.74,1.74,0,0,0-.48.32A1.15,1.15,0,0,0,37.11,30.07Zm3.41,8.44c-.46-1.38-.91-2.76-1.43-4.11a31.88,31.88,0,0,0-1.77-4l.32-.1h0c.14,0,.23-.05.41-.08s.24-.1.34-.17l.36-.14a31.62,31.62,0,0,0,1,4.22c.41,1.4.89,2.78,1.35,4.16a30.89,30.89,0,0,0,1.61,4.06,6.91,6.91,0,0,0,1,1.46c-.32.09-.64.17-1,.28s-.64.24-1,.37a5.41,5.41,0,0,0-.14-1.79A33.91,33.91,0,0,0,40.52,38.51ZM43,44.84c.49-.18,1-.33,1.48-.47a2.39,2.39,0,0,0,1.54,0,10.05,10.05,0,0,1-2.72,1.31,13.84,13.84,0,0,1-3,.61,2.85,2.85,0,0,0,1.07-.91C41.94,45.21,42.48,45,43,44.84Z" transform="translate(-0.24 -0.3)" style="fill: #5f5f5f"/>
    <path d="M35.48,25.76a.61.61,0,0,0-.75.36.71.71,0,0,0,.2.77.41.41,0,0,0,.25.08.9.9,0,0,0,.8-.68C36,26.17,36,25.88,35.48,25.76Zm-.3,1a.12.12,0,0,1-.09,0,.43.43,0,0,1-.12-.48.3.3,0,0,1,.32-.22l.13,0c.15,0,.33.1.31.25A.67.67,0,0,1,35.18,26.72Z" transform="translate(-0.24 -0.3)" style="fill: #61c1cb"/>
    <path d="M19.78,15.3a.62.62,0,0,0-.75.36.72.72,0,0,0,.21.77.38.38,0,0,0,.24.08.92.92,0,0,0,.81-.68C20.3,15.71,20.28,15.42,19.78,15.3Zm-.3,1a.16.16,0,0,1-.09,0,.44.44,0,0,1-.12-.48.32.32,0,0,1,.32-.22l.14,0c.15,0,.32.1.31.25A.69.69,0,0,1,19.48,16.26Z" transform="translate(-0.24 -0.3)" style="fill: #61c1cb"/>
    <path d="M33.51,22.28a.62.62,0,0,0-.47.3.61.61,0,0,0-.1.67.7.7,0,0,0,.61.36.73.73,0,0,0,.29-.07c.2-.1.28-.37.2-.7S33.75,22.28,33.51,22.28Zm.22,1a.47.47,0,0,1-.57-.18.39.39,0,0,1,.08-.41c.1-.13.19-.2.27-.2s.24.18.29.37S33.81,23.27,33.73,23.32Z" transform="translate(-0.24 -0.3)" style="fill: #61c1cb"/>
    <path d="M14.18,19.36a.44.44,0,0,0-.33.14.7.7,0,0,0-.11.53.59.59,0,0,0,.59.58.7.7,0,0,0,.65-.45.41.41,0,0,0-.08-.4A1,1,0,0,0,14.18,19.36Zm.15,1c-.11,0-.3-.05-.34-.36a.43.43,0,0,1,0-.33.17.17,0,0,1,.14-.06.77.77,0,0,1,.52.29.23.23,0,0,1,.05.18A.46.46,0,0,1,14.33,20.36Z" transform="translate(-0.24 -0.3)" style="fill: #61c1cb"/>
    <path d="M37.91,26.44a.7.7,0,0,0,.67-.53.42.42,0,0,0-.1-.36,1,1,0,0,0-.71-.34.46.46,0,0,0-.37.16.64.64,0,0,0-.06.56A.59.59,0,0,0,37.91,26.44Zm-.32-.91a.22.22,0,0,1,.18-.07.76.76,0,0,1,.52.25.2.2,0,0,1,.05.15.45.45,0,0,1-.43.33c-.16,0-.28-.12-.33-.32S37.54,25.59,37.59,25.53Z" transform="translate(-0.24 -0.3)" style="fill: #61c1cb"/>
    <path d="M20.52,13.62a.43.43,0,0,0-.37.16.62.62,0,0,0-.06.55.6.6,0,0,0,.58.51.71.71,0,0,0,.67-.52.46.46,0,0,0-.1-.36A1,1,0,0,0,20.52,13.62Zm.15,1c-.17,0-.29-.11-.34-.32a.42.42,0,0,1,0-.34.22.22,0,0,1,.17-.06.74.74,0,0,1,.52.25s.07.09.05.14A.44.44,0,0,1,20.67,14.59Z" transform="translate(-0.24 -0.3)" style="fill: #61c1cb"/>
    <path d="M36.61,23.62c-.08,0-.34,0-.35.45a.48.48,0,0,0,.12.37.44.44,0,0,0,.33.14.53.53,0,0,0,.45-.27.35.35,0,0,0,0-.35A.7.7,0,0,0,36.61,23.62Zm0,.65a.23.23,0,0,1-.05-.19c0-.14,0-.21.1-.21a.42.42,0,0,1,.3.22.13.13,0,0,1,0,.11A.28.28,0,0,1,36.56,24.27Z" transform="translate(-0.24 -0.3)" style="fill: #61c1cb"/>
    <path d="M19.62,12.64a.53.53,0,0,0,.46-.26A.35.35,0,0,0,20,12a.66.66,0,0,0-.52-.34c-.07,0-.33,0-.35.45a.51.51,0,0,0,.13.37A.41.41,0,0,0,19.62,12.64Zm-.1-.7a.45.45,0,0,1,.31.21s0,.09,0,.11a.23.23,0,0,1-.44-.11C19.43,12,19.46,11.94,19.52,11.94Z" transform="translate(-0.24 -0.3)" style="fill: #61c1cb"/>
    <path d="M16.89,16.05c-.08,0-.34,0-.35.44a.5.5,0,0,0,.12.38A.49.49,0,0,0,17,17a.51.51,0,0,0,.45-.26.34.34,0,0,0,0-.36A.69.69,0,0,0,16.89,16.05Zm0,.64a.25.25,0,0,1-.06-.19c0-.13,0-.2.1-.2a.43.43,0,0,1,.3.21s0,.09,0,.11S16.93,16.79,16.85,16.69Z" transform="translate(-0.24 -0.3)" style="fill: #61c1cb"/>
    <path d="M38.3,27.86a.52.52,0,0,0,0-.5.36.36,0,0,0-.35-.17.61.61,0,0,0-.57.32c0,.09,0,.27.21.46a.59.59,0,0,0,.32.11A.44.44,0,0,0,38.3,27.86Zm-.66-.27c0-.07.18-.15.33-.15a.21.21,0,0,1,.13,0,.27.27,0,0,1,0,.26.17.17,0,0,1-.15.1.29.29,0,0,1-.17-.06S37.62,27.65,37.64,27.59Z" transform="translate(-0.24 -0.3)" style="fill: #61c1cb"/>
    <path d="M40.13,21.78a.55.55,0,0,0,.31-.13.46.46,0,0,0,.2-.52.51.51,0,0,0-.56-.34c-.23,0-.33.33-.31.57S39.93,21.78,40.13,21.78Zm0-.74h0a.27.27,0,0,1,.25.18.22.22,0,0,1-.1.24.31.31,0,0,1-.17.08c-.09,0-.11-.17-.11-.19S40.07,21.05,40.12,21Z" transform="translate(-0.24 -0.3)" style="fill: #61c1cb"/>
    <path d="M17.21,10.36c-.23,0-.32.33-.3.57s.16.42.35.42a.57.57,0,0,0,.32-.13.47.47,0,0,0,.2-.52A.53.53,0,0,0,17.21,10.36Zm.22.66a.29.29,0,0,1-.17.08c-.09,0-.1-.17-.1-.19a.32.32,0,0,1,.09-.3h0a.27.27,0,0,1,.25.18A.22.22,0,0,1,17.43,11Z" transform="translate(-0.24 -0.3)" style="fill: #61c1cb"/>
  </g>
</svg>
