<svg width="20" height="19" viewBox="0 0 20 19" fill="none" xmlns="http://www.w3.org/2000/svg">
<path d="M19.5538 0.0523258C19.4442 -0.014174 19.3076 -0.017097 19.1947 0.0424604L13.1538 3.24066L7.11328 0.0424604C7.10853 0.0399027 7.10305 0.0391719 7.0983 0.0369796C7.08076 0.0285758 7.06286 0.0223643 7.04459 0.0168836C7.03436 0.0139605 7.02449 0.0106721 7.01426 0.00847978C6.99416 0.00446056 6.9737 0.00299904 6.95288 0.00226828C6.94374 0.00190289 6.93461 0.000806736 6.92511 0.00117212C6.90538 0.00226827 6.88601 0.00592209 6.86665 0.0103067C6.85568 0.012499 6.84472 0.0139605 6.83413 0.017249C6.83157 0.0179798 6.82901 0.0179797 6.82682 0.0187105L0.249922 2.21101C0.10048 2.2607 0 2.40028 0 2.55776V18.2692C0 18.3865 0.056269 18.4969 0.151999 18.5659C0.214845 18.6109 0.289749 18.6346 0.365383 18.6346C0.404114 18.6346 0.44321 18.6284 0.480844 18.6156L6.9284 16.4664L13.0146 18.9726C13.0197 18.9748 13.0255 18.9741 13.0307 18.9759C13.0709 18.9901 13.1118 19 13.1538 19C13.1867 19 13.2192 18.9945 13.251 18.9858C13.2612 18.9828 13.2707 18.9781 13.2809 18.9744C13.2956 18.9689 13.3109 18.9649 13.3248 18.9576L19.5363 15.6692C19.6558 15.606 19.7307 15.4814 19.7307 15.3462V0.365459C19.7307 0.23721 19.6635 0.11846 19.5538 0.0523258ZM0.730766 2.8212L6.5769 0.872611V10.735C6.41978 10.7635 6.26486 10.7957 6.11505 10.8351C5.91994 10.887 5.80375 11.0869 5.85563 11.282C5.89911 11.4457 6.04673 11.5539 6.20859 11.5539C6.23928 11.5539 6.27107 11.5498 6.30249 11.5418C6.39019 11.5184 6.48592 11.5067 6.5769 11.4877V15.8139L0.730766 17.7621V2.8212ZM7.30766 11.3854C7.42495 11.3763 7.53859 11.3613 7.6588 11.3587C7.86049 11.3544 8.02053 11.1874 8.01651 10.9857C8.01212 10.7866 7.84953 10.628 7.65112 10.628C7.64857 10.628 7.64564 10.628 7.64309 10.628C7.52982 10.6305 7.41837 10.6367 7.30766 10.6444V0.972361L12.7884 3.87387V11.6178C12.5275 11.6065 12.2623 11.5758 11.9842 11.5221C11.7854 11.483 11.5943 11.613 11.556 11.8111C11.5176 12.0091 11.6473 12.201 11.8454 12.2393C12.1691 12.3022 12.4833 12.3329 12.7888 12.3449V18.0891L7.30766 15.8321V11.3854ZM18.9999 15.1258L13.5192 18.0274V12.3055C13.6551 12.2437 13.7457 12.1049 13.7337 11.9474C13.7231 11.8107 13.6354 11.7011 13.5192 11.6474V3.87387L18.9999 0.972361V15.1258Z" fill="#24262D"/>
<path d="M4.0193 2.92316C3.01194 2.92316 2.19238 3.74271 2.19238 4.75007C2.19238 5.63247 2.82121 6.37018 3.65392 6.54008V7.30775C3.65392 7.50981 3.81761 7.67314 4.0193 7.67314C4.22099 7.67314 4.38468 7.50981 4.38468 7.30775V6.54008C5.21739 6.37018 5.84621 5.63247 5.84621 4.75007C5.84621 3.74271 5.02666 2.92316 4.0193 2.92316ZM4.0193 5.84622C3.41495 5.84622 2.92315 5.35442 2.92315 4.75007C2.92315 4.14573 3.41495 3.65392 4.0193 3.65392C4.62364 3.65392 5.11545 4.14573 5.11545 4.75007C5.11545 5.35442 4.62364 5.84622 4.0193 5.84622Z" fill="#24262D"/>
<path d="M16.4679 9.74593C16.5117 9.7631 16.5566 9.77077 16.6009 9.77077C16.747 9.77077 16.8848 9.68272 16.9414 9.53839C17.1131 9.10029 17.2509 8.60557 17.3517 8.06809C17.389 7.87005 17.2582 7.67932 17.0598 7.64169C16.8603 7.6088 16.6706 7.73559 16.6334 7.93399C16.5413 8.42653 16.416 8.87668 16.2611 9.27239C16.1876 9.45983 16.2801 9.67212 16.4679 9.74593Z" fill="#24262D"/>
<path d="M4.67867 11.4519C4.23765 11.7285 3.84011 12.0749 3.49665 12.4823C3.36658 12.6365 3.38631 12.867 3.5405 12.9971C3.60919 13.0548 3.69286 13.083 3.77581 13.083C3.87994 13.083 3.98298 13.0388 4.05532 12.9533C4.34982 12.604 4.68999 12.3069 5.0667 12.0712C5.2377 11.9638 5.28922 11.7384 5.18217 11.5674C5.07511 11.3964 4.8493 11.3445 4.67867 11.4519Z" fill="#24262D"/>
<path d="M3.15215 13.6201C2.96872 13.5361 2.75169 13.6153 2.66728 13.7988C2.2924 14.6121 2.19959 15.2687 2.19557 15.2965C2.16817 15.4963 2.30775 15.6801 2.50761 15.7075C2.52442 15.7101 2.54159 15.7112 2.55803 15.7112C2.73744 15.7112 2.89382 15.5789 2.91976 15.3966C2.92049 15.3907 3.00417 14.8131 3.33082 14.1053C3.41522 13.9215 3.3352 13.7049 3.15215 13.6201Z" fill="#24262D"/>
<path d="M14.77 11.9587C14.8259 11.9587 14.8829 11.9459 14.9359 11.9189C15.4079 11.6774 15.8241 11.3346 16.1723 10.9009C16.2988 10.7434 16.2735 10.5132 16.1161 10.3872C15.9589 10.2619 15.7288 10.2863 15.6023 10.4435C15.3188 10.7968 14.9826 11.0741 14.603 11.2681C14.4232 11.3602 14.352 11.5802 14.4441 11.7599C14.5091 11.886 14.6374 11.9587 14.77 11.9587Z" fill="#24262D"/>
<path d="M10.6583 11.1194C10.4972 11.0518 10.4029 11.005 10.3967 11.0018C10.373 10.9897 10.3477 10.9798 10.3218 10.9733C9.92609 10.8717 9.53623 10.7913 9.16244 10.7343C8.96331 10.7029 8.77659 10.8406 8.7459 11.0401C8.71558 11.2396 8.85259 11.4263 9.05209 11.4567C9.39044 11.5085 9.74376 11.5809 10.1033 11.6722C10.1523 11.6956 10.2458 11.7398 10.3766 11.7943C10.4226 11.8136 10.4705 11.8224 10.5173 11.8224C10.6601 11.8224 10.7961 11.7384 10.8545 11.5981C10.9324 11.411 10.8447 11.1969 10.6583 11.1194Z" fill="#24262D"/>
<path d="M17.145 6.91716C17.153 6.91752 17.1607 6.91789 17.1687 6.91789C17.3598 6.91789 17.5206 6.76954 17.533 6.57552C17.5557 6.22439 17.567 5.8528 17.567 5.47207C17.567 5.34528 17.5659 5.21666 17.5634 5.08549C17.5597 4.88343 17.3843 4.72997 17.1914 4.72668C16.9897 4.73034 16.8289 4.89695 16.8326 5.09864C16.8348 5.22543 16.8362 5.35003 16.8362 5.47207C16.8362 5.83745 16.8253 6.19297 16.8037 6.52912C16.7909 6.73045 16.9437 6.904 17.145 6.91716Z" fill="#24262D"/>
<path d="M3.03024 10.1238C3.10149 10.195 3.19503 10.2308 3.28857 10.2308C3.38211 10.2308 3.47565 10.195 3.5469 10.1238L4.01934 9.65131L4.49178 10.1238C4.56303 10.195 4.65656 10.2308 4.7501 10.2308C4.84364 10.2308 4.93718 10.195 5.00843 10.1238C5.15129 9.98089 5.15129 9.74997 5.00843 9.6071L4.53599 9.13466L5.00843 8.66222C5.15129 8.51936 5.15129 8.28844 5.00843 8.14557C4.86556 8.00271 4.63464 8.00271 4.49178 8.14557L4.01934 8.61801L3.5469 8.14557C3.40403 8.00271 3.17311 8.00271 3.03024 8.14557C2.88738 8.28844 2.88738 8.51936 3.03024 8.66222L3.50268 9.13466L3.03024 9.6071C2.88738 9.7496 2.88738 9.98089 3.03024 10.1238Z" fill="#24262D"/>
</svg>
