<svg width="20" height="20" viewBox="0 0 20 20" fill="none" xmlns="http://www.w3.org/2000/svg">
<path d="M8.19921 6.1308V1.54126L0.539307 9.14173L8.19921 16.815V12.2258C8.19921 12.2258 14.903 10.5668 19.5176 18.3208C19.5176 18.3208 20.6681 12.4026 15.514 8.11396C15.5144 8.11358 13.2318 5.97919 8.19921 6.1308Z" fill="#4DD3D7"/>
<path d="M19.7013 19.3733L19.1905 18.5155C15.2996 11.9771 9.89524 12.3431 8.58024 12.5424V17.7361L0 9.14059L8.58024 0.626251V5.74263C13.4288 5.70339 15.6825 7.74941 15.7746 7.8355C21.0243 12.203 19.9036 18.3319 19.8918 18.3932L19.7013 19.3733ZM9.76915 11.6955C11.9637 11.6955 15.9952 12.4338 19.237 17.1719C19.2857 15.3156 18.8957 11.422 15.2714 8.40653C15.2337 8.373 12.9926 6.35975 8.2115 6.51136L7.81913 6.52279V2.4559L1.07882 9.14288L7.81837 15.8946V11.9275L8.10788 11.8559C8.13455 11.8491 8.7669 11.6955 9.76915 11.6955Z" fill="#4DD3D7"/>
</svg>
