<svg height="512pt" viewBox="0 -121 512 512" width="512pt" xmlns="http://www.w3.org/2000/svg" fill="#00a3bb">
    <path d="m488.75.144531c-56.289062 0-112.789062 17-159.089844 47.863281l-18.203125 12.136719h-110.914062l-18.203125-12.136719c-46.300782-30.863281-102.800782-47.863281-159.089844-47.863281-.863281.25-23.25-3.417969-23.25 15v240c0 18.359375 22.472656 14.773438 23.25 15 56.289062 0 112.789062-17 159.089844-47.867187l18.203125-12.132813h110.914062l18.203125 12.132813c46.300782 30.867187 102.800782 47.867187 159.089844 47.867187.859375-.25 23.25 3.417969 23.25-15v-240c0-18.359375-22.472656-14.773437-23.25-15zm-458.75 239.910157v-209.820313c48.179688 1.292969 96.121094 16.351563 135.699219 42.738281l15.300781 10.199219v26.707031c-18.070312-9.09375-42.878906-19.734375-60-19.734375-8.285156 0-15 6.714844-15 15 0 8.285157 6.714844 15 15 15 9.679688 0 27.289062 7.074219 43.425781 14.988281-16.484375 8.054688-34.09375 15.011719-43.425781 15.011719-8.285156 0-15 6.714844-15 15 0 8.285157 6.714844 15 15 15 17.121094 0 41.929688-10.640625 60-19.734375v26.707032l-15.300781 10.199218c-39.578125 26.386719-87.519531 41.445313-135.699219 42.738282zm181-149.910157h90v90h-90zm271 149.910157c-48.179688-1.292969-96.121094-16.351563-135.699219-42.738282l-15.300781-10.199218v-26.707032c18.070312 9.09375 42.878906 19.734375 60 19.734375 8.285156 0 15-6.714843 15-15 0-8.285156-6.714844-15-15-15-9.679688 0-27.289062-7.074219-43.425781-14.992187 16.484375-8.050782 34.09375-15.007813 43.425781-15.007813 8.285156 0 15-6.714843 15-15 0-8.285156-6.714844-15-15-15-17.121094 0-41.929688 10.640625-60 19.734375v-26.707031l15.300781-10.203125c39.578125-26.382812 87.519531-41.445312 135.699219-42.734375zm0 0"/>
</svg>