<svg width="30" height="30" viewBox="0 0 30 30" fill="none" xmlns="http://www.w3.org/2000/svg">
    <path d="M15 0C6.70992 0 0 6.70881 0 15C0 23.2901 6.70881 30 15 30C23.2901 30 30 23.2912 30 15C30 6.70992 23.2912 0 15 0ZM15 27.6562C8.00525 27.6562 2.34375 21.9957 2.34375 15C2.34375 8.00525 8.00432 2.34375 15 2.34375C21.9947 2.34375 27.6562 8.00432 27.6562 15C27.6562 21.9947 21.9957 27.6562 15 27.6562ZM19.6875 12.2168C19.6875 14.397 18.1914 16.2343 16.1719 16.756V18.6621C16.1719 19.3093 15.6472 19.834 15 19.834C14.3528 19.834 13.8281 19.3093 13.8281 18.6621V15.7324C13.8281 15.0852 14.3528 14.5605 15 14.5605C16.2923 14.5605 17.3438 13.5091 17.3438 12.2168C17.3438 10.9245 16.2923 9.87305 15 9.87305C13.7077 9.87305 12.6562 10.9245 12.6562 12.2168C12.6562 12.864 12.1316 13.3887 11.4844 13.3887C10.8371 13.3887 10.3125 12.864 10.3125 12.2168C10.3125 9.63211 12.4153 7.5293 15 7.5293C17.5847 7.5293 19.6875 9.63211 19.6875 12.2168ZM16.4648 22.1777C16.4648 22.9867 15.809 23.6426 15 23.6426C14.191 23.6426 13.5352 22.9867 13.5352 22.1777C13.5352 21.3687 14.191 20.7129 15 20.7129C15.809 20.7129 16.4648 21.3687 16.4648 22.1777Z"
          fill="#00a3bb"/>
</svg>
